<svg xmlns="http://www.w3.org/2000/svg" viewBox="0 0 403 597"><path fill="#4f8d63" d="m258 29-2-4-2-6-3-4-1-5-4-4-4 1-5 6-5 1 1 3v3l-2 2-3 1-2 2-6 5-2 4-4 5-1 3-2 2-2 4v2l5-4v1l2-4 1-6 5-2 4-4 2-3 7-7h2l6-5 2-2v17l-2 2-1 6-2 2-2 4 3-3 3-5 1-3 3-2-2-4v-8l1-4 1-3 2 5 2 2 2 4 3 4zm63 48-1-3-4-2-5 1-2 14v7l-2 4-1 7-1 4-1-1V96l-3-4-2-1v7l-2 4-2 6-3 4 1 2 4 1h3l3 1 1-1 2-6 6-1 2-6 2-4 1-3 1-4v-2l1-4v-8zM28 391l-4-1-2 4 1 5h2l2 4 5 3 4 2 2 2h2l-3-3h2l5-1v-1l1-1-3-2-1-2-5-1-3-3-4-2z"/><path fill="#98bca3" d="m258 29-1-1-3-4-2-4-2-2-2-5-1 3-1 4v8l2 4-3 2-1 3-3 5-3 3 2-4 2-2 1-6 2-2V14l-2 2-6 5-5 6-3 3-3 4v3l2 2 2 4 2 2 6 1 1 6 2 4v5l2 4 2 1 2 5h1l5-5 6-5v-1l-2-4-1-7-2-4-2-5h2l2 6 3 2 3-3 1-4-2-1-5-1 5-5 1 1-2-4z"/><path fill="#186f78" d="m211 44 2-2 1-3 4-5 2-4 6-5 2-2 3-1 2-2v-3l-1-3-6 5-5 5-6 5-5 6-3 2 2-6v-2l-3 3-1 5-2 2v-3l1-8-2 4-1 5-1 8-1 4-1 6v4l1-4 1 4 2-4-1-6 1-5 3-3 3-1 2 3z"/><path fill="#306e54" d="M237 21h-2l-7 7-2 3-4 4-5 2-1 6-2 4 2 1 6-8 2-2v7l1 1 2-4v8l2 2 1-6 2-1-2-2-2-4-2-2v-3l3-4 3-3z"/><path fill="#327aa1" d="m209 29-2-5-4-1-5 6-4 5-3 4-3 5-5 5v3l3-1 3-5 5-5-1 4-2 2-3 4h4l-2 5-2 4v3h-1l1 2 3 1-1 4-1 3-2 2-3 5-4 3-2 2-1 3-2 2v1l-1 2v3l1 4h-2l1 1 6-1 2-4 4-3 2 2-2 4 1 3 3-5 1 4-3 1-4 5h6l4-3 6-2v-3l-2-1 1-4-2-1-3-2-1 3h-2l-3-4 1-4 1-3-3-2 1-4 3-5 3-3-1 4v3l2-4 1-7 2-2v-7l1-6 1-4 1-8 1-5 2-4-1 8v3l2-2 1-5z"/><g fill="#105d45"><path d="m163 68-2 1h-2l2-4 4-4 1 1 2-4 2-2 2-5 3-5 2-4 1-3 3-4v-7l-5 5-6 10-2 4-3 3-2 5-1 1 1 1-2 4-3 4-3 5-2 3 3 1-2 5-2 4-1 4 1 1-1 4v23h-3v-15h-3l-1 9-1 4 1 5h2l-2 2v1h-1l-1 5-2-2v3l-2 6-4 2-2 3-3-4-1-3-1 4v7l1 4 1 6-2 2-2-2-1-5-2-4 1-5-1-5v-1l-2 8-1-3v3l1 5 2 2v10l-2-4-1-1 1 9h3l-1 4-1 1v3l-1 5-2 2h-1l1 5-2 4 1 3v3l-1-1-2 4-1 7v13l2-2 1 1 1 5-1 5-2 1-1-1-1-4-2-4 1-5-2 2-1-5 2 2v-5h-3v3l-1 4-2 1v16l3 4 1 5 1 4 4 8 2 5 2-2 1 4v3l3 4 2 4 3 1 5 6v1l1-1-2-4-2-2-1-5-3-4-2-6h-3l1-4v-5h-3l1-5v-3l-3-1-1-3v-3l1-4 2 2h2v-9l-1-9 1-4 1 5 1 4 1-3 2-1-1-1v-12l1-4v-3l2-4 1-7 2-5 2-6 3-4 1-5 4-4v-1l4-4 2-4v-3h-3l-1 3-1 4v-7l1-4 2-6v-3l3-3 3-4v-3l2-3h3l4-4-3-4v-9l1-10 2-4 4 3 2 2 2-2 1 3-4 4h3v5l4-4v-6l1-3-1 1-4-2-1 1-1-3h-6v-2l1-5 2-4z"/><path d="M184 47v-4l-4 8-1-2-1 4v10l-3 1 1 1v5h-2l1 4-3 1 1 3 2-2 2 2-2 2-2 1v3l-1 2 1 1 3-4 5-4 1-3-3 2-1-4v-3l1-5 3-1h3v-3h3v-3l2-4 2-5h-4l3-4 2-2 1-4-5 5-3 5-3 1v-3zm159 244h-2l-3 2-2-2-3 4-3 5-3 1-6 6 1 1v1l-3 3 1 4v3l6-2 4-2-2-1v-3l2-2 1 5 4-2 6-2-2 3h2l2-2 4-3 1-4-3 3h-3l-2-1 1-7 2-1z"/></g><path fill="#4f8d63" d="m184 43 2-10-3-4-2-1v7l-3 4-1 3-2 4-3 5-2 5-2 2-2 4-1-1-4 4-2 4h2l2-1 2-2 2-3 1 2 2 8-2 1-1 7-1 5v1l4 2 1-1 2-4v-3l2-1 2-2-2-2-2 2-1-3 3-1-1-4h2v-5l-1-1 3-1V53l1-4 1 2zm-60 150v3l2 2 4 3 2 1 1 2 1-1-1-7h3l1 1 1-4-1-5h-3l1 1-4 1-1 3h2l-1 3-2-2-1-5v-3l1 2h2l-2-4 2-6v-3l2-4 4 1 4-2 1-4 1-1 3-4v-3l-1-5-3 1-3 5-2 6h-2l2-6 2-4-4 4-1 5-3 4-2 6-2 5-1 7-2 4zm-15 189-5-2-2-2-4-2-3-1h-3l-1-2-3-2-3-1h-3v2l3 4 1 3 6 12 4 1 1-2 8 4 2-4v3l1 3h5l1 2-1-4 4-3 4-1-2-3-5-2-1-1h-2zM271 48l-2-3-3-4-2-4-3-3-5 5 5 1 2 1-1 4-3 3-3-2-2-6h-2l2 5 2 4 1 7 2 4v1h2v-2l-2-2 1-4 3 3 1 5 2-2 4-2-2-6 2-1zM108 351v-3h-3l-3-4 1-1-4-8-2-2-1-2 3-1-3-4-5-2v2l-3 4 3 1 1 3 2 2-1 3-2 1 1 5 4 4 5 1 3 1 1-2z"/><path fill="#43aaa2" d="m230 56 1-3 3-4-2-4-2 1-1 6-2-2v-8l-2 4-1-1v-7l-2 2-6 8-5 5h4l1 6 2 1 3 1 4 2 2-5z"/><path fill="#105d45" d="m211 44-1-1-2-3-3 1-3 3-1 5 1 6-2 4-1-4-1 4v3l-2 2-1 7-2 4v-3l1-4-3 3-3 5-1 4 3 2-1 3-1 4 3 4h2l1-3v-2l2-2v-3l3-3 2-4 2-5 2-4 2-2v-1l3-4 2-4 2-2 1 5 1 4 2-3-2-1-1-6h-4l5-5-2-1v-1l-5 4v-2zm93 388 1-5-4 1 1-2 2-1h-3l-4 1-3 3-5 3-2 3-5 3-3 3-1 3-5 2-4 5h1l4-3 3-1 3-3 5-3 3-3 6-3 2-2 5-2 1 1z"/><path fill="#98bca3" d="M296 83v-3l-1-7-1-5-1-4-1-8-2-4-1-6-2-2h-3l-4-1-2 5-3-2-4 2-1 2h3l1 4 1 5 1-4 1 1 1-4h2l3 4 2 4 2-2v7l3 4 1 6 3 4 1 3z"/><path fill="#327aa1" d="m153 73 2-3 3-5 3-4 2-4-1-1-3 4-2 5-4 4 1-8 2-4 1-8-5-5-5 5-6 8-2 2-2 4-2 2-1 3 2-1 5-6 4-2 1 1 2-4 1-4 2-2-1 5-1 4-2 4-1 4-2 4-1 5-1 4-1 10-1 7v3l1 5v6l2 4v6h1v-1l2-2h-2l-1-5 1-4 1-9h3v-8l-2-1v-3l3-9 1-5zm125 193-1-5-6 1 3-3 2-3-4-1-1 1-1-3-1 4v5l-1 4 1 1h3l-1 2-4 2v3l1 3 3 1v2h2l2-5 2-4z"/><path fill="#105d45" d="M248 71h-1l-2-5-2-1-2-4v-5l-2-4-1-6-6-1 2 4-3 4-1 3 2 2 2-6 2-2 1 5 1 4 1 5v12h-1v5l2-4v-5l2-4 1-1 2 4 1 4 2 2-1 3-1 4 2 2 2-4 1-4-1-3z"/><path fill="#0d2c4e" d="M143 121v-6l-2-4v-6l-1-5v-3l1-7 1-10 1-4 1-5 2-4 1-4 2-4 1-4 1-5-2 2-1 4-2 4-1-1-4 2-5 6-2 1-2 2-3 5-2 4 2 2-4 5-1 5-2 4-2 6v2l2-3 2-1 2-5 3-4 1-5 2-2 2-5v3l-2 6-2 3-1 1-1 6-2 2-1 3-2 4-2-2-1 4-2 1-2 2-3 5-3 3h-1l-2 8h3v3l1 4v3l-1 5-2 2-2 5-2 1 1 3h2l-2 5-1 1 1 1 2 1 1 6 1-1 1-5 2-4v-14l2-4v-3l1-5 1-4v-5l-2-1 2-2v-5l3-3 2 3v13l1 5v1l1 5-1 5 2 4 1 5 2 2 2-2-1-6-1-4v-7l1-4 1 3 3 4 2-3 4-2 2-6v-3l2 2z"/><path fill="#4f8d63" d="M238 76h1V64l-1-5-1-4-1-5-2 2-2 6-2-2-3 2-2 5-4-2-3-1-2 3-1-4-1-5-2 2-2 4-3 4v1l2 2 10 2h3l2-4 1 3 2-3 2 3 4-2h5l-3 2h-1v2l4-2z"/><path fill="#43aaa2" d="M280 52h-2l-1 4-1-1-1 4-1-5-1-4h-3l-2 1 2 6-4 2-2 2-1-5-3-3-1 4 2 2v2h-2l-6 5-5 5 2 4 1 3 4 3h2l-1 7 2 4 3 4v-6l2 1 2 3-2 1-1 4v2l2-2 2-5 1 4-1 8h-3v-3l-2 3-2 2 1 1h6l1-4 3-4 3 3 1-4 2-1v-6l3-1-2-4 1-2h-1l-2 3-3-3v-3l6-3-1-4-1 3-2-3-1 3-1 1v-9l-2 2h-3l1 7-2-2v-2l-2-4-1-4-1-5 3 3v3l2 2 5-2v-2l1-4 1-3 2 4-1 5h2l1-1v-1l-1-4v-5l2 3v-5z"/><path fill="#327aa1" d="m295 82-1-3-3-4-1-6-3-4v-7l-2 2-2-4-3-4-1 4v5l-2-3v5l1 4v1l2-4v-2l1 4v12l1-1h2l-1 7 1 1h2l3 4 1 5 1 1 1-4 2-3-1-1-3 1-1-5 4 1z"/><path fill="#105d45" d="m284 85-1-1 1-7h-2l-1 1V66l-1-4v2l-2 4-1 1h-2l1-5-2-4-1 3-1 4v2l-5 2-2-2v-3l-3-3 1 5 1 4 2 4v2l2 2-1-7h3l2-2v9l1-1 1-3 2 3 1-3 1 4-6 3v3l3 3 2-3h1v-1l2-1v3l1 7 2 4v-9zm38 285-2-4-1-1-4 2-5 1h-3l-2 1v2l-2 2-2 4-1 3-2 1h3l5-2 2 2h-3l2 2v1l5-1-1 1 4 1 1-4 4-2v-1h-3l-2-2 4-2 3-1z"/><path fill="#0d2c4e" d="M187 62h-2v3h-3l-3 1-1 5v3l1 4 3-2-1 3-5 4-3 4-1-1-1 2 1 1 1 2 2-1v-1l2-2 1-3 2-2 4-3 3-5 2-2 1-3 1-4-3-1z"/><path fill="#43aaa2" d="M166 87v-1l1-5 1-7 2-1-2-8-1-2-2 3-2 2-2 6-2 4-1 5v2h6l1 3z"/><path fill="#186f78" d="M234 70v-2h1l3-2h-5l-4 2-2-3-2 3-1-3-2 4h-3l-10-2-2-2-2 2-2 4-2 5h3l3-2-4-1 3-4 4 4 4-2 2 1 1 4-2 1-1 4v3l-4 8-2-2-1-3-3 3-3-1v-5l-2-1v-3l-3 3v3l-2 2v2l3 2 2 1-1 4 2 1v3l-6 2-4 3h-6l4-5 3-1-1-4-3 5-1-3 2-4-2-2-4 3-2 4-6 1-1-1h2l-1-4v-3l1-2-2 1-1-2-1-1-1 3v6l-4 4v-5h-3l4-4-1-3-2 2-2-2-4-3-2 4-1 10v9l3 4-4 4h-3l-2 3v3l-3 4-3 3v3l-2 6-1 4v7l1-4 1-3h3v3l2-1 5-5 1 2 1-3-2-1 4-4 5-6 4-2 3-1 1-4 4-2 1-3 4-4v-3l1 1h2l1-1 2 2 4-3 6-2h2l1-2 3-1h4l2-2-1-1h2l1 7 2 2V97l4 1 4-2v11l2-1-1-4 2-4h2l-1-5 4-1 1 4 1-5 6-1h2l-2 5 1 9 2-4h1l-1-5 1-3 5 2 5 5-3-1h-1l2 4 3 3 1 3 4 2h-5v3l2 4v2l3 1 1-1 4-1-4 4-3 1 9 9h2v9l2 2h2l-1-4h2l1 3 3 2h2v3l1 2 2-2 2-3v3l-3 3-2 4v3l2-4 1-1 2 3h3l2 5h2l1 4 1-6 2 1-1 5 2-1 2-3-1-8-2-2-2-6-2 4-1-6v-3h-2v-2l1-3 1-7v-3l-1-5 1-1 2 4 1-4 2-4 2-2 3-4 2-6 2-4v-7l-1-1-1-3-1-4-1-1-2 2-4-1 1 5 3-1 1 1-2 3-1 4-1-1-1-5-3-4h-2l-1 4v9l-2-4-1-7v-3l-2 1v1l-1 2 2 4-3 1v6l-2 1-1 4-3-3-3 4-1 4h-6l-1-1 2-2 2-3v3h3l1-8-1-4-2 5-2 2v-2l1-4 2-1-2-3-2-1v6l-3-4-2-4 1-7h-2l-4-3-1 4-2 4-2-2 1-4 1-3-2-2-1-4-2-4-1 1-2 4v5l-2 4v-5h-1v9l-2 2-5 1-1-2-1-1-2-4-1-8h2l5-1zm135 160-5 5-1-1 3-4 1-5 2-4v-5l-6 2-2 2h-3l-2 3-4 8-1 3-4 1h-3l1 5 3-1-1 3-3 2 2 1v10h-2l1-7h-5l-2 4-2 2-2 4 2 2 3 1 1 5-3 3-5 2 1 1 4 1 3 2-3 3-2 4h-3l-2 2-4 5 2 1-1 2-2-1h-2l-5 6h-3v5l-5-1-3 3-4 3-4 2v3h3l4 1 1 2-2 2-1 2 3-2 4-2 5-4 1-3-4 3-1 2h-3l-3-3 4-2 2-2 4-2 1-2 5-2 5-6 5-1-2 3-5 5-4 3-3 3 4 1-1-1 6-6 3-1 3-5 3-4v-2l3-4 1-5 2-4-1-4v-2l1-4 2-1 3-3-1-4 3-1 5-5 2-4v-3l-3 5-2 2 1-4 3-3 1-6-4 1-1-1 4-2 6 1-3 3v2l3-1 2-4 4-2-1-1 2-2zm-21 9 1-3 2 2zM72 263l-2-3-1-3-3-4-2 2 2 2 2 4 1 3 2 1-8 6 3 4 4 5 2 1v-3l1-8-1-4 2 1 1 2h2l1-3 5 4 3 1 2 6v2l-2-1-2-2h-2l2 4-1 3v2l-2 2-3 1 3 3 6 5 4 3 10 6 4 3 1-1-2-3h-3l-5-5 1-3 1 3h3l5 2 1 3 3 3 4 1-1 3v2h5l-1 2 3 1-1-4 4 2-1-4-3-4-5-4v-2l-2-2-1 4-3-4h-3l3-1-4-4 1-4 2 2 2 4 2-2-2-6h-1l-1 1-2-1-1-4-3-4v-3l-2-2-2 2 1-4 1-3-4 2h-3l3-2-2-2-5-3-1-5-2-1-1 1-3-1-2 4-2 2h-3z"/><path fill="#43aaa2" d="M238 76v-8l-4 2-2 2-5 1h-2l1 8 2 4 1 1 1 2 5-1 2-2v-9zm-39 4v3l2 1v5l3 1 3-3 1 3 2 2 4-8v-3l1-4 2-1-1-4-2-1-4 2-4-4-3 4 4 1-3 2h-3zm172 66-2-3h-7l-1 3-1 2 1 8-1 4-1 8-3 4-1 4v3l-1 4h1l6-10 2-4 1-7 4-2 1-2 1-7zm-37 212 4-1v-3l-2-2-4-1-1-4-10 2-4 3-5 1 2 2 2 1-1 5-2 4h1l4-2 5-1 4-2v-3h3z"/><path fill="#061e1e" d="M148 100v15h3V92l1-4-1-1 1-4 2-4 2-5-3-1-3 1-1 5-3 9v3l2 1z"/><path fill="#306e54" d="m329 126 1-1-2-18v-3l-1-5-2-6-1-4-1-8-2-4h-2v8l-1 4v2l2 2v3l1-4-1-5v-5l2 4 1 8 1 4 1 5-1 7-3 1v12l-1 4-1 5-1-4 1-4-2-6v-2l-2 4-1-1-1 9-2 2-2 6-3 4v2l4 4 5-1 1 5-2 1v6l-3 4-1 3-1 4-1 3-2 1-1 5h-3v-5l-2-1-1 1v8l-4 4-3 4 5 1-1-4h2l1 1 1-4h2l1 3h6v3l-3 3 7-1 1-4 2-2v3h1l2-4 1-5 2-1 2-4 1-5 1-4 1-8 2-4v-5l-1-3 2-4h-1zm-2-1"/><path fill="#186f78" d="M109 119h1l3-3 3-5 2-2 2-1 1-4 2 2 2-4 1-3 2-2 1-6 1-1 2-3 2-6v-3l-2 5-2 2-1 5-3 4-2 5-2 1-2 3v-2l2-6 2-4 1-5 4-5-2-2-2 2-1-4-1 4v3l-1 5-2 4-1 5-2 4-4 4-4 12z"/><path fill="#4f8d63" d="M317 116v2l2 6-1 4 1 4 1-5 1-4v-12l3-1 1-7-1-5-1-4-1-8-2-4v5l1 5-1 4-1 7-1 9z"/><path fill="#43aaa2" d="m104 112 1-7 1-4 2-10-1-3-2-2-5 1-4 5-3 5-4 5-3 5-2 4-3 4-1 3-2 4v4l-2 6-1 5 3-4 2-4 1-1 1-3 2 1 1-3 3-4-1 5-2 4-1 3-2 4-1 5 2 1 1 2 3-2 4-1-2-1 1-5h3l-1-5 2-2v-12l2-4 1-5-1-1-1-3 6-8v1l-1 8-2 4-1 9h2l2-4zm147 7v-2l-2-4v-3h5l-4-2-1-3-3-3-2-4h1l3 1-5-5-5-2-1 3 1 5h-1l-2 4-1-9 2-5h-2l-6 1-1 5-1-4-4 1 1 5h-2l-2 4 1 4-2 1V96l-4 2-4-1v12l-2-2-1-7h-2l1 1-2 2h-4l-3 1-1 2 1 5-2 6 3 3h3l4-2-3-4 2-1-1-6 2 2 1 5h3l1-3v3h3l6-1v-3l1-1 2 2 1-6h5l2-2 1 2h2l3 3 2-2h3l2-2 1 1 1 4 2 4 1 5z"/><path fill="#105d45" d="M320 96v-3l-2-2-1 4-1 3-2 4-2 6-6 1-2 6-1 1-1 9v8l5-1 3-5 4-8 1 1 2-4 1-4 1-9z"/><path fill="#186f78" d="m104 150-1-3 1-1v-5l-3-3v-3l-1-4v-5l2 2v-3l1-6 1-7h-3l-2 4h-2l1-9 2-4 1-8v-1l-6 8 1 3 1 1-1 5-2 4v12l-2 2 1 5h-3l-1 5 2 1-4 1-3 2-1-2-2-1-3 4v8l-1 4-1 10v9l3-1 2-2 1 4 2 4 1 4v2l3 2-5 5 1 4 1 2 3 3 5-2-2-3 2-1-1-3-1-4-2-1-1-3-1-4 6 5 1-4-2-4-1-10-1-3h-3v-3l3-4 1 2 2 2v12l1 4 1 9 1 4 2 2v3l1 8h-3l-3-3v6l-2-2v-2l-2 1-1 6v1l-3-4-2-5-2 2-2-2v6l1 4 2 5h6l2-4 1-1 1 4 2-2h5l2-2-2-3 2-1v-3l2 4v2l1 1 2-1 1-4v-3h3v-1l-1-4-1-5h-2l-1-1-4-1 2-2v-5l-3-4h2l4-1v-3l-2-4-4 1-1-1 3-2 1-2 1-1h2l-1-5v-3l-1-1-1-5zm-50 48-2-3v-13l-1-4v6h-2l-1-7-1-4-1-1v3l-1 4 1 4 1 3 1-3-1 10-2 2-1-5v3l1 8 1 4-2 4 2 1 1 4 1 7-1 4 6 6 2 6 2 4-1 3v2l1 2 3 1 3 6h1v-4l-3-4-1-2v-3l-2-4v-5l2 2 4 1 3 3 5 2 4 4 1 3 3 2 2 2-1-4-2-4h-1l-2-5-2-3-3-4-1-3-3-4-2-6-3-4-1-4-3-4-1-5-2-4v3zm8 17v8l2 5v3h-3l-6-2-1-3-4-8-1-10-2-2v-12l2-3 1 4-1 4 1 4v1h3l1 5 4 4 2 3zm189-96-3-1-1-5-2-4-1-4-1-1-2 2h-3l-2 2-3-3h-2l-1-2-2 2h-5l-1 6h5l1-3 2 2 5-1 2 2 3 1 3-1h2l-2 4 1 3 4 1z"/><path fill="#43aaa2" d="M168 125v11l5-1-2-2 3-4v-5l2-5h3v3l2 1v2l1 1h-3l-1 3h8l1-5-2-1 2-2v-3l-2-6h2l2-2 1 3h5l-1-7-6 2-4 3-2-2-1 1h-2l-1-1v3l-4 4-1 3-4 2z"/><path fill="#306e54" d="M196 106h-2l1 7h-5l-1-3-2 2h-2l2 6v3l-2 2 2 1-1 5h-8l1-3h3l-1-1v-2l-2-1v-3h-3l-2 5v5l-3 4 2 2-5 1v-11l-3 1 1 1 1 5-1 2-5 1-1-1 1 3v6l-6 3-1 6-7 1h-2l1 5v3l-3 4-1 1-1 4-4 2-4-1-2 4v3l-2 6 2 4h-2l-1-2v3l1 5 2 2 1-3h-2l1-3 4-1-1-1h3l1 5-1 4-1-1h-3l1 7-1 1-1-2-2-1-4-3-2-2v-3l-1 4v4l2 3 2-3 1 5 1 2 2 3 2-4 1 3h1l3-6 1-6 5-1-1-1v-2l-2-2h-1l-1-1 4-2 3-1 1-1v3l4-4-2-4v-3l-2-1 2-4v-3l3-3 3-4 1-3 5-5 2 2 2-4-2-1 3-4v-6l1-1v3l2 2h1l3-5 4-2 1 1 1-3 6-5 2-2 2-1 2-2h2l1-1 6-3 3-1 2 2 2 4-1 5h3l-2-8-2-5 4-4 2-1 5-1 4-2 8-1 4-1 5 2 3 1 2 4-1-5-1-1-3-1-2-2-5 1-2-2-1 3h-5l-2-2-1 1v3l-6 1h-3v-3l-1 3h-3l-1-5-2-2 1 6-2 1 3 4-4 2h-3l-3-3 2-6z"/><path fill="#4f8d63" d="m240 112 1 1 1 5-2-4-3-1-5-2-4 1 5 1v5l-2 3-1-4-1 4 2 3 1 1-1 7-4-4-1 1 2 5-5 1-3 2h1l7-1h3l2 1 3 3 4 2 3 2 1-2 1 1 4 2 5 5 3 1 5 5 2-1-2-2-1-3v-3l-2 2-3-2-1-2 2-5h-3l-1 5-4-3v-3l2 2h2v-5l2 2 1-3-1-1 2-2 2 2 2 5 2 2v-9h-2l-9-9 3-1 4-4-4 1-1 1-3-1h-3l-4-1-1-3 2-4h-2z"/><path fill="#306e54" d="m122 132-1-5v-13l-2-3-3 3v5l-2 2 2 1v5l-1 4-1 5v16l-1 4v6l1 4v5l2 4 1 1h1l2-2 1-5v-3l1-1 1-4h-3l-1-9 1 1 2 4v-10l-2-2-1-5v-3l1 3z"/><path fill="#96a15d" d="M221 137h-1l3-2 5-1-2-5 1-1 4 4 1-7-1-1-2-3 1-4 1 4 2-3v-5l-5-1-8 1-4 2-5 1-2 1-4 4 2 5 2 8h-3l1-5-2-4-2-2-3 1-6 3-1 1h-2l-2 2-2 1-2 2-6 5-1 3-1-1-4 2-3 5h-1l-2 4v3l1 3 6 2 2 2 7-7 3-1 4-3v2l3-1 1-2 3 1-1 5v2l1 4-1 7-8 4-3-2 1 3v3l-3 1-5 6-2-2-1-8-2-1-1-4 6-5 2-2v3h3l-2-5-4 2-5 6-7 7-2 4-2 2-1 3-3 3-2 5-2 4-1 5-2 1-2 6-2 4-1-4v-1l-3 3h-3v-2l5-3 4-5-4-2-5 1-1 6-3 6 3 4 5 2 1 5v5l-1 3v17l1 4 1 8 2 4 2 6 1 5 2 2 2 4v2l2 2 3 5 3 1 4 5-6-1-2 1-4-1 2-2-5-2v3l5 3 3 2 1 3 5 3h2v-3l5 3 4 1 2 2 6 5 4 3 3 2-1-3-1-2h-1l-1-2-3-1-7-7-4-2-4-3h1l6 2h3l-2-2-3-1v-2l-3-4-2-2-2-5-3-1v-3l-2-4-3-9-2-1 1-4-1-7-1-1 1-4 1-5 1-4v-5l2-4 2-6 4-4v-2l3-4 5-6 4-2 4-4 4-2 5-2 7-1 4-2 1 1h15l7 1h6l4 2h4l-1-1 4-10 2-4h-5l-2-2-5-1-2-2 2-4 3-1h3l2 2 4 1 1 1h3l2-4 4 4 3 1-1 4h3l2 2 5 6-3 5-5-3-5-5-1 1-4 1 1 5 2-4 4 1 5 5 1 3h3l4 4-1 3-2 4 1 3 3 1 1 3 4 4 2 6 2 2 1-3 4-3 1 6v3l2 6 1 4-1 4v3l-1 5-4-1v-9l-1 4v8l-1 4v3l-2 2-1 5-2 4-2 5h-2l-1 3-4 5-5 6 2 3-5 1h-3l-2 2-5 2-2 2h-1l-1 1 2 2-4 4v1l1-1 6-2 2-2 6-1 4-2v-1l8-1 4-2-1-1-7 1v-2l4-1 2-1 3-5 4-2 2-4 3-1 1-3 2-5 2-2 1-5 2-2v-5l2-2v-1l1-5 1-4 1-5 1-4v-9l1-1h3v-3l1-4 1-10-5 2v8l2-2 1 1-4 5-1-3-1-7-1-5-1-4-1-6-2-4-1-5-3-4-2-5 2-2-2-4h-2v3l-2-4-3-3v-3l-7-7-1-2h-3l-2-6-2-1-5-5-3-1-5-5-4-2 1 3 4 3v6l-1 4-1 9-6-2 1-8-2-4v10h-2l-6-2v-6l-1 4-2 1-1-4-1 3h-8l-5 1-2-2-1 2-6 2-4-1-2-2v-14l4-3 5-1 2-2 6-1zm37 42-2-4-1-4v-10l-1-4v-3l1-2 2 4 3 1 3 4 2 4 3 3-1 6-3 4v2l-1 1h-3l1-6v-5l-4 1 2 1 1 3zm6 1 4-4 3-1-2-1 1-4 3 4 1 7v3l-1 2v2l3-3h3l2 5-2 4v2h3l3 3 1 5 2 4v3l3 6 2-3 1 8h-3l1 2 1 4v3l-1 2-3-1-1-6v-2l-2-4-1-5-3-4 1-5h-3l-2-5-2-3-3-3-3-5-5-6zm-58-16 2 1h3l1 1-2 5 1 4-1 4-1 1-5 1-2-2-1 1v-5l-2-4 2-4 3-1z"/><path fill="#0d2c4e" d="m293 114-1-2-2 2-2 4-1 4-2-4-1 1 1 5v3l-1 7 5 5 3 4 3 6 1-4 2-1-1-4 1-4-3-3h2l1-3-1-1 1-5 2-6-1-1-2 4-2 1 1-1-3-2z"/><path fill="#061e1e" d="m303 116-3-1h-3l-4-1v5l3 2-1 1 2-1 2-4 1 1-2 6-1 5 1 1-1 3h-2l3 3-1 4 1 4-2 1-1 4 1 1 1 3 3-2 2-5-2-4 1-1v-2l4-4 6-5 2-2 1-9-4 8-3 5-5 1v-8zm-186 60-1-1-2-4v-5l-1-4v-6l1-4v-13l-2 4v14l-2 4-1 5-1 1-1-6-2-1v3l1 5-1 3v2h3l2 4v3l1 3 3 4 1 2 2 2v-3l-1-3 2-4z"/><path fill="#96a15d" d="m344 122-1-3-2-2h-7l-2 5-1 7v3l1-1 1-3 2-3 2 2v8l1 4v6l1 1 2-1v-13l1-10z"/><path fill="#0d2c4e" d="m81 140 1-5 2-4 1-3 2-4 1-5-3 4-2 6-2 4-1 3-2 4-2 5-3 4-1 3-3 3 1 1-3 2h1l5-1 1-7 2-2-1 9-1 3-2 4v9l-2 2-2 8v16l-2 3v6l2 4 1 7 2 2 1-1 4 1 1 2-1 2 2 4 2 5h3l5 5 2 5v-3l-1-4 2 1 2 5 3 4 2 3 2 4 3 3 2 4 2-1v-1l1-2 1-1-2-1-3-3-1-7-2-4v-9l-1 3-1-1v-3l1-1 1-4v-11l2-4v-2l-2-4v3l-2 1 2 3-2 2h-5l-2 2-1-4-1 1-2 4h-6l-2-5-1-4v-6l2 2 2-2 2 5 3 4v-1l1-6 2-1v2l2 2v-6l3 3h3l-1-8v-3l-2-2-1-4-1-9-1-4v-12l-2-2-1-2-3 4v3h3l1 3 1 10 2 4-1 4-6-5 1 4 1 3 2 1 1 4 1 3-2 1 2 3-5 2-3-3-1-2-1-4 5-5-3-2v-2l-1-4-2-4-1-4-2 2-3 1v-9l1-10 1-4v-8zM63 271l-3-4-2-2-2-5-3-4-2-6-1 1 1 5 2 4-3-1-1-4-3-2v3l6 12-2-1 1 3 3 4 3 5 9 9v4l5 3 2 2-1-5 3 4v1l2 2 6 5 7 7 2 1 1 1 2 1 1 1 3 1 2 2 4 1v1l2 2 2 1 1 1 4 1 3 3v2l2 2-1 7 1 1h2l1 1v-1l-2-4 1-4 7 7-1-3-3-4-2-2-4-2 2-1 2 2 5 2-1-3-1-5-3-1 1 4-4-4-1 1-3-4 3-6h-5v-2l1-3-4-1-3-3-1-3-5-2h-3l-1-3-1 3 5 5h3l2 3-1 1-4-3-10-6-4-3-6-5-8-8-1-2-2-1-4-5zm-9 0 5 5-3-1zm14 20"/><path fill="#306e54" d="M350 155v-3l-2-14-1-4-1-8-2-4h-2l-1 10v13l-2 1 2 2-1 9-1 4-1 7v2l2-4 1-8 1-5 1-4v-17l1-4 1 8 1 4 1 7 1 4v6z"/><path fill="#327aa1" d="m84 126-2-1-1 3-1 1-2 4-3 4 1-5 2-6v-3l-3 4-1 5-2 4-4 12-2 10-1 4 1-2 2-2h-1l3-2-1-1 3-3 1-3 3-4 2-5 2-4 1-3 2-4zm-40 64v-5l-2 1v5l-1 4-1 5h-2v-3l-1 4v19l2-2 2-4v-5l1 4 1 7 3-1v-5h1l-1-4-2-1 2-4-1-4-1-8z"/><g fill="#105d45"><path d="m339 146-1-1v-6l-1-4v-8l-2-2-2 3-1 3-1 1-1 4v4l-2 4 1 3 2-4 1-9 2-4v3l-1 6 4-1v6l-1 4-1 6-2 4-1 6-2-2-1 5-1 4 2 2-3 1-2 5-2 4-1 4 3-1 1-6 2-2-1 5-2 4-1 3-2-2-3 3 2 1v7l-6-2-3 1v5l-2 3-1-5v-3l2-2 2-4 2-1 1-4v-3l-2 2-1 4-7 1 3-3v-3h-6l1 5v3l2 3-2 2 2 1-1 4 1 1 2 4v3l1 4-1 1h1l7-7 6-5v7l2-4-1-4 4-8 1-1 1-4 3-4 2-4 1-5-3 1v5l-2 2-2 4-3 3 2-4 1-5 3-4v-7l2 2 2 1-1-4-1-6 2 2v-7l1-4 1-6zm17 56 2-4h-2l-6 10-4 5-6 8-3 3-2-1-4 1 1 1-1 6-4 1 2 2-2 3-3 3v-5l-1-1v-7l-1 1-2 3-1 6-3 3-4 1v1l-3 2 1 1 3-1 1 1-2 2 3 4 2-4 3-1 2-4 2 1-2 2v8l-2 4-2 5-4 2-2 4-3 3h-3l-6 6-4 1-1 3-3 4-5 5-2-1 3-2-2-2-1-4h-1l-1 3-3 1-2 4-4 2-3 5-2 1h3l7-1 2-2 7-1 3-2 1-2 6-2h1l-3 5-1 2-6 5-4 4-1-4-1-2-3 3v2h2v3l-2 2-2 1-4 3h-3l-4-1 5-1 6-6-3-1h-2l-2 4-6-2h-4l-4 2-6 1-2 2-6 2-1 1 2 3v2l-5 3h3l3-2-1 3-5 1 4 1h6v1l5-1 4-2 5-1v2l4 1 3-2-4-1 1-1 6-1h13l4-1 5-2-3 3-2 3h-2l-1-2-6 1-1 4v1l4-3 3 1-1 2-4 2h-3l-5 2h-1v-6l-3 2-2 4-4-1-1-2h-1l-5 1-4 2-5 2v1l-2 4-2 2v5h2l-2 2-3 1-8 4 1-3 1-1-2-3-4 4-3 4-1 3-2 2-3 4-3 5v-3l-1-4 3-4 1-4 2-4-2-2-2 4-2 2-1 3h-1l-1-1-3-1v5h-2l1-4-2-5 1-4 1-2-1-5-1 4-1 1-3-3v2l-1 4v3l1 5h-2l-1-6-2-2-2-5-3-4 1-4v2l3 4h6l-4-8-3-4-1-3-2 2h-5l-4-2-5-1-1-5-5 1-1-2-4-4-4-1-1 2 2 2-4 2-1-1v3l4 3 5 2 2 2 4 3 2 1 5 5 3 1-1 2-2 2 3 2 2-3 3 3 3 5 4 8 2 6 2 2 1 6 2 2-1 4 3 1v3l-1 3-2-1-2-5-2-4-1-4-5-5h-1l1 6 1 4 1 5 3 1-1 4h-2v-3l-2-2-1-5v-1h-1v2l-3 1-1-2-5-3 2-3-3-2-1-3-2 2 3 4 1 5 3 3v5l2 1 1 7 2 4 2 3v-6l2 4 1 6-2 4v3l1 1 2-4v11l-2-4h-1v11l2-4 1 1v12h1v-10l1-4-1-5 2 2 4-1v-1l-6-1v-13l1-4v-6l2-4-1-4 1-1 3 4 1 2 3-2v10l1 4v16h1v-13l2-4 2-5 5-6 3-4 1-3 7-7 5-6 6-5 5-5 3-2 4-3 4-2 4-3 4-1 4-3 5-2 4-2 2-2 3-1 2-2 3-1 2-4 1-1 6-5 2-4 4-4h-3v-3l4-2 4-3 3-3 5 1v-5h3l5-6h2l2 1 1-2-2-1 4-5 2-2h3l2-4 3-3-3-2-4-1-1-1 5-2 3-3-1-5-3-1-2-2 2-4 2-2 2-4h5l-1 7h2v-10l-2-1-1 1-3 1-1 2h-3l1-6-5 4-3-6v3l1 9-3 1-1-1 2-5-3-2 2-5 5-5 3 3 2 1 1 2 2-2-1-8-2-1 2-2 3-5 4-5 3-4 2-4 3-4zm-49 81 2-4 2-2 1-4-4 1 1-2 3-1 1 1 3-1 1-2 1-4 2-5 6-1 2-2h4l-3 3 1 4-3 1-2 2-1 6-3 4-2 3h-2v6l-2 4-1 3h-1l-3 1-1 3-5 1-3 4-4-1-3-1 4-5 2-4 3-4zm-146 94-10-10-6-8v-3h-3v6l-8 1-2-2-3-4-2-4-2-5-2-4h-4v6l3 4 2 6 3 4 1 4 3 4 1-1 2 2 2 5 6 5 2 2 5 2 1-1-2-4-2-2-2-3v-2l-3-1-2-3-1-4 1-3 3 1h4l1 5 1-1h2l4 5 3 5-4 8h-1v2h-2l3 3 1-1 1-3 2-2 1 4 2 3v-3l-1-5-2-4h3l2 4 3 3 1 2 3 4 2 1 2 5h1l1-1 3 1v5l3 2 1 3 3 3-1 4 3 4 1 3 1 4 1 3v-5l1-5h-2l-2-4-1-7-4-8-1-5-2-4-2-5-2-4-2-6-3-4-1 3-4 4zm-47 0 3 4 5 1 2 4 2 2 4-1-2-5-3-4-2-4-2-1-2-5-2-2-1-3 4 1v-1l-2-5-3-4-2-3h2l1-3-2-4-1 5-2 1 1 5-1 4-1-7-2-1-3-2-1 2 2 2 3 5-4 1-3 1 1 1h2l4 2 2 3 5 1 4 8 2 2-4 1zm267-9 4-4 3-4 2-5-7 1-4-4-2 2-4 2-4 3-4 2-5 1-4 3h-1l-2 2-6 2-5 2 4 1 4-2 2 2v8l2-3 3 1-1 3h5l3 3h3l-2-2 4-3h3l5-5h-2l-5-1-4 1-1-3 3-1-2-6 3-1v-3h3v3l-1 2h3l2-3 2-2v2h2l1 3z"/><path d="m185 437-2-4-1-4-3-3-2-5-3-4-3-2-1 3 2 5 5 5v3l2 5 2 4 6 8 1 3 2 2 2 5 2 1 1 4-2 2 1 7 1 5-1 1 1 4h-1v3l3 4v4l3 1-1 2-2 2 2 2 2-3v7l-2 5 1 10-2-2v4h2l1 1h2l1 1v7l-2-2-1 4 3 4v6l1 1 2 4 1 5 2 3v-3l-2-5 2-2 3 3h2l1-4 1 3 2 1-1-5-3-1-1-4-2-4-1-7v-5l-2-4-1-6 2-1-4-5-2-6-1-4v-7l-2-4v-5h-1v-6l-2-4v-15l1-1-2-3v-15l-2 4-3-3-2 2v1h-3zm50 73h-1v8l-1-3-1-7-1 3v3l-2-4-1-4v14l-4 2 3 1v1l2 1h3l1 4 1 5 2 4 2 3h1v-6l1-4v-9l3-3 1-6v-5l-2-4-3-1-1 3v3l-2 5z"/></g><path fill="#96a15d" d="M145 153h2l7-1 1-6 6-3v-6l-1-3 1 1 5-1 1-2-1-5-1-1-4 2-5 6-4 4 2 1-1 3-1-2-5 5-2 1-2 4-4 4v1l-2 4-2 6h2l2-6 3-5z"/><path fill="#4f8d63" d="m350 171 1-1v-8l-1-7-2 2v-6l-1-4-1-7-1-4-1-8-1 4v17l-1 4-1 5-1 8-4 8-1 3-1 5-2 4-3 4-1 4-1 1h3l1-3 3-1 3-3 1 5-2 4-2 5-3 4-2 2h-3l1 2v3l-2 3h-3l-2 5-3 3-4 1-2 2-1 4h2l2-2 3-2h2l1 4 2-3 1-1v7l1 1v5l3-3 2-3-2-2 4-1 1-6-1-1 4-1 1-2 4-4 1-4 4-12v-3l1-4-1-4 3-1v-12l1-4z"/><path fill="#105d45" d="M302 172v5h3l1-5 2-1 1-3 1-4 1-3 3-4v-6l2-1-1-5-5 1-4-4v-2l3-4 2-6-6 5-4 4v2l-1 1 2 4-2 5-3 2-1-3-1-1-3-6-3-4-5-5-1 3v2h2v3l1 6 2-4 2 6 2 2 1 8 1-1 2-4 1 7 2 2 1 2 1 4z"/><path fill="#061e1e" d="m316 187-1 4-2 1-2 4-2 2v3l1 5 2-3v-5l3-1 6 2v-7l-2-1 3-3 2 2 1-3 2-4 1-5-2 2-1 6-3 1 1-4 2-4 2-5 3-1-2-2 1-4 1-5 2 2 1-6 2-4 1-6 1-4v-6l-4 1 1-6v-3l-2 4-1 9-2 4v5l-2 4-1 8-1 4-1 5-2 4-2 1-1 5-2 4z"/><path fill="#306e54" d="m264 157 1-3 3-4-2-3-3-3v-3l-2-2-2-5-2-2-2 2 1 1-1 3-2-2v5h-2l-2-2v3l4 3 1-5h3l-2 5 1 2 3 2 2-2v3l1 3 2 2-2 1zm-94 217v-1l-3-4-3-5-3-4-3-3-1 4v6l1 3 4 3 1 4h-2l4 4 4-4z"/><path fill="#98bca3" d="m245 143-1-1-1 2-3-2-4-2-3-3-2-1h-3l-7 1-4 2-6 1-2 2-5 1-4 3v14l2 2 4 1 6-2 1-2 2 2 5-1h8l1-3 1 4 2-1 1-4v6l6 2h2v-10l2 4-1 8 6 2 1-9 1-4v-6l-4-3z"/><path fill="#4f8d63" d="m293 160-2 3-2 1 1-5-2-1-1 6-1-4h-2l-2-5h-3l-2-3-1 1-2 4v-3l2-4 3-3v-3l-2 3-2 2-1-2v-3h-2l-3-2-1-3h-2l1 4h-2l-2-2v3l3 3 2 3-3 4-1 3 2 6h3l1 2 7 7v3l3 3 2 4v-3h2l2 4-2 2 2 5 3 4 1 5 2 4 1 6 1 4 1 5 1 7 1 3 4-5-1-1-2 2v-8l5-2-1 10-1 4v3h-3l-1 1v9l-1 4-1 5-1 4-1 5v1l-2 2v5l-2 2-1 5-2 2-2 5h1l1 4 2 2-3 2 2 1 5-5 3-4 1-3 4-1 6-6h3l3-3 2-4 4-2 2-5 2-4v-8l2-2-2-1-2 4-3 1-2 4-3-4 2-2-1-1-3 1-1-1 3-2h-1l-1-3-3 3v10l2 5 3-2v3l-1 4-1 3-4 3-1-2h2l1-3 2-1-4-1 2-2-2-2h-5l2-6v-8l3-2 1-4h2l1-3-4-1-2-2v-6l1-6 4-4-1-4v-3l-2-4-1-1 1-4-2-1 2-2-2-3v-3l-1-5-1-3h-2l-1 4-1-1h-2l1 4-5-1 3-4 4-4v-8l1-1 2 1-1-2-1-4-1-2-2-2-1-7-2 4zm-103-8v-2l-4 3-3 1-7 7-2-2-6-2-1-3v-3l2-4-2-2v-3l-1 1v6l-3 4 2 1-2 4-2-2-5 5-1 3-3 4-3 3v3l-2 4 2 1v3l2 4 2-4h2l1 4h1l3-3 1-3 2-2 2-4 7-7 5-6 4-2 5-5z"/><path fill="#061e1e" d="M338 170v-2l1-7 1-4 1-9-2-2-2 4-1 6-1 4v7l-2-2 1 6 1 4-2-1-2-2v7l-3 4-1 5-2 4 3-3 2-4 2-2v-5l3-1 1-3z"/><path fill="#327aa1" d="m369 216 2-2 2-10 1-4v-13l1-4v-15l-1-5v-3l-1-10-2-4-1 5-1 7-1 2-4 2-1 7-2 4-6 10h-1l-3 6 1 4h2l1-6 2-4 2 2 1 7-2 2-2 4h2l-2 4 5-2 2 4-2 1v7l-3 3 1 4-3 1h-3l-3-2-1-4-3 4-4 5-3 5-2 2 2 1 1 8-2 2-1-2-2-1-3-3-5 5-2 5 3 2-2 5 1 1 3-1-1-9v-3l3 6 5-4-1 6h3l1-2 3-1 1-1 3-2 1-3 3-1-2-2-1 3-3 1-1-5h3l4-1 1-3 4-8 2-3h3l2-2z"/><path fill="#186f78" d="m66 202 2-3v-16l2-8 2-2v-9l2-4 1-3 1-9-2 2-1 7-5 1-2 2-1 2-1 9-1 7v10l1 4 1 9zm288-19 1-4v-3l1-4 3-4 1-8 1-4-1-8-2 4v5l-2 4-1 6-2 4-1 5-2 2 1-7h-1l-1 2-1 4v12l-3 1 1 4-1 4v3l1-1 1-5 2-2z"/><path fill="#98bca3" d="m181 159 2 5h-3v-3l-2 2-6 5 1 4 2 1 1 8 2 2 5-6 3-1v-3l-1-3 3 2 8-4 1-7-1-4v-2l1-5-3-1-1 2-3 1-4 2zm83 21v-2l3-4 1-6-3-3-2-4-3-4-3-1-2-4-1 2v3l1 4v10l1 4 2 4 2-4-1-3-2-1 4-1v5l-1 6h3zm-58-16-2 2-3 1-2 4 2 4v5l1-1 2 2 5-1 1-1 1-4-1-4 2-5-1-1h-3z"/><path fill="#43aaa2" d="M51 178v-9l-2-2-4-2-3 4-6 18-1 7 3-4v10h2l1-5 1-4v-5l2-1v5l1 5 2-2 1-10-1 3-1-3-1-4 1-4v-3l1 1 1 4 1 7h2z"/><path fill="#0d2c4e" d="m116 190-1-1-1-2-3-4-1-3v-3l-2-4h-3v-2l1-3h-2l-1 1-1 2-3 2 1 1 4-1 2 4v3l-4 1h-2l3 4v5l-2 2 4 1 1 1h2l1 5 1 4v6l-2-2 1 5 2-2-1 5 2 4 1 4 1 1 2-1 1-5-1-5-1-1-2 2v-13l1-7z"/><path fill="#98bca3" d="m264 180 1 4 5 6 3 5 3 3 2 3 2 5h3l-1 5 3 4 1 5 2 4v2l1 6 3 1 1-2v-3l-1-4-1-2h3l-1-8-2 3-3-6v-3l-2-4-1-5-3-3h-3v-2l2-4-2-5h-3l-3 3v-2l1-2v-3l-1-7-3-4-1 4 2 1-3 1zm2 31 2-4 1-3-4-4h-3l-1-3-5-5-4-1-2 4-1-5 4-1 1-1 5 5 5 3 3-5-5-6-2-2h-3l1-4-3-1-4-4-2 4h-3l-1-1-4-1-2-2h-3l-3 1-2 4 2 2 5 1 2 2h5l-2 4-4 10 1 1 12 4 6 3 4 3z"/><path fill="#105d45" d="M157 186h-1l-1-4h-2l-2 4-4 4v-3l-1 1-3 1-4 2 1 1h1l2 2v2l1 1 4 2-4 5-5 3v2h3l3-3v1l1 4 2-4 2-6 2-1 1-5 2-4z"/><path fill="#43aaa2" d="m356 198 2-4 2-2-1-7-2-2-2 4-1 6h-2l-1-4-2 4-2 2-1 5-1 1-4 12-1 4-4 4-1 2 2 1 3-3 6-8 4-5z"/><path fill="#96a15d" d="m320 231-1-4h-2l-3 2-2 2h-2l1-4 2-2 4-1 3-3 2-5h3l2-3v-3l-1-2h3l2-2 3-4 2-5 2-4-1-5-3 3-3 1-1 3h-3l-4 8 1 4-2 4v-7l-6 5-7 7h-1l-3 3-1 6v6l2 2 4 1-1 3h-2l-1 4-3 2v8l-2 6h5l2 2-2 2 4 1-2 1-1 3h-2l1 2 4-3 1-3 1-4v-3l-3 2-2-5v-10l3-3 1 3h1v-1l4-1 3-3z"/><path fill="#105d45" d="M38 197v-7l-3 4-1 4-1 10v13l1 4 1 7 2 4 1 6 2 4 1 5 3 4 2 4v-3l-1-3-2-2-1-6v-2l-2-5v-3l-1-3-2-4v-27z"/><path fill="#43aaa2" d="m62 215-2 1-2-3-4-4-1-5h-3v-1l-1-4 1-4-1-4-2 3v12l2 2 1 10 4 8 1 3 6 2h3v-3l-2-5z"/><g fill="#0d2c4e"><path d="m245 211-2-2-3-2-4-3-4-2-5-2-1-3-7-1h-15l-1-1-4 2-7 1-5 2-4 2-4 4h3l4 2-1-3v-2l5-2 4-2h9l1 1 1-3 7 1 4 1h3l-1 1-4 2-5 1-4 2 1 2 6-2-3 3-6 2-6-1-5 6-2 1-5 6-4 8 2 2-2 2-1-1-2 2-1 4-2 1 1 5v6l1 2v-10l3 1 2 4h2l1-1 2 5 4 5 2 3-7-1-4 1 7 1 5 1 1-2 5-5 1-3 3 4 2 4 3 1 1 1h2l2-4 6-5-3-2 3-1-5-5 1 4-2 2-5 3-1-3 1-1h2l1-5-1-3-1-1 2-5v-2l-3 1v3l-2 5-6 5v-5l-2 2-1 3-1 1-2-2-1-4-2-2-1-3v-3l3-3 5-1h2l1-1 5 1h8l2 5 2 6 1 6 2 4v4l2 4 3 4 2 6 3 4 2 5h1l1-3 6-1 6-2-3-1 2-2 4 2 1-1 2-4v-3h4l2-2 2-6 1-4v-12l-1-4-4-10-3-5zm109 93-2 1-1-2-3 1-1 4-4 3-2 2h-2l2-3-6 2-4 2-1-5-2 2v3l2 1-4 2-6 2v-3l-1-4 3-3v-1l-4-1 3-3 4-3 5-5 2-3-5 1-5 6-5 2-1 2-4 2-2 2-4 2 3 3h3l1-2 4-3-1 3-5 4-4 2-3 2 1-2 2-2-1-2-4-1-4 4-2 4-6 5-1 1-2 4-3 1-2 2-3 1-2 2-4 2-5 2-4 3-4 1-4 3-4 2-4 3-3 2-5 5v3l-3 6-7 7-1-2v5l-7 7-4 1-1 5-2 3-2 2v5l-2 2-2 1v24l1 4 2-4h1l2-2 2-5 1-4v-3l-1-1 2-2h2l-1-2-1-4v-6l1-6 5-1 1-1 2 4 2-2v3l-2 5-1 4-2 6-3 3-1 5-2 4-1 5-2 4v3l-2 8-1 7 1 4-1 4h-1v3l1 7 1 4 1 5 1 4 1 5 2-2 1-6 2-4-1-4-1-2v-4l2-5-1-1v-6l2-1-1 6 3-3v5l2-2 1-4-2-1-1-1 2-4 1-5 2-5 2-4 2-2 2-6 3-4 1-6h3l1 1-6 10-2 2-1 5 5-3 2-2 2-4 1 1 10-6 2-4 3-1 1-3 2 2 2-1 7-7 4-3 2-2 4-2v-1l-1-1 1-2 2-2 4-2 2-2 4-1 2-2 5-2 4-2h3l-2-2-5 2h-3l2-1 1-3 2-4 2-2v-2l-5 1-4 2h-1v1l-3 2-5 2h-3l-2 3-6-1v2l4 1-3 2-4 2-2 4-4 2-7 7-2 3-6 5 1-5-4-1-1 3-5 1-6 2 3-3-1-4-2 2-6-1 2-3 3-4 2-1 2 4 1 1 2-2-1-1-2-4 2-4 4 1h2l1-6 4-4 5-4 3-1 2-2 4-3-1-1 5-5 2 2h2l1 2 3-2 1-3-3 2-1-1 2-5 4-1 1-1 1-4 4-2v-1l-5 1v-3l5-2 2 2h2l4-5 4 2 3-3v-3l2 2 4-2 6-1 2-1h3l-3 1 1 5 2-2h3v-2l1-4-2-2h5l1-2 4 1 2-2-1-1h-3l-1-3v-2l2-2h2l-1 3 3 1 5-4 4-5 3-3h3l3 1 2-3 2-4z"/><path d="m339 367 1-2-5 1 3-3 1-4-5-1-4-1h-3v3l-4 2-5 1-6 3-5 2h3l5-1 4-2 1 1 2 4v3l-3 1-4 2 2 2h6v-2l4 1 2-2 4-2zm-6 102 1-3v-3l-1-2-5 1-5 2-4 2v3l2 1v2l2 4 1 1 4-2zM55 198v-3l-1 3Zm132 354"/></g><path fill="#43aaa2" d="m175 240 2-1 1-4 2-2 1 1 2-2-2-2 4-8 5-6 2-1 5-6 6 1 6-2 3-3-6 2-1-2 4-2 5-1 4-2 1-1h-3l-4-1-7-1-1 3-1-1h-9l-4 2-5 2v2l1 3-4-2h-3l-4 2-5 6-3 4v2l4 5-1 3-4-4-2 1-1 5-1 3 1 1h3l4 2 1-3 2 1-1 6z"/><path fill="#186f78" d="M240 199h-4l-4-2h-6l1 3 5 2 4 2 4 3 3 2 2 2 1-7 3 1 4 2 5 2 2 2 3 2 1 3 3 1-3 2 5-1 2 5 2 2 2 5 2 3 2 4 1 6v3l-1 5 1 5-2 2-1 3 1 5 2-2v-3l1-4v-8l1-4-1-3-1-4-1-8-2-2-2-6-4-4-1-3-3-1-1-3-4-2-4-3-6-3z"/><path fill="#43aaa2" d="m349 214 1 4 3 2h3l3-1-1-4 3-3v-7l2-1-2-4-5 2-2 4-3 4z"/><path fill="#4f8d63" d="m129 208-1-2-1-5-2 3-2-3v8l1 1-2 1-1 3-1 4 1 4v6l1 4v1l2 3 4-1-1-1-3-4v-9h6l-1-6v-3l-1-1z"/><path fill="#43aaa2" d="m277 261 1-3 2-2-1-5 1-5v-3l-1-6-2-4-2-3-2-5-2-2-2-5-5 1 3-2-3-1-1-3-3-2-2-2-5-2-4-2-3-1-1 7 10 10 3 5 4 10 1 4v12l-1 4-2 6-2 2h-4v3l-2 4-1 1-2 1-1 2-1 1 6 8v2l-3 1 1 2 5-2h6l4 1 4-5 1-3v-2l-3-1-1-3v-3l4-2 1-2h-3l-1-1 1-4v-5l1-4 1 3 1-1 4 1-2 3-3 3z"/><path fill="#061e1e" d="M122 233v-1l-1-4v-6l-1-4 1-4-1-4-1-5-1 4 1 9v9h-2l-2-2-1 4v3l1 3 3 1v3l-1 5h3v5l-1 4h3l2 6 3 4 1 5 2 2 2 4v1l5 5v-3l-3-3-1-5-2-2-2-4-1-5-2-4-1-6-2-6h-2z"/><path fill="#4f8d63" d="M388 216v3l-2 5-3 4-3 5-2 2-3 4 2 1v9l2 4h2l4-3 1-4 1-6v-3l3-1 1-2 1-5 1-4v-6l1-10-4-4-7 1-2 5-2 2-2 6 2-2 3-5 2-1-1 5zM248 332l-3 1-2 2-4-1-2-3-4 4-5 4-3 2h-2l2 2-3 3-2 4-1 4-3 4 1 4v3l3-5 3-4 2-2 1-3 3-4 4-4 2 3-1 1-1 3 8-4 3-1 2-2h-2v-5l2-2z"/><path fill="#105d45" d="M135 210h-1l-1-3-2 4-2-3-1 3 1 1v3l1 6h-6v9l3 4 1 1v-1l-1-4-1-3 6 5-1-6v-3h3l5 5 2 5 2-4 1-3v-5l-1-5-5-2z"/><path fill="#43aaa2" d="M47 214h-1v5l-3 1-1-7-1-4v11l3 2-2 4 2 4 1 7 2 4 2 5 2-1h2v2l-2 3 2 6 3 4 2 5 2 2 3 4 8-6-2-1-1-3-2-4-2-2h-1l-3-6-3-1-1-2v-2l1-3-2-4-2-6-6-6 1-4z"/><path fill="#061e1e" d="m104 212-1-1-2 4v11l-1 4-1 1v3l1 1 1-3v9l2 4 1 7 3 3 6 3 1 4 5 1 1 3 2 2 1 3 5 2 2 2h1v-1l-5-6-3-1-2-4-3-4v-3l-1-4-2 2-2-5-4-8-1-4-1-5-3-4z"/><path fill="#98bca3" d="M367 236h2l-2 5h2l2-5 2-4 2-1-1 5 8-8 2-5 2-2 2-5h-5l1-5-2 1-3 5-5 5-3 5-2 2v1l-1 3-2 2z"/><path fill="#306e54" d="m51 250 2-3v-2h-2l-2 1-2-5-2-4-1-7-2-4 2-4-3-2v-6l-2 4-2 2v8l2 4 1 3v3l2 5v1l2 5 1 4 4 2 1 4 3 1-2-4-1-5z"/><path fill="#105d45" d="M381 253h-2l-2-4v-9l-2-1 3-4 2-2 3-5 3-4 2-5v-3l-2 5-2 2-2 5-8 8 1-5-2 1-2 4-2 5h-2l2-5h-2l-4 2-2 4-3 1v1l2 2-3 5-2 4 1 1 3-1 2-2 3-2v1l3-3 5-6 1 1 1-1 2 4v6l2 1 1 1 2-1z"/><path fill="#186f78" d="M175 240h-3l1-6-2-1-1 3-4-2h-3l-1-1 1-3 1-5 2-1 4 4 1-3-4-5-4 4-2 6-2 4v5l-1 4-1 5-1 4 1 1 1 7-1 4 2 1 3 9 2 4v3l3 1 2 5 2 2 3 4v2l3 1 2 2h-3l-6-2h-1l4 3 4 2 7 7 3 1-1-1-5-6 4 1 1-2-8-6-5-6h7v2l-1 1 4 1h2l2-2v-3l-1-3-5-3-1-3 3-1 1-2v-3l-4-3v-2l-1-3v-3l-1-4-1-5-1-2h-1l-5-1-2 2v3l-1 1 2 4h5v6l1 1h-3l-1 4-4-3-4 2v-2l-1-1-2-3-1-8 2 4 4-1-3-3-4-2 1-5 2 3 3 2v-6h-3l-2-2 1-4v-3l1 1h3l-1 4 4-1 2 4 2-4 1 3h2l1-1 1 4v-4zm47 16-2-3-6 5-2 4h-2l-1-1-1 2v3l-4 4-3 4-2 2-5-1-4-2 1 2-1 1-3-2v3h3l1 4 3 3h2l-1-3-3-3 5 1 2 3 1 1 1 9h-3l-1-4h-2l-1 3h-2v3l1 2 4 1v6l2-2 1 5 1 3h1l-1-5 1-6h3l3 4 1 3 2-3 1-4-3-1 1-5-2 2-5-1v-3l-1-8v-2l5 1h3l1 1 3 1 1 7-2 4 1 5-2 4v7l-7-1h-2l4 1 5 1 2-2 1-5 2 4h3l5-1 2 3 1-1v-8l2-2-1 5 2 2 2 1 1-5 1-4 4-3-5-1-1-6 2-6v-3h-1l-2-5-3-4-2-6-3-4zm-6 24 3 1 1 2h11l1 4-2 4 1 2 2 1h-3l-2 2h-3l-5-1-2-2-1 1v-13zm156 99h-3l-4 3 2 2h-3l-3-3h-5l1-3-3-1-2 3v-8l-2-2-4 2-4-1 5-2 6-2 2-2-6 1-4 2-6 2h-3l-3 3-4 2-2 2-4-1v2l3 1-5 1v3l1 1-3 3-3 4 2 1 4-2v3l2 2v3h-2l-2-2-4 4-3 1-3 5-3 3 1 3 3 1 2 1 4-2 7-1 1-4 1-8 3-1-1-5 4-2 4-1h3l1-1 1-6-3 2 1-10 1-4 1 4 1 5 2 6-2 1 1 1 5-2v-3l4 2-1 5 6 2-3 4h1l5-4 5-5 6-5z"/><path fill="#061e1e" d="m77 227-1-2-2-2-1 1 2 8 2 6-1 1h3l3 4-2 1v2h3l-2 2 3 1 1 3h-3v3l3 2h-5l-1 5 2-4 3 1 1-1 2 1 1 5 5 3 2 2-3 2h3l4-2-1 3-1 4 2-2 2 2v3l3 4 1 4 2 1 1-1h1l4 2 1 3 2 2 1 2-1 1 5 5h2l1 3 2 2 2 4-1 1-3-1-2-2v1l1 4-4-2 1 4-3-1-2 4 3 4 1-1 4 4-1-4 3 1 1 5 1 3 4 2 4 3 4 2 1 2 4 2 5 5 3 1 6 8v1l3 3 3 4 3 5 3 4v1l3 4 2 6 2 4 2 5 2 4 1 5 4 8 1 7 2 4h2l-1 5v5l1 4-2 1 1 3 2-2 3 3 2-4v-6h-1v-12l-1-1-2 4v-11h1l2 4v-11l-2 4-1-1v-3l2-4-1-6-2-4v6l-2-3-2-4-1-7-2-1v-5l-3-3-1-5-6-8-2-4-6-8-1-2-2-3 4 1 1 1 2-2 2 4v-3h2l2 4h2l1 3 2 2-1 1 1 4 1 3h3l1 1 2 6 3 4v1l1 5 2 2v3h2l1-4-3-1-1-5-1-4-1-6h1l5 5 1 4 2 4 2 5 2 1 1-3v-3l-3-1 1-4-2-2-1-6-2-2-2-6-4-8-3-5-3-3-2 3-3-2 2-2 1-2-3-1-5-5-2-1-4-3-2-2-5-2-4-3v-3l1 1 4-2-2-2-4-1-1-4-5-2-2-2-4-2-5-3-1-4h-4l-5-6-4-4-3-1-6-6-4-8v-3l-3-5-2-2h-3v1l-2 1-2-4-3-3-2-4-2-3-3-4-2-5-2-1 1 4v3l-2-5-5-5h-3l-2-5z"/><g fill="#306e54"><path d="m160 293 6 1-4-5-3-1-3-5-2-2v-2l-2-4-2-2-1-5-2-6-2-4-1-8-1-4v-17l-2 4-2-5-5-5h-3v3l1 6-6-5 1 3 1 4v1l-4 1-2-3-1 9h2l2 6 1 6 2 4 1 5 2 4 2 2 1 5 3 3-1-4 4 3v2h3l1 3 4 4 1 3 2-1-2-4-6-8-2-4 1-3 2 5 3 3 3 1-1 2v2l2 1 2 4 6 5z"/><path d="m123 271-1-3-2-2-1-3-5-1-1-4-4-2-1 1-1 2h3l2 2 3 5v3l4 8 6 6 3 1 4 4 5 6h4l1 4 5 3 4 2 2 2 5 2 1 4 4 1 1-2 4 1 4 4 1 2 5-1 1 5 5 1 4 2h5l2-2 1 3 3 4 4 8h-6l-3-4v-2l-1 4 3 4 2 5 2 2 1 6h2l-1-5v-3l1-4v-2l3 3 1-1 1-4 1 5-1 2-1 4 2 5-1 4h2v-5l3 1 1 1v-1l1-4v-2l1-4 2-2 1 1 3-3h-2l-1-2-2 2 1-4 2-4 3-5-2-2h-3l-1 3-1 4-3-4 3-1-3-1-1-4-2-1-2-2-2-4v2l1 5v3l-1 2h-1l-1 3h-2l-4-8-3-4-3-2-3-3 1 2 1 3-3-2-4-3-6-5-2-2-4-1-5-3v3h-2l-5-3-1-3-3-2-5-3-3-1-2-2-5-2-5-4-4-3-2-2-3-2-3-3zm140 182v-1l2-2 2-4 2-1 3-4v-2h-3l9-9 1-3-6 1-4 2-6 1-3 1h-3l-6 5-2 2-5 3v-1l2-4 2-6-2 1-3 5-2 5v3l-2 4-2 6v3l-3 2 3 1-1 8h2l-4 2 1 4v3l-1 4-3 4 1 5-1 4v6l5-1-1 7v1l2-4v-11l2-1 2-6 2-2v-3l3-4 2-1 2-3 3-4 1-3 2-2 1-6zm-9 13h-1l-1-3-3 4-5-1 1-4 1-7 2-4 4-2 5-3h3v3l-2 3-3 4-1 3 1 1z"/></g><path fill="#98bca3" d="M282 245v9l4 1 1-5v-3l1-4-1-4-2-6v-3l-1-6-4 3-1 3 1 8 1 4z"/><path fill="#061e1e" d="M222 256v-4l-2-4-1-6-2-6-2-5h-8l-5-1-1 1h-2l-5 1-3 3v3l1 3 2 2 1 4 2 2 1-1 1-3 2-2v5l6-5 2-5v-3l3-1v2l-2 5 1 1 1 3-1 5h-2l-1 1 1 3 5-3 2-2-1-4 5 5-3 1 3 2z"/><path fill="#43aaa2" d="m60 235-2-2v5l2 4v3l1 2 3 4v4l2-2 3 4 1 3 2 3h1l3-3-3-1-2-4v-3l4-3-4-4h-3l-7-7z"/><path fill="#327aa1" d="m82 252-2-2-3-2-1-3-4-4-5-2-3-3-4-1 1 3 7 7h3l4 4-4 3v3l2 4 3 1-3 3h-1l2 1h3l2-2 1-5h5l-3-2z"/><path fill="#306e54" d="m383 258 3-6 1-5 2-6 1-5-3 1v3l-1 6-1 4-4 3v1l-2 1-1-1-2-1v-6l-2-4-1 1-1-1-5 6-3 3-2 4-2 1 3 3 3 4 2 2 2-2-2-1 1-3h2v2l4-4 1 3 4-1 2-4z"/><path fill="#0d2c4e" d="M364 252v-1l-3 2-2 2-3 1-1-1 2-4 3-5-2-2v-3l3-3-6-1-4 2 1 1 4-1-1 6-3 3-1 4 2-2 3-5v3l-2 4-5 5-3 1 1 4-3 3-2 1-1 4v2l1 4-2 4-1 5-3 4v2l2 2 3-2h2l1-5 2-4 2-6 2-4-1-4-1-3h5l5-6 2-2 2-1z"/><path fill="#43aaa2" d="M176 251v-2l-1-4-1 1h-2l-1-3-2 4-2-4-4 1 1-4h-3l-1-1v3l-1 4 2 2h3v6l-3-2-2-3-1 5 4 2 3 3-4 1-2-4 1 8 2 3 1 1v2l4-2 4 3 1-4h3l-1-1v-6h-5l-2-4 1-1v-3l2-2 5 1z"/><path fill="#061e1e" d="M80 244h-1Zm129 17-3-1-2-4-3-4-1 3-5 5-1 2-5-1-7-1 4-1 7 1-2-3-4-5-2-5-1 1h-2l-2-4-3-1v10l1 5 1 4v3l1 3 1-3v-2l7-1 2 4 1 3 4 3 2-2-2-6h2l1 1 2-2 2 2h4l2-2zm-26 304-1-3-2 3-1-1-3 1 1 1h-6l-4 2 1 2 2 2 10 4 4 2 5 1 5 2 6 2 5 1 4 2 5 1 8 4h17l4-1 2-2h-3l-7 1-5-1-4-2-5-2-6-2-5-3-4-2h-3l-4-2v-1l-3-1-5-1-4-3h-2l-1-3z"/><path fill="#96a15d" d="m29 260-1-2-2-2-2-5-4-4h-3l-1 2 1 2 2-2 2 4 2 2 2 4-2-1-3-5-1 4 1 4 1 8 2 4 1 5 1 3 2-1 4 2 1-2-2-4v-3l2 3 2 4 2 5 3 4 1 3 3 1 4-4v-3l-5-5-3-5-4-2-1-3h-3l-1-3v-3z"/><path fill="#306e54" d="m25 281-1-3-1-5-2-4-1-8-1-4 1-4 3 5 2 1-2-4-2-2-2-4-2 2-1-2v6l-1 5v7l1 4 1 7 2 4 1 7 2 2-1-7-1-4-1-5-1-4v-2l2 4v5l2 4 2 6 1 6 2 4 3 5 2 6 2 4 4 4v4l3 4 1 3 2 2 5 6 4 4 4 1-2-5-2-2-2-4-3-3-3-5-2-2-2-4-2-2-2-5-3-4-2-6-3-4-1-5-2-4zm-7-12h-1v-6l1-4z"/><path fill="#327aa1" d="M313 293h1l1-3 2-4v-6h2l2-3 3-4 1-6 2-2 3-1-1-4 3-3h-4l-2 2-6 1-2 5-1 4-1 2-3 1-1-1-3 1-1 2 4-1-1 4-2 2-2 4 4-1-1 6-4 4 3-1 5-5-1 3z"/><path fill="#105d45" d="m383 258-1-2-2 4-4 1-1-3-4 4v-2h-2l-1 3 2 1-2 2-2-2-3-4-3-3-2 2v3l-3 3 2 3 1-3 4 1 1 1 3 2v2l-4 1-2 2v2l4-3v2l-4 3-4 1 3 2-5 4h-1v10l-4 2 1 3 1 1-3 3 3-1h1l7-7 5-6 2-2 1-3 5-5 2-5 3-4 1-3 3-5zm-335 2-2-1 1 4h1l2 4v-3l-2-1z"/><path fill="#306e54" d="M353 285h1l5-4-3-2 4-1 4-3v-2l-4 3v-2l2-2 4-1v-2l-3-2-1-1-4-1-1 3-2-3 3-3v-3l-5 6h-5l1 3 1 4-2 4-2 6-2 4-1 5v2z"/><path fill="#4f8d63" d="m80 313-4-3-2-2-6-5-8-8-4-2-6-6-2-4-5-5-5-6-9-12 1 5v3l1 3h3l1 3 4 2 3 5 5 5v3l-4 4-3-1-1-3-3-4-2-5-2-4-2-3v3l2 4-1 2-4-2-2 1 1 5 2 4 1 5 3 4 2 6 3 4 2 5 2 2 2 4 2 2 3 5 3 3 3-1 3-3-2-4-2-5-3-5-5-1-1-1 6-3-2-5-3-3-2-4 3-2 4-1 9 9 1 4-5 3h-3l2 2 1 6h1l1-1 3 1 2 3v-3l-2-2 3 1 4 4-3 1 2 1 3 3 2-2-2-2 2-1h3l3 1v-1l2-1 1 2 3 5 4-1 1-4h-5l-1-2-3-1z"/><path fill="#0d2c4e" d="m187 274 3 2 1-1-1-2 4 2 5 1 2-2 3-4 4-4v-3l-2 2h-4l-2-2-2 2-1-1h-2l2 6-2 2-4-3-1-3-2-4-7 1v2l7 7z"/><path fill="#327aa1" d="m187 274 1-2-7-7-1 3v2l4 3v3l-1 2-3 1 1 3 5 3 1 3v3l-2 2h-2l-4-1 1-1v-2h-7l5 6 8 6-1 2 4-1 4 3 7 1-1-5-2 2v-6l-4-1-1-2v-3h2l1-3h2l1 4h3l-1-9-1-1-2-3-5-1 3 3 1 3h-2l-3-3-1-4h-3z"/><path fill="#4f8d63" d="M392 293h1l1-7 2-4v-6l1-4-1-6h-8l-3 5-3 3-3 5-6 5-1 3 6-5 4-5 2-2 5 2-1 3-6 8v1l2 1 1 4 2-1 2-5 2 2z"/><path fill="#327aa1" d="m78 288 3-1 2-2v-2l1-3-2-4h2l2 2 2 1v-2l-2-6-3-1-5-4-1 3h-2l-1-2-2-1 1 4-1 8v3l1 2z"/><path fill="#4f8d63" d="M131 275h-1l-2-2-5-2 1 2 3 3 3 2 2 2 4 3 5 4 5 2 2 2 3 1v-3l5 2-2 2 4 1 2-1-1-2-6-5-2-4-2-1v-2l1-2-3-1-3-3-2-5-1 3 2 4 6 8 2 4-2 1-1-3-4-4-1-3h-3v-2l-4-3 1 4v3l-5-5Zm-43 55-3-1v-2l-4-2-1-2-3-1-2 2-1 2-5 2 2 3-1 4 1 5-1 2-4 2 3 3 4 3 5 3 2 3 3 2h1l5-4 1-2h3l-1-4-2-4-3-1 2-2v-2l-2-4zm63 88-1-1-1-5-5-5-4-3-8-4-2 4-2 3-4-2-4-3h-1v9l-2-1v-6l-4-4-5-2-4-2-5-1h-3l2 4 3 4 5 6 5 4 4 3 1 1 3 2 4 2 4 3 2 2 5 2 2 2 6 2-3-4-3-5-3-4-1-3-3-4-1-3 2-1 2-5 4 1 2 6 4 4 4 2v3zm181 0-2 1-1 2-1-2-5 1-2 2 2 4 1 4 1 1h-3l-1-4-1-2-3-1h-4l-6 2-2 1-1 5h6l1 3 4-1-3-2 4-1 5 1-2 2-5 2-2 2 4 2h-16l-3 3-6 1 1-6v-2l-4 2-3 3-5 3-3 3-1 5-3 1 1 2 3 1-2 2-3-2-1-1-2 2-3 5 4 2-2 1-1 2 1 2 4-1 1-4 5 1 6-2 4-3 8-4 6-2 1-2 1-1 3 1 1 1 5-5 1 1h1l2-2 5-2 4-2 5-2 4-2 5-3 2-2 5-3v-2l-3-3-5 2-5-1-1-2-1-4z"/><path fill="#186f78" d="m251 272-4-2-2 2 3 1-6 2-6 1v3l4 4 2 4 1 4-2 5v3l-1 5h3v1l2-1h-1l-1-5 1-4v-2l1-4-2-4 3-1 1-4 4 4h2l-6-8 1-1 1-2z"/><path fill="#98bca3" d="M382 289v-1l6-8 1-3-5-2-2 2-4 5-6 5-3 2-2 2-6 5-4 2-5 5h-1l1 2 2-1 3-4 6-2 4-4h2l-2 5 2 1 1-1 1-5 7-1z"/><path fill="#327aa1" d="M203 309h2l7 1v-7l2-4-1-5 2-4-1-7-3-1-1-1h-3l-5-1v2l1 8v3l5 1 2-2-1 5 3 1-1 4-2 3-1-3-3-4h-3l-1 6 1 5Z"/><path fill="#43aaa2" d="m216 280 1 1v13l1-1 2 2 5 1h3l2-2h3l-2-1-1-2 2-4-1-4h-11l-1-2z"/><path fill="#327aa1" d="m266 288-4-1h-6l-5 2-1-2 3-1v-2h-2l-4-4-1 4-3 1 2 4-1 4v2l-1 4 1 5h2l2-2 5-2 2-2h3l5-1-2-3z"/><path fill="#43aaa2" d="M313 293v-4l1-3-5 5-3 1 4-4 1-6-4 1-4 4-3 4-2 4-4 5 3 1 4 1 3-4 5-1 1-3z"/><path fill="#186f78" d="m348 304 3-3-1-1-1-3 4-2v-10l-10 8v5l-2 1-1 7 2 1h3z"/><path fill="#4f8d63" d="M261 304h4l6 2 2-4h2l3 1-6 6-5 1 4 1h3l4-3 2-1 2-2v-3h-2v-2l3-3 1 2 1 4 4-4 6-5 1-2 3-5h-1l-6 2-1 2-3 2-7 1-2 2-7 1h-3l-4 1v2l7-1 1 1-4 2-8 1z"/><path fill="#0d2c4e" d="M122 310v-1l2 2 3 1 1-1-2-4-2-2-1-3h-2l-5-5 1-1-1-2-2-2-1-3-4-2 2 6-2 2-2-4-2-2-1 4 4 4-3 1h3l3 4 1-4 2 2v2l5 4z"/><path fill="#43aaa2" d="m392 293-1-3-2-2-2 5-2 1-1-4-2-1-4 4-3 4 1 5v5h2l2 2 4-1 2 1 1-1 2-5 2-4z"/><path fill="#98bca3" d="M52 308h3l5-3-1-4-9-9-4 1-3 2 2 4 3 3 2 5z"/><path fill="#105d45" d="m366 306 4-5-1-1-2-1 2-5h-2l-4 4-6 2-3 4 3 2-2 4-2 3-3-1h-3l-3 3-4 5 2 2h1l2 2 2-4 2-2 5-3 1 2v3l2 1 1-1v-8l3-3z"/><path fill="#306e54" d="m386 309-2-1-4 1-2-2h-2v-5l-1-5 3-4-7 1-1 5-1 1 1 1-4 5 1 2 3 1-1 7-2 4-1 3-2 4h-3l-2-1-1-4-1-1-2-1v6l1 1 1 5-8 1-1-1h-5v2l4-1 1 3 2 1-1 5-2 4-1 5h1l4-2 3-1 5-5h2l2-4 3-1 3-2 3-4 3-3 3-5 3-4 1-3 2-2z"/><path fill="#105d45" d="m200 306-7-1-4-3-4 1-4-1 5 6 1 1 1 2h1l3 3 3 2 3 4 4 8h2l1-3h1l1-2v-3l-1-5v-2l2 4 2 2 2 1 1 4 3 1-3 1 3 4 1-4 1-3h3l2 2 3-2 1-4 7-7 1-2-4 1h-6l-4 1-5-1-2-2-2 2-5-1-4-1h-2z"/><path fill="#43aaa2" d="m357 321 1 1 1 4 2 1h3l2-4 1-3 2-4 1-7-3-1-1-2-5 3-3 3v8zm-11 30 1-5 2-4 1-5-2-1-4 3-6 2-4 2h-2v3l1 3 5 2 3 3 4-1z"/><path fill="#105d45" d="m52 308-2-1-6 3 1 1 5 1 3 5 2 5 2 4-3 3-3 1 2 4 2 2 2 5-4-1 5 6 4 2 3 3 4 3 5 4 4 2v-1l-2-2-2-1v-3l3 3h3l-2-3-5-3-4-3-8-8-6-5 1-4 3-4 4-1-3-2-3-4-1-3h-1l-1-6zm259 105-3-1-1-3 3-3 3-5 3-1 4-4 2 2h2v-3l-2-2v-3l-4 2-1 3-5 4h-15l1 1 4 1 4-1 4 2-5 6h-3l-1-6-7 1-4 1-4 2-5 1-2 2-1 3-4 2v2l4-2 5-5 12-4 4-1v6l1 1-5 5-4 2-1 2 1 1 5-1 4-3 9-1z"/><path fill="#306e54" d="m112 338-1-2-5-6-6-5-3-3-4-2-4-3-4-2-5-2-1 4 3 1 1 2h5l-1 4-4 1-3-5-1-2-2 1v3l3 1 1 2 4 2v2l3 1 3-4v-2l5 2 3 4-3 1 1 2 2 2 4 8-1 1 3 4h3v3l2 1 1 7 1-4-1-5 2-1 1-5-1-1z"/><path fill="#0d2c4e" d="M249 324v-1h-6l-4-1 5-1 1-3-3 2h-3l5-3v-2l-2-2-5 3-10 10-2 1-4 5-1 3-1 1 1 2h2l-3 3-1-1-2 2-1 4v2l-1 4v1h1l1-3 2-2 2-4 2 2 3-3-2-2h2l3-2 5-4 7-7 5-2z"/><path fill="#96a15d" d="m77 320-3-1h-3l-2 1 2 2-2 2-3-3-2-1 3-1-4-4-3-1 2 2v3l-2-3-3-1-1 1 1 3 3 4 3 2-4 1-3 4-1 4 6 5 5 5 4-2 1-2-1-5 1-4-2-3 5-2 1-2 2-2z"/><path fill="#4f8d63" d="M262 326h1l1 2 4 1 2-4 3-2v6h1l5-2h3l4-2 1-2-3-1-4 3v-1l1-4 6-1 1 2h2l2-3 3-3-5 2-4 1h-13l-6 1-1 1 4 1-3 2-4-1-2 3z"/><path fill="#43aaa2" d="m348 332 1 1 8-1-1-5-1-1v-9l-1-2-5 3-2 2-2 4-2-2-8 4 1 4 4 3 2-5 2-2v5zM47 348l-3-2-2-2-5-3-3-3-5-3-4-4-4-2-5-6-6-2H7l-1 3 6 2 2 2-1 1-3-2 2 6 2 4 2 5 3 4 1 3 3 4 1 2h1l4-4h5l9 1h3z"/><path fill="#061e1e" d="m105 320-4-1 3 3 6 5 5 3v8h-3l1 5 1 1 2 4-1 3h-2l2 3 3 4 2 5v1l-4-1 1 3 2 2 2 5 2 1 2 4 3 4 2 5-4 1-2-2-2-4-5-1-3-4h-3l-2-2-3-1-4-3-4-2-2-2 1-1-5-3-1-2-1-4v-2l-1-1-5 4h-1l1 3 4 2v-2l2 3-1 1 2 3 2 2 4 2 3 2 4 2 3 3 2 3 4 2 1 1 5 2 2 3 2 1 4 1 8 6v-3l-2-2 3 1 3 4 1 3 6 5 3 2h3l6 6-1 1 8 8 3 4 4 5 3 4 2 2 2 5 3 3 1 2 3 4 2 4 5 5 1-1v-1l-2-1-2-5-2-2-1-3-6-8-2-4-2-5v-3l-5-5-2-5-3-3-1 1-3-3-2-4-6-5v-3l1-1-6-5-2-4 2-2h2v-2l-2-1-1 1-5-2-2-2-6-5-2-5-2-2-1 1-3-4-1-4-3-4-2-6-3-4v-6h4l-1-3-1-1h-2l-1-1 1-7-2-2v-2l-3-3-4-1-1-1-2-1zm-15 44"/><path fill="#186f78" d="M343 322h-1l-2-2-5 4-3-1 1-3h-2l-2 2v2l1 3h3l1 1-2 2-4-1-1 2h-5l2 2-1 4v2h-3l-2 2-1-5 3-1h-3l-2 1 1 5v1l-4-4-1 3-2 4-3 4-2 4h3l5-1 4-2 3-1 1-1 1 1 10-2 1 4 4 1 2 2v3l-4 1 5 1-1 4-3 3 5-1-1 2h2l3-3 3-1 3-3 3-1 3-3-3 1-4 2-5 1 5-5 3-1 5-5 3-4 4-2 2-5-3 1-2 4h-2l-5 5-3 1-4 2h-1l-1 2-4 1-3-3-5-2-1-3v-3h2l4-2 6-2 4-3-1-3-4 1v-2h5l-4-1v-5l-2 2-2 5-4-3-1-4zm1 38"/><path fill="#105d45" d="M37 321h1Z"/><path fill="#98bca3" d="M263 322v-2l-5 1-4 2-5 1-4 2-5 2-3 3 2 3 4 1 2-2 3-1v-1l5-2 4-2 5-1-1-1z"/><path fill="#105d45" d="m24 355-1-2-3-4-1-3-3-4-2-5-2-4-2-6 3 2 1-1-2-2-6-2v8l2-2 1 1-1 3-1 1 1 5 2 4 2 6 3 4 2 5 2 2 3 5 2 2 3 4 5 6 7 7v-2l-5-5 1-4-6-8-3-5-2-2-1-3zm56 51-4-1-3 1 1 3 2 3 2 2-8 2 3 1 4 2h-3l-4 1 2 5 5 1 2 2h2l1-7 7 1 3 3-4 1 2 1v2l3 2-1 3-6-1-2-2h-3l-4-1-3-3-5-1-2-2-4-3v3l4 3 5 1 2 3 1 1-1 8h-2l4 2 2 2 5 2 4 3-1 2 6 1 4 2 9 1v-1l-6-1v-8l1-3 3-1 5 2 1-1-6-3-3-1-2 3-3-3 3-2-3-1v-8l2-4v-1l-5-1-6-2-4-2-2-6v-3l6 2-2-2zm7 43"/><path fill="#306e54" d="M158 357v-1l-6-8-3-1-5-5-4-2-1-2-4-2-4-3-4-2-5-2-2-2-2 1 4 2 2 2 3 4 2 6 3 4 4 2-3 2 5 1 2 4 1-2 4 1 1-1 3 4 4 3 1-4 2 2zm104 133v-1h-2l2-5 2-2 4-2 2-4v-3l-1-1 5-2v-3l4-2-5-1-1 4-4 1-1-2-4-1-1 3-3 3-3 4-1 3-3 3 1 4-2 1-2 5-2 2-1 4 1 1h2l-2 4 2-1 2-5 2-4 3-1h3zM96 349l-4-4-1-5 2-1 1-3-2-2-1-3-3-1-1 5 2 4v2l-2 2 3 1 2 4 1 4h-3l-1 2 1 1v2l1 4 1 2 5 3-1 1 2 2 4 2 4 3 3 1 2 2h3l4 1 4-1-2-2-4-8-5-1-2-3-4-2h-2l-1-1 3-1 4-1-3-5-2-2-3-1zm0 0"/><path fill="#4f8d63" d="m158 357-2 1-2-2-1 4-4-3-3-4-1 1-4-1-1 2-2-4-5-1 3-2-4-2-3-4-1-3-7-7-1 4 2 4v1l1 3 2 4 2 5 2 4 3 4 2 2 8-1v-6h3v3l6 8 10 10h2l-1-4-4-3-1-3v-6z"/><path fill="#105d45" d="m321 349-1-1-1 1-3 1-4 2-5 1h-3l2-4 3-4 2-4 1-3 4 4v-1l-1-5-6 1-4 2-2-2v3l-3 3-4-2 2 4-5 2-2 2 2 1-1 4-4 2-2 4-1-3-1 4 1 3 1 1h-6v3l3-1 5-1 2-4h3l-1-4 1-4 1 3 4 4 3-3 3-2 4-1 6 1-1 4-1 1v5l2-1h-1l2-4 1-5-2-1-2-2 5-1z"/><path fill="#43aaa2" d="m390 355 2-4 2-5 2-4-1-4-3-2h-3l-4 2-2 2-5 3-4 3-4 2-4 3-3 1-4 2-3 2-3 3-3 1-3 3-3 1-3 3h-2l-3 3h3l6-2 4-2 6-1h1l4-3 5-1 4-2 4-3 4-2 2-2 4 4z"/><path fill="#0d2c4e" d="m178 363 2-2 1 3 3 2-2 3 5 3 1 2 3-1v-2h1l-3-4-2-6-1-1h-3l-1-3-1-4 1-1-2-2-1-3h-2l-2-4h-2v3l-2-4-2 2-1-1-4-1 2 3 1 2 6 8 2 4z"/><path fill="#061e1e" d="M280 368v-3h6l-1-1-1-3 1-4 1 3 2-4 4-2 1-4-2-1 2-2 5-2-2-4-4 5h-2l-2-2-5 2v3l5-1v1l-4 2-1 4-1 1-4 1-2 5 1 1 3-2-1 3-3 2-1 4z"/><path fill="#186f78" d="m82 370-4-2-2-2-5-2-5-4-3-1-3-3-5-3-4-3-4-2-1 4h-3l-9-1h-5l-4 4h-1l3 3 1-3 5-3 5 1h5l1 5 2 1 1 5 2 5 2 1 2 2 1 2 5 2 1 3 3 3 1-1h2v3l-1 7 1 4-1 4 5 2 2 2 4 2 4 1-4-4-1-5 2-4 1 3 2 4-1-9h-2l-3-3-1 2-2-3-3-1v-2l5 1 4 2v-7l2-6 3-2z"/><path fill="#327aa1" d="m49 369-2-5-1-5-2-1-1-5h-5l-5-1-5 3-1 3 1 3 3 4 3 5 5 5 5-1h1v-2l3-1z"/><path fill="#186f78" d="m295 372-1-3 3-3 1-5-4-4-1-3-1 4 1 4h-3l-2 4-5 1-3 1-5 2 1-4-1-2h-2l-2-2-5 5 1 1-4 3-2 2-3 1-5 4-4 4-1 6h-2l-4-1-2 4 2 4 1 1-2 2-1-1-2-4-2 1-3 4-2 3 6 1 2-2 1 4-3 3 6-2 5-1 1-3 4 1-1 5 6-5 2-3 7-7 4-2 2-4 4-2 3-2-4-1v-2l6 1 2-3h3l5-2 3-2z"/><path fill="#0d2c4e" d="m27 358-3-3-1 1 1 3 2 2 3 5 6 8-1 4 5 5v2l2 2 6 5h3l4 2h2v-1l-1-1-3-1-1-3-2-2-5-6-3-4h5l-2-2-5 1-5-5-3-5-3-4z"/><path fill="#43aaa2" d="M312 366v-5l1-1 1-4-6-1-4 1-3 2-3 3-1 5-3 3 1 3h1l4-2 5-1 2-1z"/><path fill="#061e1e" d="M82 361v-1l-3-1 2 2zm127 43 2-1 2-2v-5l2-2 2-3 1-5 4-1 7-7v-5l1 2 7-7 3-6v-3l-6 5-5 6-7 7-1 3-3 4-5 6-2 5-2 4z"/><path fill="#186f78" d="m377 374 2-1 2-5v-3l-1-3h-2v-2l-2 2-2 3h-3l1-2v-3h-3v3l-3 1 2 6-3 1 1 3 4-1 5 1z"/><path fill="#327aa1" d="M152 387h1l4-8-3-5-4-5h-2l-1 1-1-5h-4l-3-1-1 3 1 4 2 3 3 1v2l2 3 2 2 2 4zm-43 55 1-3-1-10-2-2-4-2-6-2-2 4v8l3 1-3 2 3 3 2-3 3 1z"/><path fill="#0d2c4e" d="m76 405-4-2-2-2-5-2 1-4-1-4 1-7v-3h-2l-1 1-3-3-1-3-5-2-1-2-2-2-2-1-1 2v3l5 2 3 1 5 6 2 3-3 4 1 4 2 2h-2l2 2-3 1v1l5 1 2 3 4 4 3 1-1-3z"/><path fill="#186f78" d="M61 396h2l-2-2-1-4 3-4-2-3-5-6-3-1-5-2v-3l-3 1v2h-1l2 2h-5l3 4 5 6 7 7 3 1 1 2Z"/><path fill="#105d45" d="m354 396 3-4-6-2 1-5-4-2v3l-5 2-1-1 2-1-2-6-1-5-1-4-1 4-1 10 3-2-1 6-1 1h-3l-4 1-4 2 1 5-3 1-1 8 1 2h6v1l3 1v-2h1l5-3 4-3 4-2zm-19 13-2-1 2-1z"/><path fill="#061e1e" d="M91 397h-1l-2-5-3-2-1-6-2-4v-8l-3 2-2 6v7l-4-2-5-1v2l3 1 2 3 1-2 3 3h2l1 9-2-4-1-3-2 4 1 5 4 4 4 2 2 2-6-2v3l2 6 4 2 6 2 5 1v1l6 2 4 2 2 2 1 10-1 3 2 2 4 1 1-1-3-2-2-4v-9l3 2 5 2 6 2 1 1 4 3 8 4 5 5 5 4 2 1 4 4 2 1 5 6 6 5v1l1 2 3 3h4v4l1 1 3 1 2 4 6 5 3 4v1l1 1 2-1-2-2v-5l-1-1h-2v2l-1-2-2-2-2-6-5-4-1-3-14-14-5-4-2-2-5-3-4-3-4-2-4-3-4-2-2-2-4-2-5-3-5-4-8-6-5-5-6-5-1-3-3-4-1 1-3-4z"/><path fill="#105d45" d="m114 398-1-2h-5l-1-3v-3l-2 4-8-4-1 2-4-1-6-12-1-3-3-4v8l2 4 1 6 3 2 2 5h1l3 1 1 3 5 5 5 6 1 1v2l5 3 4 2 1-3-1-1-4-3-5-4-5-6-3-4-2-4h3l5 1 4 2 5 2 4 4v6l2 1v-9h-1z"/><path fill="#43aaa2" d="M208 405v-9l-1-4v-10l-3 2-1-2-3-4-1 1 1 4-2 4v6l-1 4v13l6 1v1h2l1-2-2-2-1-3z"/><path fill="#4f8d63" d="m318 392-2-1 3-4 3-3-1-1v-3l5-1-3-1-3 1-4 2-1 4-4-1 1-1-5 1-4 2-7 1-1 3-2 2 4-1-3 9-4 1-2 2-5 2h-2l-1-5h3l2-3-3 1-4 2-2 2-4 3-7 7-2 1-3 3-5 6-4 5-2 2-1 2-2 6-2 4v1l5-3 2-2 6-5h3l1-1 2-4 6-5 2-4 5-1h3l-2 2 2 4v-2l3-2 1-4-2-1-1-2-2 2-4 2v-2l4-2 1-3 2-2 5-1 4-2 4-1 7-1 1 6h3l5-6-4-2-4 1-4-1-1-1h15l5-4z"/><path fill="#186f78" d="M174 400h-1l-2-5-2-1-3-4-1-2-3-3-2-4h-3l2 4 1 5v3l-2-3-1-4-2 2-1 3 6 5 1 3 5 5 3 4 2 5 3 3v1l3 4 2 5 3 3 1 4 2 4v-11l1-2-2-2-2-1-2-3v-2l-2-6-2-2-1-3z"/><path fill="#306e54" d="M307 384v-1l-2-2-4 2-5 2-2 2-4 1-2 2-4 2-2 2-1 2 1 1v1l3-1-2 3h-3l1 5h2l5-2 2-2 4-1 3-9-4 1 2-2 1-3 7-1z"/><path fill="#0d2c4e" d="m154 391-1 1-3-3-2 2 2 4 6 5-1 1v3l6 5 2 4 3 3 1-1 3 3 1-3 3 2v-1l-3-3-2-5-3-4-5-5-1-3z"/><path fill="#98bca3" d="m123 391-2-1-4 1-4 3 1 4 4 4h2l4 3 4 2 2-3 2-4-3-3-4-2z"/><path fill="#061e1e" d="M212 458h1l1-4-1-4 1-7 2-8v-3l2-4 1-5 2-4 1-5 3-3 2-6 1-4 2-5v-3l-2 2-2-4-1 1-5 1-1 6v6l1 4 1 2h-2l-2 2 1 1v3l-1 4-2 5-2 2-2 6-1 5 2-2v3l-1 5v12z"/><path fill="#105d45" d="m68 406-1 4h-3l-2-2-8-4-5-2-4-2-5-2-2-2-4-1-1-2-5-2 1 3 4 2 3 3 5 1 1 2 3 2-1 1v1l3 2-4 2 4 3 1-5 4 3 4 1h3l3 1 2 2 4-1-3-2 6-1v-3l-2-2Zm115 42-1-2-3-3-2-5-2-2-3-4-4-5-3-4-8-8 1-1-6-6h-3l-3-2-6-5-1-3-3-4-3-1 2 2v3l-8-6-4-1 2 4 4 2 3 3 8 4 4 3 5 5 1 5 1 1 1 2 3-1-2-1h3l4 3 2 2 1 3 12 12 2 4 4 5z"/><path fill="#061e1e" d="m57 398-2-2 1 2zl2 2v-1z"/><path fill="#0d2c4e" d="m116 417-1 3-4-2-5-3v-2l-1-1-5-6-5-5-1-3-3-1 1 5 3 4 1-1 3 4 1 3 6 5 5 5 8 6 5 4 5 3 4 2 2 2 4 2 4 3 4 2 4 3 5 3 2 2 5 4 3 3 2 1v1l9 9 5 4 1 3 6 6 1 2 1 1 3 1v-4l-1-2-1-1-1-4-1-1-5-2 3-1-1-3-2-2-3-4-4-4-5-6-9-9-4-2-1-3v-2l-1-5-2-2 1 8-4-1-2-2-3-1-5-5-2-4-2-5-3-4-2-5-4-5-2 1 1 3 3 4 1 3 3 4 3 5 3 4-6-2-2-2-5-2-2-2-4-3-4-2z"/><path fill="#306e54" d="m190 431-1-3-1-4-1-3-3-4 1-4-3-3-1-3-3-2v-5l-3-1-1 1 1 5 1 3 2 2 2 6v2l2 3 2 1 2 2-1 2v11l2 3h3v-1l-1-3 2-1z"/><path fill="#4f8d63" d="m359 419 5-5 1-3 3-4-1-4-4-2-4 2-9 3-4 2-3 2h3l1 1-3 2 3 2 3 4-4 2-1-3-3 1-1 5 4 1 4 2v1h2l6-5z"/><path fill="#98bca3" d="m151 418-5 1v-3l-4-2-4-4-2-6-4-1-2 5 4 5 2 5 3 4 2 5 2 4 5 5 3 1 2 2 4 1-1-8 2 2 1 5v2l10 5 2 2 6 5-2-4-5-6-3-4-1-3-4-5-3-4-3-1-2-4-2-2z"/><path fill="#43aaa2" d="m291 418 4-2 5-5-1-1v-6l-4 1-12 4-3 3 1 2 2 1-1 4h3z"/><path fill="#306e54" d="M209 412h-1v-7h-5l1 3 2 2-1 2h-2l3 4 1 7v11h-3l-1 1 3 1 2 6v5l1 4v12l2 1v3l2 1-1-7v-3l-1-1v-12l1-5v-3l-2 2 1-5 2-6h-1l-2 4-1-4z"/><path fill="#186f78" d="m71 411-6 1 3 2-4 1-2-2-3-1h-3l-4-1-4-3-1 5-4-3 4-2-3-2-5 1h-2l4 4-1 1 1 3 11 11h1l6 6 2 1 2 2 3 1 5 4h3l1-8-1-1-2-3-5-1-4-3v-3l4 3 2 2 5 1 3 3 4 1h3l2 2 6 1 1-3-3-2v-2l-2-1 4-1-3-3-7-1-1 7h-2l-2-2-5-1-2-5 4-1h3l-4-2-3-1 8-2-4-4z"/><path fill="#0d2c4e" d="M332 410v-1h-6l-1-2-1 4-3 3v3l-4 1 2-3h-5l-6 3-1 3-4 2h-6l-5 5-5 2-4 2v-2l5-5-2-2-5 3-2-2v3l-1 3-9 9h3v2l-3 4-2 1-2 4-2 2v1l3 1 4-3h-1l4-5 5-2 1-3 3-3 5-3 2-3 5-3 3-3 4-1h3l-2 1-1 2 4-1 2-1 6-2 1-3h5l5-3v-2l4-4zm-62 70 3-4 6-5 8-6 2-2 4-2 4-3 5-1 4-4-4 1-6 2-8 4-4 3-6 2-4 2v3l-5 2 1 1v3l-2 4-4 2-2 2-2 5h2v1h1l1-4h2l3 2 5 1v-2l-3-2 2-3-5 1v-1z"/><path fill="#306e54" d="M349 428v-1l-4-2-4-1 1-5 3-1 1 3 4-2-3-4-3-2 3-2-1-1h-3l3-2-7 1-4 2-3-1-4 2-4 4v2l-5 3h-5l-1 3h4l3 1 1 2 1 4h3l-1-1-1-4-2-4 2-2 5-1 1 2 1-2 2-1v3l1 4 1 2 5 1 5-2 3 3v2z"/><path fill="#43aaa2" d="M211 467v-3l-2-1v-12l-1-4v-5l-2-6-3-1 1-1h3v-11l-1-7-3-4-4 1-2-2 1 5-1 4v31l2 3-1 1v15l2 4v6h1v-7l1 3h2l4-2 1-3z"/><path fill="#061e1e" d="m263 413-2-2-1 3-3 1-2 4-10 6-1-1-2 4-2 2-5 3 1-5 2-2 6-10-1-1h-3l-1 6-3 4-2 6-2 2-2 4-2 5-1 5-2 4 1 1 2 1-1 4-2 2v-5l-3 3 1-6-2 1v6l1 1-2 5v4h2l2 4-2 4-1 5v19l2 4 1-4v-6l1-4 1-5 1 4v7l-1 4v17l2 3v-24l1-5 1-4v-7l1-4 1-5 1-4 1-7 3-2v-3l2-6 2-4v-3l2-5 3-5 2-1 1-2 2-2 4-5 5-6zm23 10 2 2-5 5v2l4-2 5-2 5-5h6l4-2 1-3 6-3h5l-2 3 4-1v-3l3-3-7 1-4 2-2-1-2 3-9 1-4 3-5 1-1-1z"/><path fill="#98bca3" d="m290 420 1-2-6 1h-3l-3 2v2l-2-4 2-2h-3l-5 1-2 4-6 5-2 4-1 1 3-1 6-1 4-2 6-1v-3l2 2 5-3z"/><path fill="#4f8d63" d="m183 448-2-1-4-5-2-4-12-12-1-3-2-2-4-3h-3l2 1-3 1 2 2 2 4 3 1 3 4 4 5 1 3 3 4 5 6 2 4-6-5-2-2-10-5 1 3 4 2 9 9 5 6 4 4 3 4 2 2 1 3 3 2-1 1 1 1 3 4h1l-1-4 1-1-1-5-1-7 2-2-1-4v1l-1 1-5-5-2-4z"/><path fill="#186f78" d="M116 444h3l4 2h3l-2-2v-7l-3-2-2-2-5-2-3-2v9l2 4z"/><path fill="#96a15d" d="M292 436v2l-1 6 6-1 3-3h16l-4-2 2-2 5-2 2-2-5-1-4 1 3 2-4 1-1-3h-8l-1-1-5 2-2 2z"/><path fill="#0d2c4e" d="m126 436-1-1-6-2 2 2 3 2v7l2 2h-3l-4-2h-3l1 3 8 4v3l-1 4 2-2h3l1 4-5-1-1 2-7-1 4 2h5l4 2 4 1h7l-1-2-6-1-3-5-3-4-1-4 4 1 4 2 5 5 1 5 2-2h2l5 5h2v-3l-5-5-4-2h2l-3-3-2-5-5-3-2-2-3-1v-2h-4zm-51 8-3-3v2z"/><path fill="#186f78" d="m116 444-1 1-4-1-2-2-1 1-5-2-3 1-1 3v8l6 1v1l6 1 4 1 5 1 4 2 1-1 5 1-1-4h-3l-2 2 1-4v-3l-8-4z"/><path fill="#4f8d63" d="m254 466 1-6-1-1 1-3 3-4 2-3v-3h-3l-5 3-4 2-2 4-1 7-1 4 5 1 3-4 1 3z"/><path fill="#061e1e" d="m267 467 1-2 2-1-4-2 3-5 2-2 1 1 3 2 2-2-3-1-1-2 3-1 1-5-3 1-8 6-3-1-6 5-1 6-2 2-1 3-3 4-2 3-2 1-3 4v3l-2 2-2 6-2 1v11l-2 4v1l1 5 2-5v-3l1-3 3 1 2 4v5l-1 6-3 3v9l-1 4 2-3 3-4 1-3 3-4 2-4v-1l2-4 3-4h-1l-4 2v-2l7-7 1-4 7-7 4-2-3-2h-2l-1 4h-1l-3 2h-3l-3 1-2 4-2 5-2 1 2-4h-2l-1-1 1-4 2-2 2-5 2-1-1-4 3-3 1-3 3-4 3-3 1-3z"/><path fill="#0d2c4e" d="M116 468v2l-1 1 3 2 1 2-4-1h-3l-1-3-4-2-7-1-1-2-3 4h-3l-4-5-8-2h2l1-3-7-1-4-2-6-2-4-2-6-2h-3l-1 4h3l6 5 2 2 3 2 4 3 2 2h7l-3 2 4 3 8 4 4 3 3 1 4 3 1 1h1l2 1 5 1 2 2h3l4 2 3-1h2l1 3 1 1 2 1v1h-1l-5-1h-3l4 2 6 2 4 3-2 1 3 2 4 1h-4l4 3 4 1 4 2 5 2v1l5 3 4 2 4 3 2 2h1l4 3 4 4 1-1-1-2v-1l-2-2h-1v-2l-4-3-1-2-4-4h-3l-1 2h-1l-2-2h3l-4-4-5-4-2-2v-3l3 2 5 2 1 1 3 2 4 1h3l1 2 1 1h3l-2-5-4-2v-3l1-5h-1l1-1-4-2-3-3h-2l-1 4-4-2 3-3-1-1v-1l-1-2h-3v3l-3-4 2-2-3-3-5-3-4-3-15-6zm32 26-3-2h3l4 1v2zm3-40-1-1-3 3 4 1 4 4-1-4zm188 1-4-1-6 2-3 2h-3l-10 4-4 2-5 1-4 2-6 2-6 3 1 2 5-1 1 1 4-1v6l-1 3-1 2 2 2 1-3h3l4-2 2-2 1 1 4-1-3-4 1-1-1-3 2-2 2 4h3l-1-1-1-4h-2l-5 2-6 2v-2l6-2 4-2 6-2 2-2 5-1 4-1 6-2z"/><path fill="#186f78" d="m333 469 5-5 3-5-2-4-3 3-6 2-4 1-5 1-2 2-6 2-4 2-6 2v2l6-2 5-2h2l1 4 1 1h-3l-2-4-2 2 1 3-1 1 3 4-4 1-1-1-2 2-4 2h-3l-1 3-2-2 1-2-5 3-1 1 6 1 3 2v2l2 2h1l4-2 4-3 6-5 4-3 2-3-1-1-2-4v-2l-2-1v-3l4-2 5-2 5-1 1 2v3zm-217-1-2-1-7-1-4-2-9-1-4-2-6-1-1 3h-2l8 2 4 5h3l3-4 1 2 7 1 4 2 1 3h3l4 1-1-2-3-2 1-1z"/><path fill="#4f8d63" d="M235 509v-2l1-7-5 1v-6l1-4-1-5 3-4 1-4v-3l-1-4 4-2h-2l1-8-3-1-1 7-1 4-1 5-1 4v7l-1 4-1 5v10l1 4 2 4v-3l1-3 1 7 1 3v-8h1Z"/><path fill="#105d45" d="m158 467-5-5 1 5 4 2h-3l-5-1v3h1l2 2h2v1l2 2h2l2 2h1l3 4v1l4 1 1 1 1 2 7 7 1 2h1l4 4 1 3h2l4 1-4-8-3-5h-2l-2-2-5-6-3-1-4-3-2-2h-2l-1-2-4-2h4l1-1-3-5zm1 1 2 2-1 1zm0 5h-2v-2zm11 12 1-2 2 2z"/><path fill="#061e1e" d="M136 465h-2v2l-5-1 4 2h3zm62 52v-4l-4-2 1 2 2 1zm-32 3h2l-3-4h-3z"/><path fill="#4f8d63" d="m213 468-2-1-2 4-1 3-2 1 1 1 4-4 1 7 2 4-1 4-1-5-2-3v6l4 4v2l-3 1 1 7 2-4 2 4 1-1-1 3 3 1-1-5 2-1-1-4v-1l1-3-1-4-2 2-1-5-1-4-1-5z"/><path fill="#306e54" d="m228 520-2-3v-17l1-4v-7l-1-4-1 5-1 4v6l-1 4-2-4v-19l1-5 2-4-2-4h-2l1 2 1 4-2 4-1 6 1 4-1 3v1l1 4-2 1 1 5-3-1v2l3 1 2 5-1 1-3-3h-2l-1 1 1 5h5l1 4 3 3-4 1 2 2 2 6v-3l1-2h2v-1l-3-1z"/><path fill="#061e1e" d="M170 486h-1l-4-3-3-1-2-2-5-3-4-3h-3l-1-2-6-2-1-1v3l3 1 8 4 3 3 2 5 6 5 1 3 3 3v1l2 2v3l6 5 1 3 2 2 3 5 3 4 3 5h-2l-1-3h-1l-2 2 1 1 3 1 2 2 2-1v-2l-2-4-2-5v-3l-2-5v-3l-3-4-1-2 1-4-1-1-1-2h-1l-1-2-4 1v-5zm7 15 2 2-1-1Z"/><path fill="#98bca3" d="m216 501 1-3-1 1-2-4-2 4-1-7 3-1v-2l-4-4v-6l2 3 1 5 1-4-2-4-1-7-4 4-1-1-2 1h-2l-1-3v12l2 4v7l1 4 2 6 4 5-2 1 1 6 2 4v5l3 4 1 3 1 1 1 6 5 1 2 1-2 5v3l5 4 9 1 1-4h3l-1-2-3-4-4-2-1-3 3 2 2-2-2-1-1-1-4-2 1 4h-2v-5l-2-2-1 3-1-3 2-1 1-1 3 3h3l-4-5v-5l-2-1h-2l-1 2v3l-2-6-2-2 4-1-3-3-1-4h-5l-1-5 1-1h2l3 3 1-1-2-5-3-1z"/><path fill="#4f8d63" d="m298 482 1-3v-6l-4 1-1-1-5 1-1-2-3 1-4 2-5 2-2 2-4 1-2 2v1l5-1-2 3 3 2v2l1-1 4-2 5-5h3l2 4 3 1 1-1z"/><path fill="#061e1e" d="M188 487h-1Z"/><path fill="#0d2c4e" d="M304 493h-1l-2-2v-2l-3-2-6-1-3-1-2-4h-3l-5 5-4 2-1 1-3 5-6 5-3 5-3 4-6 10-2 2-1-3-2 4-3 4-1 3-3 4-2 3v6h-1l2 6 2 2h2v-5l2-1 2-4 2-2 2 2-2 2-2 3 1 1-3 3-2 4 5-1h2l3-2v1l3-2 2-2 3-1v-2l-1-3h1l2 2 5-2 4-3-1-1v-2l-2-3h-3l-4 1-3-3 3-3v-2l2-3 3-1-1-4 5-2 1 1 7-1-1 5 2 2 3-3 1-2-2-2-4-3 4-2-1-4 4-2 1 2 5 1 1-4 1-2 4-3 4-2z"/><path fill="#105d45" d="m274 489-5-1-4 2-7 7-1 4-7 7v2l4-2h1l-3 4-2 4v1l1 3 2-2 6-10 3-4 3-5 6-5z"/><path fill="#0d2c4e" d="m155 491-1-1Z"/><path fill="#061e1e" d="M184 491v-1Z"/><path fill="#0d2c4e" d="M155 492v-1Zm42 1-1-1-3-1 3 3z"/><path fill="#061e1e" d="M160 493h-1l3 2z"/><path fill="#327aa1" d="m294 523 3-2 16-16 1-4-2-4-4 1-5 1-4 2-6 1-1 4-5-1-1-2-4 2 1 4-4 2 4 3 2 2 4 2-3 2 3 2h3z"/><path fill="#061e1e" d="m199 500-1-1-2 1 5 4v-2z"/><path fill="#105d45" d="m130 505-3-1-5-1-4-2h-8l-4-1-3 1 1 5 5-1 3 4 2 2h1l1 2 2 2 2 1 2 2 4 2h3l-2-2-4-2 4-1 1-1h-8l1-1-4-4-4-2 1-1 4 2h6l4 2 7 1 6 2 4 2 5 1v-1l-5-2-4-2-4-1-4-3z"/><path fill="#061e1e" d="m174 527-2-2v2z"/><path fill="#306e54" d="m194 511-1-4-5-2v2l2 4 3 3 1-1z"/><path fill="#0d2c4e" d="m153 524-1-4-3-1-2-2h-3l-4 1-2-4h-2l1 4 3 1 3 3-3 1 2 4 8 4 5 2 1 1 2-1v-3h2l1 3 1 2-2-1-1 2 1 1 2 3 3-2v-5l2 1 3 1-3-4-3-1-5-4-5-1v4l-3-3-2-4zm11 8"/><path fill="#105d45" d="m168 514-1-1-2 2 4 1z"/><path fill="#186f78" d="m294 523-2-1h-3l-3-2 3-2-4-2-1 2-3 3-2-2 1-5-7 1-1-1-5 2 1 4-3 1-2 3v2l-3 3 3 3 4-1h3l2 3v2l1 1 4-2 3-3h1l4-2 3-3 3-1z"/><path fill="#061e1e" d="m190 529-2-1 1 3 4 1v3l1 3h-3l-1 1 2 1 3 3 1 3v3l-2-1 1 3h5l1 5h-1v2l2 4 1 4-2 1 1 2h2l1-6-2-4v-3l-1-5-2-2v-6l-2-1-2-8-2-5-1-5-1-4-5-4-1 1 2 4 2 5zm5 14 1-3v3z"/><path fill="#105d45" d="m197 521-1-5h-2l-2 2 3 1z"/><path fill="#0d2c4e" d="M129 519h-1Zm49 6-3-3v5h-1l1 2v1l1 2 2 2 2 1-1 1 2 5 5 5 1 3h2l1-1-1-2v-3h-3l-4-4v-2l-4-8-1-3zl1 2 3 4 2 2v3l1 5h2v-3l2-2v-2l-1-3h-2l-6-6zm9 13h-1v-3zm0 7 1 1Zm15 24-1-2-2-2-2-6-3-4v6l3 4-3 2 1 5 4 2 5 1z"/><path fill="#061e1e" d="M172 525h-1Zm-12 9"/><path fill="#306e54" d="m238 541-2-3-2-4-1-5-1-4h-3v5l4 5h-3l-3-3-1 1-2 1 1 3 1-3 2 2v5h2l-1-4 4 2 1 1 2 1-2 2-3-2 1 3 4 2 3 4 1 2 1 3h3l1 3h2l2-3 5-5v-1l-3 2h-2l-5 1 2-4 3-3-1-1 2-3 2-2-2-2-2 2-2 4-2 1v5h-2l-2-2z"/><path fill="#0d2c4e" d="M199 527v2l2-2z"/><path fill="#4f8d63" d="M240 552h-3l-1 4-9-1-5-4v-3l2-5-2-1-5-1-1-6-1-1-1-3-3-4 1 7 2 4 1 4 3 1 1 5 2 4 2 6 3 4 1 5 2 2v4l2 4-1 7 4-2 1-3 4 2h1l-2-1 3-1 5-1 2-2-4-1h-3l-5-6-5-1-3-4-2-5v-3l3 2 3 1v-2l5 1 1-1 2-1 3 3v3l4 2 5 2-2-4-3-4h-2l-1-3h-3z"/><path fill="#061e1e" d="m184 550-2-2-1-4-3-1-1-2-2-2 1 5h-3l-1-1 2-1-2-5-2 1-1 2-4-1v3l5 3 5 5 4 2 4 3v-2l-3-3zm6-1v-1Zm3-3"/><path fill="#0d2c4e" d="M227 575h-2l-1 3-2-4-2-2v-2l-2-2-1-3-1-4-1-7v-3l1 3 1-3 2 2v-5l-2-1-1-3-1 4h-2l-3-3-2 2 2 5v3l1 5 2 4v1l2 4 2 5 1 4 3 4h3l4 2-1-4z"/><path fill="#105d45" d="M229 573v-4l-2-2-1-5-3-4-2-6-2-4v5l-2-2-1 3-1-3v3l1 7 1 4 1 3 2 2v2l2 2 2 4 1-3h2z"/><path fill="#0d2c4e" d="m191 555-1-2-3-1 3 4z"/><path fill="#105d45" d="m200 556-3-2 1 4h1z"/><path fill="#98bca3" d="m240 581 3 1 1 1h5l3-3 2-4v-6l-2-4-5-2-4-2v-3l-3-3-2 1-1 1-5-1v2l-3-1-3-2v3l2 5 3 4 5 1 5 6h3l4 1-2 2-5 1-3 1z"/><path fill="#0d2c4e" d="M186 567v-1l-2-4-1-3-1 3 1 3 1 1z"/></svg>
