<svg xmlns="http://www.w3.org/2000/svg" viewBox="0 0 262 259"><path fill="#101612" fill-rule="evenodd" d="M70.286 31.444C59.762 34.75 51.562 42.21 48.008 51.708 46.151 56.671 46 59.481 46 89.038V121h4.872c7.464 0 23.458-4.479 32.501-9.101 21.119-10.795 38.419-29.11 47.229-50.001 4.187-9.928 6.19-17.648 6.589-25.398l.309-6-31.5-.19c-23.798-.144-32.53.133-35.714 1.134m75.079 4.812c.777 7.589 3.756 18.7 7.268 27.107 8.938 21.397 33.058 44.317 55.063 52.321 6.965 2.533 23.02 6.272 27.054 6.3L237 122V90.182c0-36.408-.384-38.891-7.344-47.448-2.987-3.671-6.302-6.279-11.103-8.734l-6.845-3.5-33.496-.289-33.496-.289zm-13.98 62.361c-5.389 1.911-11.743 7.431-15.049 13.073-3.703 6.319-4.421 17.069-1.569 23.515 2.576 5.825 8.482 12.349 13.665 15.095 3.231 1.712 5.817 2.161 12.568 2.178 7.116.018 9.295-.384 13.383-2.471 5.391-2.754 10.671-8.56 13.261-14.584 2.355-5.478 2.193-15.748-.34-21.448-2.963-6.671-6.691-10.513-13.504-13.917-4.916-2.457-7.317-3.042-12.21-2.979-3.349.043-7.942.736-10.205 1.538M46.212 161.25c.285 32.886.314 33.302 2.697 37.963 3.326 6.508 9.559 12.581 16.091 15.679l5.5 2.608 33.827.288 33.826.288-.702-5.788c-3.076-25.33-16.435-47.847-38.425-64.768-12.941-9.958-37.8-19.52-50.748-19.52h-2.355zm176.779-31.764c-8.913 1.778-24.341 7.849-30.991 12.194-9.254 6.047-19.021 14.46-24.901 21.45-6.341 7.538-13.747 19.714-16.952 27.87-2.584 6.576-5.106 18.03-5.13 23.299l-.017 3.8 33.75-.3 33.75-.299 5.714-2.806c6.066-2.979 12.522-9.457 16.139-16.194 2.053-3.825 2.16-5.452 2.447-37.25l.3-33.25-3.8.094c-2.09.052-6.729.678-10.309 1.392"/></svg>
