<svg xmlns="http://www.w3.org/2000/svg" viewBox="0 0 581 485"><path fill="#d9dbc1" d="m288 12 2 3v-5l2-1 1-2-5-1-5 3-3 3-5 4-6 5-5 6-6 5-3 4-5 6-5 5-1 3 1 1h2v2l-3 4 2 1 2-5 3-4v-4l3-1 2-3h2l3-2-1-4 3-3 2-4 3-1 1 3h3l4-1 2-4 3-4v-3h-2l-3 1 7-7 4-2z"/><path fill="#6aa07c" d="m352 71-1-1-2-4-3-4-3-5-4-5-3-4-5-5-3-5-17-17-6-5-3-3-5-3-4-3-1 2-2 1v5l-2-3-1 6 4-2 2 2-1-3-1-4h3l4 2 3 3 5 4 2 1 1 3 4 2 5 6 12 12 2 4 4 4 3 5-1 1 4 2 1 2 3 4 2 5 2 2 1 2 3 4 1 1-2-4z"/><g fill="#166e67"><path d="m288 12-1-2-4 2-7 7 3-1h2v3l-3 4-2 4-4 1h-3l-1-3-3 1-2 4-3 3 1 4-3 2h-2l-2 3-3 1v4l1 2v5l4-2 2-2 3 5 1 1 1-1-1-1-1-3-2-2 5-6 6-5 5-6 1 3 1-4 2-2 3-4 6-5 1 3-1 4v6l4 1 5 6 5 3 2 2h1l2 3-4 1-2-4v3l1 3 2 4-1 8h-2l-3-3 1-4v-3l-3 4-4-4v-3l1 3h3v-3l-1-5-2 2-2-3-1-5-1-4-3 3-3 1-4 3h-3l-1 4 2-2h2l-5 6v2l-2 2 2 2 2 4v3h2l1-3 2-2 3-1v-3l3-1v-8l1-4 1-1v14l-2 2 3 1v14l-2 2 4 1 6 5 5 5h1l1-3 2-4h3l3 4 5 6 4 4h2l2 4 5 5-1-4 4-3v-3h-3l-3 3-1-1v-3l2-2v-2l4-1v-1h-2l-5-4 4-4v-2l-4 3h-3l-3-5-2-1-1-1-4-5-4-4 1 6 3 1v2l-2 2-2 1-3-4h-3v-2l3-3 1-3v-3l-3-5 2-1 1-3 8 4 5 5 2 5 3 1 2 4 2 2 6 8 1 3 2 2 3 4 2 5 2 3h2l2 5 2 4 2 5 2 4 1-1h2v3l-2 1 2 5 2 4 1 1 4-1-1 3-3 1 2 6 1 7 1 4 1 5h3l3 1v6h3l1-4v-12l-2-4v-5l-2-1-1-4 2 3-1-4-1-5-1-4-1-6-3-5-1-4-2-5-2-4-2-6-3-4-1-5-1-1-3-4-1-2-2-2-2-5-3-4-1-2-4-2 1-1-3-5-4-4-2-4-12-12-5-6-4-2-1-3-2-1-5-4-3-3-4-2h-3l1 4 1 3-2-2-4 2zm10 14v-3l-3-4-2-6 3 1 3 3 5 3 2 2-3 5 15 15 1 3 3 4 2 2v2h-3l-1-3h-3l-5 1-4-2-2-2h-1l-6-6-3-2-5-6-1-4v-9l2-1 2 3zm191 137-1-3-1-8-1-4-1-7-1-5-1-4-1-7-2-4-1 2h-3l-3 3v4l-1 7 4 2 4-1 1-1-1-6 2 4 1 8-2-3-6 1-1 1 1 7 3 15 1 8 1 4v5l1 4v5l1 4v10l-1 4v13l-1 4v5l-2 4v5l1-1h3l1-4 1-5 3-1h1v-6l1-4v-6l1-5-1-4v-21l-1-4-1-5 1-4v-5zM340 285l1 1 1 2 2-2 1-4h2l-2 5-2 4-1-1h-5l2 4 3 1 2 1 5-1v-7l-1-4v-5l-1-1v-2l2-2v-6l2-4v-5l-2 2-2 6-2 1-1 5-2 4-2 5zm151 8 4-2 8-1 5-1h3l8-1 2 3 1-4h12l1-4h-16l-1 1h-8l-1 1h-3l-5 1-9 1-1 1h-5l2-2 5-1 4-1h5l4-1 8-1 4-1h10v-2h-8l-4 1h-9l-8 2h-3l-6 1-4 1-5 1-4 3-5 1-10 5-5 1-4 3-6 2-4 2-4 3-6 2-2 2-10 6-4 3-5 3-2 3-2 2 1 4 3-2 2-2 5-2 4-3 4-2 2-2 6-2 3-2 16-8 5-1 4-3h3l4-2 9-3 1 2 3 1 1-5z"/><path d="m534 309 2-1-3-1 3-2v-7l2-1 4-1 4 1 7-1 4-2h-5l-1-2-2 3h-12l2-2-1-5h-6l2 2 3 1-1 2-2 2-9 1h-1l-1 7-2 3h-5l-3-3-2 4-1 1 5-1v2h-14l-6 1 2-4-6 2-1-1-1-3h-2l-2 2-2-4-5 1-6 3-3 1-4 3v3l5-1 4-3-1 3-5 1-1 3-5 1-3 2 1-2-2-2 3-1 1-7-2-2v5l-4 2-4 3-1-6-1 1 1 6h-3l-1 3-2-2-2 5-5 2-5 3-1-5-1-1h-3l-2 2-5 2-2 2-8 4-3 1-7 7h-3l-10 10-6 5-3-1 2-1 5-5 4-2 1-5h-2l-7 7-6 5h-1l-1 3-8 8-1 2-1 1 1 2 5-5 1-3 1 2v3l-4 3-2 3-2 1 3 4 1-1h5l2-4 4-2 2 4-4 4h-2v3l-1 2 1-1 6-5 2-5h-1l-1-4 4-5 3-3 3 3 1-1-1-2v-3l5-3v-2l4-4 2 2 2-3-1-1 4-4 2 3h2l-2-3 2-2 3-2v-5h3l3-3h3l1 4 1 1 1-4-2-2 5-5 3 4-3 3 1 1-2 2-4 3 1 1h3l-3 3-1 3 3-3 5-1 1-4 2 2 4-3h3l-4 3-3 1-2 2 4-1 2-2 7-1 3-3h3l1-2 6-2h12l-1-2 1-1 8-1 4-1h3l5-1h8l4-1 4 1-8 1 4 1h8l-1-2 1-1 5 1v5l-2 4-1 6-2 4-1 5-4 8-2-1-5-1 2 2v3l-1 6 3-4 1-3 1 2v3l1 1 5 1 2-3 2-5h2l2-3 1-6-3 4-1 1 1-5-3-1v-6h2l6 1 1 2 2-2 4-1-3-1-1-3 2-6v-3l-2 3-1 5-2-4-2 2-2-3-1-7-3-1 3-1 1 4 1-1 4 1 5 1 2-3 1-5v-3l-1 3h-2l1-4 4-3-4-2 1-1zm-213-9h-2l-1-3v3l1 5-3 4-3-1-1 1 4 2-2 5-1 5-5-1-1 1 4 2h3l3-1-3-2 2-6 2-3 5 1 3 6v3l-3 3-1 3-2 2 2 3v6l2-4 2 2-2 1 3 2 1-4v-3l-2-2 1-1 6 1 1-3 3-4v-5h-2l-5 1-1-4 5 1 6-2 2-6-3-1-2 5-2-2-4 2v-1l1-5-3-1-1-3-1 2-5 5-3 1v-2l2-5zm-64 49v1l-4 1 2 5 2 1-3 1 1 5 2 4 1-2 1 4 4-1v-3l-1-4 1-4 1 6 4 4 4-3-2-4v-2l-1-4-6 2-1-1h-2l-1-5z"/></g><path fill="#6aa07c" d="m319 45-1-3-15-15 3-5-2-2-5-3-3-3-3-1 2 6 3 4v3l3 4 1 4 5 1 5 6 3 1 3 3zm-57 57-1-2-2 2-3 4-3-2-1 2-5 5h-3l-1 5v3l-1 1 4 3h2l2-2 2-5 3-4 4-5z"/><path fill="#082c24" d="m302 34-1-4-3-4-4-4-2-3-2 1v9l1 4 5 6 3 2 2-4z"/><path fill="#55c1c4" d="M288 35v-6l1-4-1-3-6 5-3 4-2 2-1 4-1-3-5 6-6 5-5 6 2 2 1 3 1 1 1-1 3-1 2-2 6-5 1-4h3l4-3z"/><path fill="#0b344c" d="M319 45h-1l-3-3-3-1-5-6-5-1-1 3-2 4 6 6h1l2 2 4 2 5-1h3l1 3h3v-2l-2-2zm-14 2h-1l-2-2-5-3-5-6-4-1-5 6 3-1 3-3 1 4 1 5 2 3 2-2 1 5v3h-3l-1-3v3l4 4 3-4v3l-1 4 3 3h2l1-8-2-4-1-3v-3l2 4 4-1z"/><path fill="#4d7877" d="m292 76-4-1 2-2V59l-3-1 2-2V42l-1 1-1 4v8l-3 1v3l-3 1-2 2-1 3-1 4-1 1-4 2-3 5-11 11 1 3 2 4-3 1-2 2-2-2-1 3v3l-1 4 1-2 3 2 3-4 2-2 1 2 2-1 1-3 5-5v2l-2 2-1 3 3-1 2-4 5-5-1-1 5-5 1 1 5-5v-3zm-16-6 3-1 1-3 6-5 2-2v14l-4 3-4 4-4-3v-3h-2l-2 2 1-3 3-2z"/><path fill="#082c24" d="m274 52 5-6h-2l-2 2-6 5-2 2-3 1-2 2v3l-3 4-5 5-6 8-3 5-2 2-3 4-1 1-1 3-3 4-1 3-3 4-1 5-5 10-1 5-2 4-1 5-2 4-1 9-1 4-2 14v11h1v-6l3-2h-3l1-5v-6l2-2v7l3-3-4-8h3l1-9-2-1 3-4v-3l1-5 2-2 1-5 2-8 3-1 1-4 2-2 1-5 3-4 2-4 3-4 2-4 1-1 5-6 3-1 1 2 1-4-2-2 4-5 2-2 2-1v-2l2-2 3-4z"/><path fill="#6aa07c" d="m252 51-1-2-3 4-2 5-2-1 3-4v-1l-6 5v3l-1 4 2 4-6 8h2v2l-3 4-2 4 4 3h3l3-4 2-2 3-5 6-8 5-5 3-4v-3l-1-1-3-5-2 2-4 2z"/><path fill="#bba366" d="M247 52v-1h-2l-1-1-4 4-3 4-3 5-3 4-3 5-2 5-2 2-3 5-1 3-1 8v1l1-2 2-5 1-1 1-3 2-1 3-3 1-6 2-1 1-6 2 2 3-2 2-4 1-4v-3z"/><path fill="#082c24" d="m336 82-1-3-6-8-2-2-2-4-3-1-2-5-5-5-8-4-1 3-2 1 3 5v3l-1 3-3 3v2h3l3 4 2-1 2-2v-2l-3-1-1-6 4 4 4 5 1 1 2 1 3 5h3l4-3v2l-4 4 5 4h2v1l1-2z"/><path fill="#6aa07c" d="M276 65v-3l-2-4-2-2 2-2v-2l-6 5-3 4-2 2v2l-2 1 3 1 1 3h2l2 2 4-2z"/><path fill="#166e67" d="M276 70v1l-3 2-1 3 2-2h2v3l4 3 4-4 4-3V59l-2 2-6 5-1 3z"/><path fill="#4d7877" d="M240 89h-3l-4-3 2-4 3-4v-2h-2l6-8-2-4-2 4-3 2-2-2-1 6-2 1-1 6-3 3-2 1-1 3-1 1 2 1-1 5h2l-2 6-2 4-4 10-1 5-3 4v3l-1 7 2 2 1-7h3l2 1h1l-2-4v-3l-1-6 4 2h3l1-2h-1l1-5-3-4 1-6 3-4 1-4 2-2 2-5 3 2 1 3 3-2z"/><path fill="#5d5a27" d="M278 65h-2l-3 5-4 2-2-2h-1l1 5-2 2-3 4-3 1-1 3-3 4-1 3h-3l-3-3-2-4-2 4 3 1 2 4-1 6-7 7v3l-3 6-2 2-1 4-2 3 2 2 2-2 1 2 3-1 2-2-1 4 2-2h2l-3 5-1 1-1 3-1 5h1l2-4 3-4 1-4 3-4 3-5 2-4 4-4 1-3 4-5 3-3 1-3 2-2v-2l-5 5-1 3-2 1-3 5-4 5-3 4-2 5-2 2h-2l-4-3 1-1v-3l1-5h3l5-5 1-4v-3l1-3 2 2 2-2 3-1-2-4-1-3 11-11 3-5 4-2 1-1z"/><path fill="#55c1c4" d="M266 70h-1l-1-3-3-1-2 2-4 5 2 2-1 4-1-2-3 1-5 6-1 1 2 4 3 3h3l1-3 3-4 1-3 3-1 3-4 2-2z"/><path fill="#647249" d="m378 180 1-3v-6l1-4-1-9-1-4 1-4-1-4v-5l-2-5v-3l-1-5-1-4-1-5-6-18-2-4-1-5-3-4-2-5-2-2-2-6-3-4 1 5 2 4 1 5 3 4 2 6 2 4 2 5 1 4 3 5 1 6 1 4 1 5 1 4-2-3 1 4 2 1v5l2 4v11l1 4v17l-1 4v6l-1 4v1l2-3v-5z"/><path fill="#bba366" d="m310 108-2-1 2-3 1-3v-3l-3-5h-2l3 3v3l-1 2-2 2-5-4 2-5 2-2-2-4-2 2-1 4-2 1-5-4 2-2 1-3-2 2h-3v-7l1-5-5 1v3l-5 5-1-1-5 5 1 1 2 4 2 2-1 4-6 5-3 5-3 3v1l-1 3-6 8-1 2 1 7-3 2 4 1 4-4-1 3-1 2 3 1 3 4v1l3-3 5-6 6-6 3-1 3-3 12 10 4 4 3 5 3 2 1 3 4 5 2 5 3 4 2 6 2 4 1 5 1 4 1 5v1l1 6h-1v9l-1 4-1 2 1 3 1-3 2 2-1 6h-2l2 2-2 1-2 10-3 2h-3l-1-3-2 1-3 5-1 2 1 4 2 2-3 4-3 3-1-2-1 4-3 5h-3v2l1 2h2l2-4 1-3 4-2 6-6 1-3 1-1 2-3 3 4 3 1 2-3 2-2 1-3-5 4-2-4-1-1-1 3-1-3 4-2 1-4v-1l3-4 2-4 1-5h2l6 2 2-2-1-4 1-1 3-6 1-5v-1l1-4v-9h-2l-3-3 4-1 1-2v-3l-1-5-1-4-2 8-1-6-4-1v7l-1-3-4-2-1 2-1-1-2-4-1-6 2 2 1 5h2l3 2-1-7-2-4-1-5-2-4-1-6-2-2v2l-3 1-1-4-2-2-2-4h-3l-1-3h-2l1 3-5-5 3-3-1-1h-2l-4-4-1 3-3-4-6-5-5-5-3-1-4 3 1 4-2-2-4 4-6 5 2 2-5 1 2-3 4-5 3-2 1-3 2-1 6-5 4 2 6 5 2-6 2-1 2-2 5 4zm-62 42-1-1-1-4-1 4-3-2-4 1-1 6-1 4v2l-2 4 1 3v2l-2 4v6l2 1-1 7-1-4-1 1v5l2 1-1 4-1 1 2 5 4-1-1 7-2 1 1 3h5l-2 4-2 2 2 4 6-1 1-1 1 4-2-2v3l-2 3-2-3 1 5 5 1 4 2-1 2h-4l2 6 6-1v-5l5 5 2 4 2 2 4 2 4-5-3-3-4-5-3-4-2-5-2-2-1-5-4-8-1-6-1-5v-3l1-6-1-4 1-1 1-7 2-4 1-5 3-4 1-5 2-2h-1l-5-5-2 2-2 6-2 4v3l-1 1-2 6-2 10v3l1 10v5l-2-2-1-6-2 1 1 8-2-4-1-6-2-1 2-5v-7l1 4v8l4-1v-15l2-4 4-12 1-5z"/><path fill="#647249" d="M304 86h-1l-5-5-6-5-1 5v7h3l2-2-1 3-2 2 5 4 2-1 1-4 2-2 2 4-2 2-2 5 5 4 2-2 1-2v-3l-3-3h2l3 5v3l-1 3-2 3 2 1h5l3-1h2l1 3 1 2 3 3 3 5 3 4 1 2h1l-2-4-1-3-3-3-1-4-3-3 3-3 1-3-4 4-2-2-3-4-3-1-2-4-4-3-1-3-3-1z"/><path fill="#0b344c" d="m345 96-2-3-2-5-3-4-2-2-2 2-1 2-4 1v2l-2 2v3l1 1 3-3h3v3l-4 3 1 4-5-5-2-4h-2l-4-4-5-6-3-4h-3l-2 4-1 3 1 3 3 1 1 3 4 3 2 4 3 1 3 4 2 2 4-4-1 3-3 3 3 3 1 4 8 8v-3l1-2 3-2v3l2 2 1-3-4-4-2-5 3-1 4-1 4 3 1-1 4 3 1 5h-3l-1-4h-2l2 6 3 3v-3l4 1-1-4-2-4-1-4-3-4-2-5z"/><path fill="#647249" d="M219 96v-1l1-8-3 4-1 5-2 4-2 5-4 12-1 5-2 6v3l-2 4v6l-1 4-1 6 1 4-1 5v11l1 9-2 2h-1l2 4 2 1 1-3v-6l4-4-4 1v-21l1-4v-8l1-3v-6l2-4 1-6 2-4 1-7 2-2 1-5 2-5z"/><path fill="#6aa07c" d="m226 117 4-8 1-5 3-4 1-3 3-4 1-3-3 2-1-3-3-2-2 5-2 2-1 4-3 4-1 6 3 4-1 5z"/><path fill="#166e67" d="m220 130-2-1h-3l-1 7-2-2 1-7v-3l3-4 1-5 4-10 2-4 2-6h-2l1-5-2-1-2 5-3 6-2 5-1 5-2 2-1 7-2 4-1 6-2 4v6l-1 3 2 4 3 1 3 6h2l1-5v-3l1-6-2-2 3-1z"/><path fill="#55c1c4" d="m235 122 1-4 2-2 3-6v-3l7-7 1-6-2-4-3-1-3 4-2 4-3 4-1 5-2 2-1 4-3 1-1 4 1 4 2-3 2-2 1-3v3l-1 6z"/><path fill="#d9dbc1" d="M268 114v-1l3-3 3-5 6-5 1-4-2-2-2-4-5 5-2 4-3 1-3 3-4 5-1 3-4 4-2 4-3 5-3 4-1 4-3 4-2 4v1l5 2h3l6-12 3-4 3-5 3-4z"/><path fill="#647249" d="m366 152-1-5-1-4-1-7-2-6 3-1 1-3-4 1-1-1-2-4-2-5 2-1v-3h-2l-1 1-2-4-2-5-2-4-2-5h-2l2 4 2 5 3 4 1 4 2 4 1 4-4-1v3l3 3 2-4 1 6 2 4 1 5 1 4 1 5 1 4 1 7 1 5v5l1 4v14l1-3 1-4v-5l-1-9 2 2 1-4-2-2 2-3-1-4z"/><path fill="#6aa07c" d="m322 112-1-2-1-3h-2l-3 1h-5v2l-5-4-2 2-2 1-2 6-6-5-4-2-6 5-2 1-1 3-3 2-4 5-2 3 5-1-2-2 6-5 4-4 2 2-1-4 4-3 3 1 5 5 6 5 3 4 1-3 4 4h2l1 1-3 3 5 5-1-3h2l1 3h3l2 4 2 2 1 4 3-1v-2l2 2v-3l-3-4-1-3-4-5-2-5-4-4v-6l2-1v6l2 2 2-3v-3z"/><path fill="#166e67" d="m349 114 1 4h3l-1-5-4-3-1 1-4-3-4 1-3 1 2 5 4 4-1 3-2-2v-3l-3 2-1 2v3l-5-5 1 3 2 4 1 4v3l3 1 1 4v3l-2 1 1 3 1-3 2 1 2 4 1 5 2 4-5 1 3 2 1 1 1-3 1 5 1 4-7 1-2-4-1-8-2-4-2-5-2-2 1 6 2 4 1 5 2 4 1 7-3-2h-2l-1-5-2-2 1 6 2 4 1 1 1-2 4 2 1 3v-7l4 1 1 6 2-8 1 4 1 5v3l-1 2-4 1 3 3h2v9l-1 4v1l1-1 4-5 1-3-2-2h5l1-5-2-2-1 5-1-4h-3l-1-1 1-1 5-1 1-3 4-1 1-4 1 3 3 1-1-3-1-4v-6l-3-1h-3l2-1 1-2-1-4-1-1 1-2-4-1 3-2 1-2-2-4-1-5 2-1-1-4-1-1-1 2-2-4-5 1-1-1 5-2-1-4-3-3-2-6zm-8 8 1 3 3 1 1 5 1 3 1 1 2 5 2 4-2 4-2-3-4 1-3-5-2-5-2-4v-3l4-3-1-4zm-150 55h1l-2-4-12-10-2-2-4-3-2-2-5-2-5-5-3-1-8-6-5-3-4-2v3l1 2 5 3v1l5 2 2 2h3l4 3v2l4 2 3 3 5 4 3 2h2l-1 3-2-2-5-3-3-3-5-3h-2l-2 6 4 2v4l4 2-5 5-4 1v-3h3l2-2-4-3-2-2-3 3 1-3v-3l-1-1-3-1-1 1-3 4 3 1-1 1-2 1 2 2 3 1-3 1-2 5-2 4-2-2-3-1-4-3-2 1 4 3 6 2 4 3 4 2 4 3 1 1 4 2 5 3 2 1 5 2 1 2 4 3 3 2 3-6h2l6 6h2l-5-5 2-3h3l-2 4 3 1h3l-3-5-3-3v-3h-2l-2-2v-2l3-4 1-3-4-4-1-3 2-3 3 4z"/><path fill="#bba366" d="M333 126h-1l-1-2-3-4-3-5-3-3 1 3v3l-2 3-2-2v-6l-2 1v6l4 4 2 5 4 5 1 3 3 4v3l2 2 2 5 2 4 1 8 2 4 7-1-1-4-1-5-1 3-1-1-3-2 5-1-2-4-1-5-2-4-2-1-1 3-1-3 2-1v-3l-1-4-3-1v-3zm-167 73-2-1-5-3-4-2-5-1-1 5v2l2 2 1 2 3 1 5 4h3l4 1 2-4v3l-2 3h-6l-6-2-2-1-2 3-1-2-5-1-4-1v7l5 2 6 2 5 2 4 2 5 2 2 2 5 3 5 6 1 1 2 1 4 5 3 5 4 8 2 6 1 5v2l1 4v11l-1 4 1 1v-4l1-3 2-2-2-2v-10l-1-5h3l-1-6-2-4-1-5-3-4v-3l3 4 2 5 2 4 1 6 2 4 1 5 5-1-1-6-2-6v-3l-2-3v-3l-2-4-2-2-2-5-3-4-1-3-3-4-5-6-3-3-5-6-6-5z"/><path fill="#6aa07c" d="M235 122h-2l1-6v-3l-1 3-2 2-2 3-1-4-1 4-1 5 1 3 4 1-2 3h-2v9h5l3 1-3-3-2-4 2-4 1 3 1-5 3-2 4 3 1 1 1-1 3-5h-2l-2 2 1-4-2 2-3 1-1-2-2 2-2-2zm-3 10"/><g fill="#647249"><path d="m260 127 1-2 6-8 1-3-4 4-3 4-3 5-3 4-6 12h-3l-5-2v-1h-1l1-5h-2l-1 3-2 4v5l-2 4h-3l-4-1 1 2 4 2v3l-1 4-4-1 1 2 3 1-1 7-6-2 1 1v3l-2 4h-2l1 3h2v8l3 1 2 2h1v-9l-3-1 4-2v-6l-3 3-1-3 4-1 1-5 1-4 1-5 2-8 2-1 4-1 3 2 1-4 1 4 1 1 1-5 3-1 1-7 3-1v-3l2-4zm141 174h-2l-4 3-6 1-1-7-1-5-1-4v-5h5l1-3h-6l-1-4-4 1-2-2 1-3h3l-2-2-3 2v15l-2 2h-4v7l-3 1-1 2-2-2h-1l1 3h5v5l-2 2 4 2 1-3 2 2-2 1v8h3l4-1-2 5-3 5-2 5-2 2-1 4 2-2 2-4 6-6v3l-2 2v2l-3 1-3 5h1l4-4 2 4 2 2h1l1 1 3-3-2-1 6-6-1-4-2-1v-1l3-2 1 5h3l3-1 1-2-1-4-1-3 3-1 3-3 5-2 2-2 4-2 3-1h1v1l1 2 2 2 5-3-1-6 4-4v-2l-4 2-2 2-3-1-1-4-1 3-4 4h3v2l-5 2 1-5-5-1 3 6-2 2-2-4-4 2-1-4zm-13 26"/><path d="M215 175v-11l2-14 1-4 1-9 2-4 1-5 2-4 1-5h-3l-4-2 1 6v3l2 4h-1l-2 6-3 1 2 2-1 6v3l-1 5h-2l-3-6v5l4 4-1 4-2-2-2-3-1 2-3 1v8l2-1 3-1 1-4 3 2v5l-2 2v10l2 8-2 1 2 2 1 5-2-2-2-1-2-2v6h-1l1 2 3-1 1-1 3 1 1 5 2 4 2 5 2 6h2v-3l-1-1-1-2-3-4-1-5-2-4 2-2v-5l-2 2-2-4 1-4-1-1-1-5z"/></g><path fill="#6aa07c" d="m480 121-1-3-5-1-4 2-6 2-4 2-5 2-4 2-4 3-5 2v1l1 1-4 3 3 1-1 1 5-1 1-2 4-1 5-3 5-5 5-2 4-3 5-1-2 5 3-3h3z"/><path fill="#166e67" d="m473 126 2-5-5 1-4 3-5 2-5 5-5 3-4 1-1 2-5 1-1 3-5 3-2 2 3 4h3l4-2h1l-1 2h1l2-2 3-1-3-2 4-2 2-2 4-2 4-3h2l-2-5 1-1 4-3 4-1 1 1z"/><path fill="#d9dbc1" d="m107 123-4-1-3 1v2l1 1 2 1-1 6-2 4-1 8-2 4 2 2 5 1 2-5 1-8v-3l-1-4-1-2v-3l-1-2z"/><path fill="#0b344c" d="M341 122h-1l1 4-4 3v3l2 4 2 5 3 5 4-1 2 3 2-4-2-4-2-5-1-1-1-3-1-5-3-1z"/><path fill="#082c24" d="M367 180v-9l-1-4v-5l-1-5-1-7-1-4-1-5-1-4-1-5-2-4-1-6-2 4-3-3 1 4-5 2 1 1 5-1 2 4 1-2 1 1 1 4-2 1 1 5 2 4-1 2-3 2 4 1-1 2 1 1 1 4-1 2-2 1h3l3 1v6l1 4 1 3v3z"/><g fill="#4d7877"><path d="m140 137-1-1h-3l-2-2-3-1-5-3-4-2-6-2-4-2-5-1-3 2 1 2 6 5 2-2 5 3 4 2-2 6h2l3-4 4 4-2 4v2l2-1 1-3 4-1 2 2 3 2-3 4-2 2 5 2h3l2 2-4-1-1 1h-3l-5 4h-1l5 6 4 1h4l2 1 3-4 1-1 3 1 4 1-2-2-1-3h2l2-2v-3l-2-2-3-1-6-6v-1l-5-3-1-2z"/><path d="m106 132 1 4v3l-1 8-2 5-5-1-2-2 2-4 1-8 2-4 1-6-2-1-1-1-1 4-5 25-1 9-1 7v3l2-4 1 1v5l-1 4 6 1v-7l1-4 2-3v-5l2-4h1l1-5 1-4v-6l3-1 8 8 1 3 3 1 2-4-1-1h-3l-2-4-2 2-1-4-4-2-2-2-1-5-2-2z"/></g><path fill="#166e67" d="M329 188v-1l-1-5-1-4-1-5-2-4-2-6-3-4-2-5-4-5-1-3-3-2-3-5-4-4-12-10-3 3h3l-2 2h1l1 4v7l-1 1h5l1-4 3 1-1 5h2l2-5 2 2-2 4-3 4 2 1v2l2-2 4 2 3-5v3l-3 5-3-1-3 3 2 2v3l-2-1-1 1-2 1 3 3 1-1h3l3-3v-2l1-3 3-1 3-2 2 2-5 5 5 2 1 3 4-2-3 3-4 2 3 1 2 2 3 1v3l4 2-1 3-5 1v1h6l1 1zm-102-46v-9h2l2-3-4-1-1-3-2 2-1 5v3l-3 4 2 1-1 9h-3l4 8-3 3v-7l-2 2v6h4l2-1v-7l1-1 1-2 1-4z"/><path fill="#6aa07c" d="m126 409-3-1-2-2-5-3-4 3 5 4 5 3h3l1-3 3 3v3l1 1 4 3h1l1-5 6 1-3-1-1-3v-3l-1 3-4-2h-3z"/><path fill="#55c1c4" d="M130 160h1l5-4h3l1-1 4 1-2-2h-3l-5-2 2-2 3-4-3-2-2-2-4 1-1 3-2 1v-2l2-4-4-4-3 4h-2l2-6-4-2-5-3-2 2-6-5v3l1 2 1-1 2 2 1 5 2 2 4 2 1 4 2-2 2 4h3l1 1-2 4-3-1-1-3-8-8-3 1v6l-1 4-1 5h-1v6h2l1-3 3 3 2-4 1-5 3 3 8 4 2-3 1 2z"/><path fill="#d9dbc1" d="m262 137-4-1 3-2-1-7-2 2-2 4v3l-3 1-1 7-3 1-1 5 2 5 4-4 2-5 3-4z"/><path fill="#4d7877" d="M289 130h-1l2-2h-3l-3 1-6 6-5 6-3 3-3 4-3 5-3 4-2 2-1 5-3 4-1 5-2 4-1 7-1 1 1 4-1 6v3l1 5 1 6 4 8 1 5 2 2 2 5 3 4 4 5 3 3 6 5 1 1h1l2-3 2-2 3 2 1 3v3l1-3h3v-6l1-4v5l2-3-1-5-1-1-2 1-5-5h-1l-5-4-5-5-3-4-2-2-5 2-1-3-2 4h-5v-2h2v-3l2-4v-12l-1 1-1-4-2-1 1 5-4 2-1-4v-6l1-4v-5l2-5 1-1 3 3v-3l4 1h3l4 3 1-2-2-2 1-5h-3l-1-1-4-1v-3l-1-1-2 2 1-4 3-4 2 2 2-3 1-3 4 1-1-1v-3l1-1 3-1v-1l2-4 2-1 1 3v3l1 1v-3l2-1-1-5 2-1 2 2h2l-1-6zm154 21 1-2h-1l-4 2h-3l-3-4-1 4-3 1-4 4 2 2v3l-1 1-2-2-1 3-5 1-1 3-2-4-2 3h-2l-1 4-1 1 1 2 3-1 4-4 1 1-6 5-4 2-4 4 3-1h2l1 3 1 4 2-2v-1l-3-4 5-6h3l1-3 5-3 2-2v-1h3l4-4 3-1 5-4z"/><path fill="#082c24" d="M478 236v-2l2-4v-5l1-4v-13l1-4v-10l-1-4v-5l-1-4v-5l-1-4-1-8-3-15-1-7 1-1 6-1 2 3-1-8-2-4 1 6-1 1-4 1-4-2 1-7v-3l-3 4-5 6 1 1-2 2-5 3-2 2-4 5 2 6h3l4-2 2-2 1-5 4-8v3l-1 5 2 4 2 3 1-5 1 4 1 5 1 4-3 3 4 1 1 5v8l1 1v17l-2 2h2l1 1v3l-2 1 1 2 1 4-1 2h-3l-2 4h-3l2 2-2 2v5l1-1 2-4 1 3 1-1 2 4h-3l-1 4v5l2-4 1-4v9Z"/><path fill="#166e67" d="m232 132-2 4 2 4 3 3-3-1h-4l-1 8 4 1h3l2-4v-5l2-4 1-3h2l1-3-1-1-4-3-3 2-1 5zm203 34-5 1-1-3h-3v1l3 3-1 5-3 1-2 3-6 5-4 3v-1l-7 7 1 3 2-2 4-2 2 4 2-2v-5l5-3h3l-1-5 4-3 5-3v-3z"/><path fill="#55c1c4" d="m289 142 1-1v-7l-1-4-2 5 1 6h-2l-2-2-2 1 1 5-2 1v3l-1-1v-3l-1-3-2 1-2 4v1l-3 1-1 1v3l1 1h1l1 2v3l3-2v-4l4-1 3-3v-2z"/><path fill="#647249" d="m264 138 1-2 1-3-4 4-3 5-3 4-2 5-4 4-1 5-4 12-2 4v15l-4 1v-8l-1-4v7l-2 5 2 1 1 6 2 4-1-8 2-1 1 6 2 2v-5l-1-10v-3l2-10 2-6 1-1v-3l2-4 2-6 2-2 1-3 3-5 2-1 1-3z"/><path fill="#166e67" d="m441 139 1-1-3-1 4-3-1-1-6 2-2 2-5 2-3 3-8 6-4 2-2 2-4 3-6 5-3 3-6 5-5 6-5 5-4 1h-1l-1 2 3 3h3l1-3 4-3 2-2-1 4-2 1-2 4-3 4v1l2 1 1 4v3l-1-1h-2l-1 7h2l2-3 2-2 1-3-1-1v-3l2-5h6l-1 3 3-3 3-4h-5l-2-2 4-5h3l1 3 1-3 4-5-2-2 1-3-5 5-3 1 4-4 5-6 7-7 5-4h3l4-3 1-3 4-2h3l1-3 2-2z"/><path fill="#d9dbc1" d="M270 144v-1l-3-4-3-1-2 2-1 3-2 1-3 5-1 3 5 5h1l3-4 3-5z"/><path fill="#6aa07c" d="m297 163 2-1 1-1 2 1v-3l-2-2 3-3 3 1 3-5v-3l-3 5-4-2-2 2v-2l-2-1 3-4 2-4-2-2-2 5h-2l1-5-3-1-1 4h-5l-5 5v2l-3 3-1 6 2 2 1 3 5-4h1l1-1 3 1z"/><path fill="#bba366" d="m433 147 2-2 5-3 1-3h-5l-2 2-1 3h-3l-4 2-1 3-4 3h-3l-5 4-7 7-5 6-4 4 3-1 5-5h1l4-3 6-5 5-4 3-2 5-4z"/><path fill="#0b344c" d="m210 147-3-1-2-4v8l-1 4v21l4-1-4 4v1l1 4 1 8 1 4 1 1h1v-6l2 2 2 1 2 2-1-5-2-2 2-1-2-8v-10l2-2v-5l-3-2-1 4-3 1-2 1v-8l3-1 1-2 2 3 2 2 1-4-4-4z"/><path fill="#6aa07c" d="m152 164 1 1v3l-1 3 3-3 2 2 4 3-2 2h-3v3l4-1 5-5-4-2v-4l-4-2 2-6h2l5 3 3 3 5 3 2 2 1-3h-2l-3-2-5-4-3-3-4-2v-2l-4-3h-3l-2-2-5-2 6 6 3 1 2 2v3l-2 2h-2l1 3 2 2z"/><path fill="#0b344c" d="m408 176 4-2 6-5-1-1-4 4-3 1-1-2 1-1 1-4h2l2-3 2 4 1-3 5-1 1-3 2 2 1-1v-3l-2-2 4-4 3-1 1-4-4 2-5 4-3 2-5 4-6 5-4 3h-1l-1 3 2 2 2 1zm65 60v2h-2l-1-4-1 3-2 1v-9h2l2 4 2-6-2-1-1-1-1 1-2 1v-19l2-1-3-1v23l-4 1 3 1v9l-1 6-1 4v5h-2l-2 6v7l-2 2-2 4 1 1 2 1 3 1 3-6 4-5v-3l3-2 1-4-2-2 3-1 1-8 2-4-1-4 2-2v-9l-1 4-2 4zm-209 59h-1v3l-1 1-2-4-2-5-1-1-1-3h-2v2l1 3-5-1-1 2-2-2-2-1-1-3-1-4-1 4 1 4 2 4 1 8h-5l-2-4-3 3-4-1-1 1v3l-1 2-4-4-3 4v3l-1 5v4l1 4v5l1 4 1 7 2 5 1 2 2 1-2 4 2 4 1 3v2l2 4 2 2v3l2 4 2 5 2 4 4 3 1 6 1 1h5l-3 3 2 5 4 4 4-1v-1l2 3-5 2 1 4 2 2 5-1v6l5-1-1 2-3 1 1 4 3 3v3h4v-4l2 1 1 5 2 4 1 6-1-1h-2l1 4 2 1 2 4 1 1h1v6h2l-1-7-1-5h2l4-1v-9l-2-1 2-1-2-5 2-2-1-4v-2l1-4-2-4 2-2-1-7h-5v-5h-1v5l-2 1 1-8-2-1-4-1h2l1-4v-5h-3l-1-1 2-2 1-5-3-1v-3l-1-8 4 1-2 2 5-1-2-3-5-1-1-6-1-4-1-7 2-4-4 1-1-1 2 4v8h-7l-3-6 3-4 1-1-1-4 4 1-1-5h2l2-10-3 2-1 4-2 1-2-2-2 2 2 4v6l-3 1-2-4-2 2v3l2-2 2 5h-2l-3 3-5-2 1 4 2 6-2 1v-3l-2-4-1-3-1 1 2 4v5l-4 1-2-3-2-6-2-4-1-3-1-5 7-1 1-3-2-5 1-4 1 1v-3l-1-3 2-2-2-2-4-2 4-1-1-5 1-4h3l2 2 1 5-3 3 2 4 1 7 3 3 1 3 1-4-3-2v-2l-2-2-1-6 3-2 1-1v-3l-3-2 1-7 1-1v-5h6l1 5-2 2 1 2h2l2-1 3 3-1-4h3l2 1-2-4zm-11 93-1-1v-3zm0 0v3h-1zm5 11-1-1v-3zm-1-50 2 1 1 5h2l1 1 6-2 1 4v2l2 4-4 3-4-4-1-6-1 4 1 4v3l-4 1-1-4-1 2-2-4-1-5 3-1-2-1-2-5 4-1zm13 18 2 1v5l1 4-1 5-4-2 1 5h3v7h-3l-5-2-1-6-2-4 2-2-3-3 2-1h3l2 4 1-1-2-6 2-3z"/><path fill="#166e67" d="M474 235v-5l1-4h3l-2-4-1 1-1-3-2 4-1 1v-5l2-2-2-2h3l2-4h3l1-2-1-4-1-2 2-1v-3l-1-1h-2l2-2v-17l-1-1v-8l-1-5-4-1 3-3-1-4-1-5-1-4-1 5-2-3-2-4-2 4-1 3-2 2v3l-1 6-2 2-1 5-6 2-8 4-4 3-5 2 2 1 6-3 4-3 6-2 4-2 1 5 2 4v5l2 3v3l1 7 1 5-1 1 2 4v-5l3 1-2 1v19l2-1 1-1 1 1 2 1-2 6-2-4h-2v9l2-1 1-3 1 4h2v-2zm-339 69-4-2-5-2 1 5 5 2 4 2 5 2h-3l-5-1-1 1-1 5h2l1-3 4 3 1 4-3 2 6 2 4 2 5 3 4 2h-3l-4-2-1 6v2l2 2h-2l4 3 5 2 2 4-1 4h6l-2-3 3 1 5 6 2 2 4 3 8 8v2h-2v2l2 1 2 5-5 1 4 2 1-1 1 1 2 4 2 5 2 4 1 5 2 4 1 4h1l3-4-2-2-1-4-2-2-2-4 1-1-1-3-3-4v-2l5-1v-3l1-4 6 5v3h3l2 4v3h-3v5l-3-3 1-4-2 2h-2v3l2 2-2 2 2 2 1-1 4 1v-2l4-2 1-3 4 1 2 4v2h2l4 4 1 3 5 5v-2l-3-4-4-4 2-6-2 1-3 1v-3h-1l-3-3 2-4-3-4-2 2-4-1 2-1 2-2-2-1-1-1-3 2-1-3v-6l-6-5v2l2 2-5-1-6-5-2-2-5-6-2-2-1-3 1 1 3 1h3l4-8 3 2 1-2-2-2-1-5-3-4h-1l-4-3-10-8-4-3-3-2-3-3-5-2-4-4h-2l-2-2-2-1-6-2h-1l-5 1z"/><path fill="#5d5a27" d="m259 238-5-5v5l-6 1-2-6h4l1-2-4-2-5-1-1-5 2 3 2-3v-3l2 2-1-4-1 1-6 1-2-4 2-2 2-4h-5l-1-3 2-1 1-7-4 1-2-5 1-1 1-4-2-1v-5l1-1 1 4 1-7-2-1v-6l2-4v-2l-1-3 2-4v-2l1-4 1-6-2 1-2 8-1 5-1 4-1 5-4 1 1 3 3-3v6l-4 2 3 1v15l-1 3h-5l1 1 6 1-1 2h-2l-1 1v3l3 6 2-1h2l1 5v3h-2l1 2 4-1 1 5 2 3-2 1 4 1 2 6 2 2 3 5-3 1h3l2 2h-5l-2 3-1-1h-1l-4 2 3 1-1 6 2 1 2-1h3l2-2 2-1 5-1 1-1-1-1-1-4-3-2-1-5 2 3h2zm-11 15 2 2v1h-1z"/><path fill="#166e67" d="M284 149v-1l-1 2-2 2-4 1v4l-3 2v-3l-1-2h-1l1 4-2 2-3 4 2 3 3-1 1-4 4 1 2 4-3 1-2 6-3 4v3l4 3 2 2 2-2 1-3-4-8 4-4 5-6 3-1v-3h-1l-5 4-1-3-2-2 1-6zm-37 121v-1l-2-2-1-3-5-5-5-6-2-2-5-6h-3l3 4 2 6 3 4 1 4h3v-3h2v3l-1 2-3 1 6 10 3 3 1-2 4-1z"/><g fill="#0b344c"><path d="M376 154v1l-1 4h-3v-6l-3-1h-3l4 1 1 4-2 3 2 2-1 4-2-2 1 9v5l-1 4-1 3v-5l-1-2v-3l-3-1-1-3-1 4-4 1-1 3-5 1-1 1 1 1h3l1 4 1-5 2 2-1 5h-5l2 2-1 3-4 5-1 1-1 5-3 6-1 1 1 4-1 6-2 4-3 3-3 4-2 2-4-4v-1h-1l-1 4-4 2 1 3 1-3 1 1 2 4 5-4-1 3-2 2-2 3-2 4-3 4 1 2 1 1 4 2 1-2 3-4 2-4 2-1-1 4 2 4v2h1l2-2 3-4-2-3-2-4v-3l2-2 2-5h-1l-1-3h3l2-2 2-3 3-4 2-5 1-7 2-4h3l1-4 1-3 2 3h3l2 2h-1v3l2-1h2l1-6 2-4v-6l1-4v-6l1-4v-17zm-48 221 1-3 2-4 1-5 2-4 1-3 2-4-1-4-2 3-1 4-2-2v-5l-1 3h-3l-2 4-1 6-2-2h-5l-3 2v3l6 1-1 2-5-2-1 1-2 1-4 3-1-4v-3l-2 10-1 9-2 8v3l2-1 1-3h2l-1 9h-1l4 1 2-6 1-5 2 3v2l-2 1-1 6v3l-1 4-1 9-4 8v5l-2 4-2 3-1 7-2 4 1 2 1-1 1-5 3-3 2-4-1-4h2l1-5h1l1 3 1-3v-3l1-6-1-1-1-3 3 2h3l1 1 2-2-3-1v-3l-1-4h1l3-3v-3l-3-3 3 1 2-2 2-6 2-4 1-4 2-4zm-15 24v-1h2zm0 7h-1v-3zm0 0"/><path d="m344 353 2-2-6-2-3 5-1 5 3 1-4 1-2 6-4 8 1 2 5-1 2 2h1v-1l1-5 2 2 1-3h2l2-2v-5l2-1 1-2 3-4-4-1-2-2-3 2v-2zm-5 19h-2v-3l2-2z"/></g><path fill="#082c24" d="m454 172 2-1-2-5 3-3 4-1 1-5-4 3-4 2h-3l3-1v-2l-1-6-2-2-4 4-5 3-1 3-6 5-2 4 6-2 5-4 2-3h2l1-1 1 4-2 2 4 1z"/><path fill="#55c1c4" d="m276 171 1-3 3-1-2-4-4-1-1 4-3 1-2-3 3-4 2-2-1-4-4-1-1 3-2 3-2-2-3 4-1 4 2-2 1 1v3l4 1 1 1h3l-1 5 2 2z"/><path fill="#0b344c" d="M130 160h-2l-1-2-2 3-8-4-3-3-1 5-2 4-3-3-1 3h-2v-6l-2 4v5l-2 3-1 4v29l-2-1v-8l-3 1 1 6v2h-3l-1 4 1 2h3l3-1 1-3v14l1 4 1 9 2 4v-11l1-5 3-1-2-2v-9l1-5v-2l2-2-1-5-2 2-1 4v6l-1 4v2h-3v-23h2l6 3v-5l2-4v-3l2-2h-1l-1-3v-3l-3 9-1 4-1 3-4-1v-7l1-4v-7l4-2 4 2 1 1 2-4 1-5h2l5 1 4 3 6 1 4 3v3l4 1 6 2 1 1 3-1-3-1-2-2 2-1 1-1-3-1-2-1h-4l-4-1z"/><path fill="#6aa07c" d="M320 183v-1l5-1 1-3-4-2v-3l-3-1-2-2-3-1 4-2 3-3-4 2-1-3-5-2 5-5-2-2-3 2-3 1-1 3v2l-3 3h-3l-1 1 4 3 3 4 2 3 5-4h2v3l1 5h-5v3l2 2v-1zm86 46v-3l2-2 1-3 3-3 4-2h4l1-2h3l1-3 3-2-3-1-4 3-5 2-2 2-4-1-2-5 2-4-4 1-2 2h-2l5-5v-3l-1-3h-3l-5 6-8 8-5 6-3 4v2l3 3h-3l-4 1-2 2-1 5 1 1 5 1 1-5 3-3 3-5 3-2v6h-1l3 4v2l4-1 2-2 5-4 1 5z"/><path fill="#082c24" d="m297 163-4-4-3-1-1 1v3l2 1v12l4 2 3 4h-2l-3-3-4-2v2l1 4-1 3-2-2-3-2-1 5 1 4h-3l-1-5h-1l-1 1 2 6 2 2-3 3v3l-3 3 2 5 3 3-3 1 4 4h1l-4 5 1 1 6-5 1-3 3-3 2 2 3 5 5 5-2 2-6 5-4 1-1-2h-2l5 5 2-1 2-3 3-1 7-7 1-3-5-1h-1l-5-5 2-2 5-6 2-4-6-6v-2l1-3v-3l2-4 1-3v-3l1-1 3 1h3l1-1-2-3-3-4-4-3z"/><path fill="#55c1c4" d="m121 173-1-3-2-4-1-6h-2l-1 5-2 4-1-1-4-2-4 2v7l-1 4v7l4 1 1-3 1-4 3-9v3l1 3h1l2 1 4-1z"/><path fill="#4d7877" d="m454 172-2-5-4-1 2-2-1-4-1 1h-2l-2 3-5 4-6 2v3l-5 3-4 3 1 5h-3l-5 3v5l-2 2-2-4-4 2-2 2 1 3 2 4 4-3 3-3 4-2 4-3h3l1 1h3l4-4-1-1 3-2-2-1 5-2 4-3 4-2 1-1z"/><path fill="#6aa07c" d="m147 175-1-1-6-2-4-1v-3l-4-3-6-1-4-3-5-1 1 6 2 4 1 3 5 1 4 3-1 1 3 1 2-1 4 3 3 1 2 2 2-4z"/><path fill="#0b344c" d="M279 185h1l1 5h3l-1-4 1-5 3 2 2 2 1-3-1-4v-2l4 2 3 3h2l-3-4-4-2v-12l-2-1-3 1-5 6-4 4 4 8-1 3z"/><path fill="#647249" d="m480 265 1-2 1-5 2-4 1-6 2-4 1-6 1-5 1-7 1-4v-11l1-4-1-4 1-5-1-4v-17l-1-4-1-10-1 1v5l-1 4 1 5 1 4v21l1 4-1 5v6l-1 4v6h-1l-1 4-1-1v11l-2 2-1 5 1 4-2 4-2 6-1 1 1 1z"/><path fill="#55c1c4" d="M413 184v1l4-3 6-5 2-3 3-1 1-5-3-3-2 2-5 3-1 3h-3l-5 6 3 4z"/><path fill="#647249" d="m100 180-6-1 1-4v-5l-1-1-2 4-1 4-1 5v38l1 7v3l1 7 1 4 1 2 2 3v-8l-2-5 1-4-1-1-1-4-1-5v-8l2-2 5 1v5h-3l-1 4h2l2-1 1 6-1 4 2 2 1 5 1 4 1-4-2-4-1-9-1-4v-14l-1 3-3 1h-3l-1-2 1-4h3v-2l-1-6 3-1v8l2 1zm79 56-1-1-5-6-5-3-2-2-5-2-4-2-5-2-6-2-5-2v-7l4 1 5 1 1 2 2-3-6-2-3-2h-3l-5-1h-3l-1 6-2 2v2l-1 5 1-1 2-6 2-1 1-2 5 5-1 5-2 4v5l-2 4v7l-1 4v9l2 4v-9l1-4 1-3v-3l-1-2 4-1 4 2h3v-3l-1-3 3 3 5-1 1-3h-10l-2 4-4-2 1-5 2-2-1-4 4 4 1-2h5l3 2h3l6 2v5l3-3 2 2 3 2 1 2 3 1 2 2z"/><path fill="#0b344c" d="m278 186-2-2-4-3v-3l3-4 1-3-5 5-1 2-1 3-4 8v12l1 4 1 5 2 4 2 2 3 4 5 5 5 4h1l-4-4-1-3-1-1 4-5h-1l-4-4 3-1-3-3-2-5 3-3v-3l3-3-2-2zm36-1-2-2v-3h5l-1-5v-3h-2l-5 4-1 1h-3l-3-1-1 1v3l-1 3-2 4v3l-1 3v2l6 6-2 4-5 6-2 2 5 5h1v-1l3-4 3 2v3l2-2 3-4 2-4 2-6 1 3 2 1 2-4 1 1 4 1 1-3 2-1-1 6-3 1-2 2-1 2-1-3-2 2v3l1 1h5v-5h3l1-2 1-4v-9l-1 1-1 4-4-2-1-4-1 6-1-1-4-1-1-3zm-208 55v-4l-2-1-1 4-1-4-1-5-2-2 1-4-1-6-2 1h-2l1-4h3v-5l-5-1-2 2v8l1 5 1 4 1 1-1 4 2 5v8l-2-3 1 6 1 4 1 3 2 4 1 6 1 1 2 6 2 4h1l-2-6h3l2 4v3l1 1 1-1 3 3 1-3h2v-2l3 4 1 1 2 4 2 2 3 4v3h-2l4 4 4 2v-2l-2-1 4-1 2 3v2l4 3 6 2 1 1h1l4 2 1 1 4 1 4 4h2l1-1 1-2v-1l-1-4-3-1-4-3-4-2-4-3-4-2-5-4-2-2-6-5-3-5-1-1-3-4-2-5-3-4-1-3-2-5-3-1-1-2-4 1-2-2 2-1-2-4-2-2zm208 49h-3l-1-1-2 1-2 4-1-1h-3l-1 1-1 6 3 2v2h1l4 2 3-3 1-5 3-3v-4zm-8 4-1 4h-1zm-59 131v-1l-2-6-3-2-1-3-4-4-1-3-2-1-2-5 3-1 1-4-4 4-4-2-2-4-2-1-3 9 4 4 3 4v2l-5-5-1-3-4-4h-2v-2l-2-4-4-1-1 3-4 2v2l-4-1-1 1-2-2 2-2-2-2v-3h2l2-2-1 4 3 3v-5h3v-3l-2-4h-3v-3l-6-5-1 4v3l-5 1v2l3 4 1 3-1 1 2 4 2 2 1 4 2 2-3 4h-1l2 4 1-2 2-2h3l5 5 2 4 3 2 1 3 3 4 2 4 3-4 2-4 3 3 2 6-2-2-4-1 2 2v2l-3 2 2 2-4 1 1 3 4-1h2l3 5 2 4 1 1 5-1 3 3h3l3 2 2-4 3 3-3 1 1 1 5-1 2 3v-3l-3-3-1-3v-2l2 2 2 4 5 5h2v3l3 3-3-1-3-3v3l3 2 1 2h8l-3 4h-2v2h5l4 2h1l-1-4 3 1 2 2v4l4-1-1-2-3-5h-3l-2-4-2-2v-3l-2-1-1-4v-3l-2 3h-3l-1-3-2-1-2-3-1-5 3-1-1-4-2 4h-3l-2-4 3-1 1-1v-3h-3v2l-3 2-1-5-3-4-1-3zm-19 1v-3h3l2 2 3-3-3-1-2-6v-1l5-2-1 3-1 1 2 5 2 2 4-2-1 1 2 4 1 6 2 2-1 1-2-2-1 4-3 1h-2l-3-3v-2l5-3v-3l-2-2-3 3h-3z"/><path fill="#55c1c4" d="M408 176v-3l-2-1-4 5-1 3-1-3h-3l-4 5 2 2h5l-3 4-3 3 1-3h-6l-2 5v3l1 1 4-4v3l-1 4 4 2 1-2 6-5-1-4-2-1v-3l4 4h3l5-5-1-4-1-3h-2l-3 1z"/><path fill="#5d5a27" d="m129 178 1-1-4-3-5-1-2 4-4 1-2-1-2 2v3l1 4 1 5 2-1-2-8v-3l6 1-1 6-1 4-1 5-1 8h-1v15h1l2-10-1-1 1-4 1-9h3l-2-3 1-4 1-6 1-4 1 1z"/><path fill="#6aa07c" d="m270 178-4-3h-3l-4-1v3l-3-3-1 1-2 5v5l-1 4v6l1 4 4-2-1-5 2 1 1 4 1-1v12l-2 4v3h-2v2h5l2-4 1 3 5-2-2-4-1-5-1-4v-12l4-8zm43 59h-1v-3l-2 2-3-2h-3l-4 3-2-4-3-1 2-3-3 1-2 3 1 1 1 5-2 3v-5l-1 4v6h-3l-1 3v-3l-1-3-3-2-2 2-2 3h-1l5 6 4 5h6v-1l3-3 5-6 4-3 2-2h3v3l1 3 2-2 3-4-2-2z"/><path fill="#bba366" d="m466 211-2-4 1-1-1-5-1-7v-3l-2-3v-5l-2-4-1-5-4 2 1 1-1 5-2 2-2 4 1 1 2 1 1 3 1 1-1 5 2 4 1 10 1 9v7l-1-1h-3l-2 2-4-2-2 4v18l-1 7-2 3-1 3-1 5 4 1 2-3-2-2 1-1h3l1-6 1-1v3l3 2 5 1v-1l2-6v-1l-3-1h-3l-3 2 1-5 1-4v-7h2l-1-4-2 2 1-4h3v7h8v-9l-3-1 4-1z"/><path fill="#d9dbc1" d="m132 179-3-1h-6l-1-1-1 4-1 6-1 4 2 3h-3l-1 9-1 4 1 1-2 10 1 5-1 4v2h9v-19l-4-1 4-1 2-8 1-10 7 1h3l1-5-2-4z"/><path fill="#6aa07c" d="M446 235v-3l2-4 4 2 2-2h3l1 1v-7l-1-9-1-10-2-4 1-5-1-1-1-3-2-1-1-1 2-4 2-2 1-5-1-1-6 2-4 3-2 1 2 1-1 3-2 2 4-1-2 4 4-2v3l-4 3h3l2-1 2-4v3l2 2 1 5v4l2 4 1 9v8l-4-1v-6l-1-4-2-5-1-6-5-1-3 2-4 3-1-1v-2l-5 2-1 4h3l1-2h3l5-1 2-2 2 1-2 5-3 3 2 4 1 7 2 4v6z"/><path fill="#4d7877" d="M114 203h1l1-8 1-5 1-4 1-6-6-1v3l2 8-2 1-1-5-1-4-2 4v5l-6-3h-2v23h3v-2l1-4v-6l1-4 2-2 1 5-2 2v2z"/><path fill="#6aa07c" d="m155 193-1-1-4-3-4-2-4-3-6-2 2 4-1 5h-3l-7-1-1 10-2 8-4 1 4 1v19h-1l1 6 1 10 1 1 1-5v-9l-2 2v-18l1-7 1-5 1-4 1-7h5l4 3 5 1v5l2-3 6 2-2-2v-2l1-5z"/><path fill="#4d7877" d="m329 188-2-4-1-1h-6l-6 1v1l1 9 1 3 4 1 1 1 1-6 1 4 4 2 1-4 1-1h1z"/><path fill="#bba366" d="m440 214 3-3 2-5-2-1-2 2-5 1h-3l-1 2h-3l1-4 5-2v2l1 1 4-3 3-2 5 1 1 6 2 5 1 4v6l4 1v-8l-1-9-2-4v-4l-1-5-2-2v-3l-2 4-2 1h-3l4-3v-3l-4 2 2-4-4 1 2-2 1-3-2-1-4 2-3 2 1 1-4 4h-3l-1-1-5 3-2 4-1-2-5 5v1l-3 1-1 1-3 6 2 5 4 1 2-2 5-2 4-3 3 1-3 2-1 3h-3l-1 2h-4l-4 2-3 3-1 3-2 2v3h1l4-3 3-1 4-3 3-1 4-2 4-1 5-2z"/><path fill="#0b344c" d="m196 189-6-6-1 3-3 4v2l2 2h2v3l3 3 3 5h-3l-3-1 2-4h-3l-2 3 5 5h-2l-1-1-1 5-3 3 1 1h2l2-3v-3l4 3v-4l2-2h3l3 5 4 1 3-3-2-3v-3l-2-1-1-4-4-5-1-2zm9 14v9l-3-3-1-4zm228 177-4-3h-5l-1 3-3 4-1 10-1 3 2 4 1 1h13v-8l-2-2-1-3v-3zm-5-190h-3l-4 3-4 2-3 3-4 3-2-4-2-6h-3l-4-4v3l2 1 1 4-6 5-1 2v2l-3 2h-2l-5 5-3 1-1 3-3 1-2 5-3 4-1 7 2-2 3-5 2-2-1 4 4-1h3l-3-3v-2l3-4 5-6 8-8 5-6h3l1 3v3l-5 5h2l2-2 4-1 1-2 1-1 3-1v-1l5-5 1 2 2-4zM45 351l-2-3-3-4-1-3-3-4-2-5-3-5-2-6 3-4 2 2 1 5h7v-2l-2-2-4 3-1-6-3-1-2-2-1-3-3-4v2l1 4v3l-2-2-4-10-2-4-4-2-4-4-1-2-2 1 1 5 2 4 2 6 2 2 3 1-3 2 6 12v2l2 6 3 4 2 5h1l1 5 4 4 2 6 4 4-1-4h2l4-2zm-21-21h3l1 4 2 4v2l5-1 1 1 1 2-4-1-1 2-1 1-2-2v-2l-3-4zm9 17 2 1 1 4-2-1zm351-155-1 2-1-3-2 2-2 5-2 4-2 2-2 5 2-2 2-3 1 5-2 3-2-2v5l-2 1v6h-3l3 3v1l3-4 2-5 3-5 2-2 2-5h-2l1-7h2l1 1v-3z"/><path fill="#d9dbc1" d="m153 208 2 1 6 2h6l2-3v-3l-2 4-4-1h-3l-5-4-3-1-1-2-6-2-2 3v-5l-5-1-4-3h-5l-1 7-1 4-1 5-1 7 3-1 2-2v-2l2-2 1-6h3l5 1h3l3 2z"/><path fill="#4d7877" d="m395 202-4-2 1-4v-3l-4 4-1 3-2 2-2 3-2 5-2 2-3 5-2 5-3 4-1 3 1 3h1l1-7 3-4 2-5 3-1 1-3 3-1 5-5h2l3-2z"/><path fill="#5d5a27" d="m189 207-5-5h-2l-3 6-3-2-4-3-1-2-5-2 5 5 6 5 5 6 3 3 5 6 3 4 1 3 3 4 2 5 2 2 2 4v3l2 3v-4l-2-4-1-5-3-3-1-3-3-4-3-5v-3l-4-2-2-3-1-1 3-3z"/><path fill="#4d7877" d="M318 213v-3l2-2 1 3 1-2 2-2 3-1 1-6-2 1-1 3-4-1-1-1-2 4-2-1-1-3-2 6-2 4-3 4-2 2v-3l-3-2-3 4v1l5 1-1 3-2 2 2 1 3 3 3-3h2l2-3v-3l2-2z"/><path fill="#166e67" d="m114 203-7-1-1 5v9l2 2-3 1-1 5v11l2 1v4l9-3v-10l1-4-1-5h-1zm318 44 3 6 1-1 1-4 1 4h3l1-1 1-3 1-1h-5l-1-2-2-2 2-1-1-5-6 2 2-2 1-3 2-2-2-5-2 4-2 5-1 2 1 4 2 4z"/><path fill="#0b344c" d="m367 215-3-2-1-1 1-5-1-4-1 2v3l-1-1-2 6-1 2-2 2-1 3v4l1 4h3l1-4-2-6 2 1 2 2h2l3-3zm-7-1 2 1h-2zM175 453l3 1h3l4 2 6 1h3l-2-1-1-3 4 1-1-4-2 2-1-3-2 2h-3l-2-2v-3l-1 4 2 2-3 1v-2l-2-4h-3l-5-1 1 5z"/><path fill="#5d5a27" d="M362 207v-2l-1 2Zm-1 20"/><path fill="#166e67" d="m202 212-3-5h-3l-2 2v4l-4-3v3l-2 3h-2l2 3 4 2v3l3 5 3 4 1 3 3 3 1 5 2 4v7l2 6 1 6-5 1-1-5-2-4-1-6-2-4-2-5-3-4v3l3 4 1 5 2 4 1 6 1 4 1 5v7l2-4-1-5h6l1 5-3 1 3 2v4h1v-7l-1-9h3l-3-12v-3l-2-2 4-1h1l1-4 3 6 1 6 4-2-1-1 1-4-3-3 1-1 1-6-2-2-1 1-2-2h-3v-1l3-1h3l-1-7-4-1 1 5-1 1-1-1-4-2-2-6v-3l-3-4zm10 23v5l-2-2v-3zm3 187v3l2 2 1 3v3l-2 2-1-3h-1l-4-1 2-2-3-1 3-1-2-4-2-2 2-3-2-2-1 1-2 1h-3l-3-4 1 5 3 2h1l1 3 2 4v6h3l1 1 1 3 5 2 4 3 3 1 4 3 5 2h1l-1-1-2-4-3-5h-2l-4 1-1-3 4-1-2-2 3-2v-2l-2-2 4 1 2 2-2-6-3-3-2 4-3 4-2-4z"/><path fill="#bba366" d="m136 255-2-4v-9l1-4v-7l2-4v-5l2-4 1-5-5-5-1 2-2 1-2 6-1 1 1-5-2 2-3 1v18l2-2v9l-1 5-1-1-1-10-1-6h-6l-1 7v5l2 3 3 1-1 4-2-4v5l2 4 4 2 1 5-2-2-2-3 1 6 2 4 6-2-1 6-3-2 1 4 2 2 2 5v1h5l2-2 2 3 1-1 2 3-4 3-3-3 1 3 4 2h6l2 3h-5l2 2 4 2 1-4h1l-3-2 3-1v-3l-1 1h-3v-6l-4-4-2-4-3-5-2-4-1-7Z"/><path fill="#6aa07c" d="m317 230 2-1 1 3h3l3-2 2-10 2-1-2-2h2l1-6-2-2-1 3-1-3h-3v5h-5l-1-1 1 4 4 2-2 6h-3l-2 4z"/><path fill="#166e67" d="M285 229h2l1 2 4-1 6-5 2-2-5-5-3-5-2-2-3 3-1 3-6 5 1 3zm32 1-1-1 2-4h3l2-6-4-2-1-4-2 4-2 2v3l-2 3h-2l-3 3-3-3-2-1-5 5-2 3 3 1 2 4 4-3h3l3 2 2-2v3h1l1-2z"/><path fill="#647249" d="M328 229h1v1l4 4 2-2 3-4 3-3 2-4 1-6-2 2-6-2h-2l-1 5-2 4-3 4z"/><path fill="#4d7877" d="M446 235h-1v-6l-2-4-1-7-2-4-6 2-5 2-4 1-4 2-3 1-4 3-3 1-4 3h-1l-1 2-4 4-1 2 2-1 3-3 1 1h2l1-1 2-1 2-4 6 1 2-4 1 2h3l1-2 2 2 2-2h2l3-3 3-4 1 1-3 4-2 4 2 5-2 2-1 3-2 2 6-2 1 5-2 1 2 2 1 2h5l-1 1-1 3-1 1h-3l-1-4-1 4-1 1-3-6v17l-3 4v2h2l1-6h3l5 1 2-2 1-3 2-3 1-7zM123 369l-2-1-3-4h-2l-3-2-2-2-4-2v11l1 5-4 1-1 2v3h5l1-3 1 3v2l-5 1 1 3 3 1h2l-1-4 3 1 2 6-6 1 2 2 5 6 4 3 3-4 3 3 2 1 1 2 4 1 4 2 5 1 1 2 3 2h3l9 1h15l4-1 2-1v-2h-1v-5l-1-4-1-9-2-1-1-6-1-2-1-3-1-2-3-4-4-4-3 1-2 4v1l2 4 3 4v2l1 6 1 4 1 6-2 1-4 1h-6l4 1-4 1-1-2-1 3h-2v-3l-6-1-4-2-5-2-5-5-2-4-2-5-2-4-1-4z"/><path fill="#166e67" d="m367 218 1 2 1-4z"/><path fill="#6aa07c" d="m434 227 2-4 3-4-1-1-3 4-3 3h-2l-2 2-2-2-1 2h-3l-1-2-2 4-6-1-2 4-2 1-1 1h-2l-1-1-3 3-2 1-1 3v3l3 1 1 3h1l3-3 5-2 2-2 6-1 1-1 4-1 4 1 1-2 2-5z"/><path fill="#55c1c4" d="m156 228 5 2h3v-5l-6-2h-3l-3-2h-5l-1 2-4-4 1 4-2 2-1 5 4 2 2-4zm-51 79-1-3-6-1-3 3-1-2-3-2-6-1-1 4 1 5 8 1h3l5 1 2-1z"/><path fill="#082c24" d="m366 222-1-1Z"/><path fill="#0b344c" d="M368 222h-1Z"/><path fill="#5d5a27" d="m378 227 1-4-2 2-3 5-2 2-1 4-3 1v5l-1 3 1 5-2 4v3l-1 4 1 2v1l-2 2v8l-1 4 1 5v8l1 4v3h1l2 2 1-2 3-1v-7l2-1 2-4 1-4-2-1-1 3h-2l1-4 3-3-4-1 2-4 2-2v-3l-3-3 2-2v-5l2-2-1-1 2-6 2-4 2 2h2l-1 4-2 4-1 8-2 4v5h2v-5l2 2 2-3-2-1-1-3 2-4 1-1 2-4v-2l-1-2 1 1 3-2 2-2v-2h-3l-1 1-6-2 1-4 2-2 1-3 3-5h3v-6l-3 2-3 5-3 3-1 5-5-1-1-1 1-5zm-28 3h-1l-1 1Zm-6 9h-1Zm-102 7-1-1Z"/><path fill="#bba366" d="M390 227h-2l-3 5-1 3-2 2-1 4 6 2 1-1h3v2l-2 2-3 2-1-1 1 2v2l-2 4-1 1-2 4 1 3 2 1-2 3-2-2v5h-2v-5l2-4 1-8 2-4 1-4h-2l-2-2-2 4-2 6 1 1-2 2v5l-2 2 3 3v3l-2 2-2 4 4 1-3 3-1 4h2l1-3 2 1-1 4-2 4-2 1h4l2-2v-15l3-2 2 2h-3l-1 3 2 2 4-1v-9l1-4 1-6 2-6 2-2 2-5 3-4 4-4 1-2 4-4-1-5-5 4-2 2-4 1v-2z"/><path fill="#6aa07c" d="M164 230h-3l-5-2-1 3-5 1-3-3 1 3v3h-3l-4-2-4 1 1 2v3l-1 3-1 4v9l7 1-1-4h2l2 4v3l1-1 1-4v-3l1-4 1-7 3-4 4 2 7 1 4 3 3 1 5 4 2 2 3 4 3-1 4-2-2-4-2 4-2 1-2-4-2-1 1-4v-6h-1l-2-2-3-1-1-2-3-2-2-2z"/><path fill="#0b344c" d="m479 263 2-6 2-4-1-4 1-5 2-2v-11l1 1 1-4-3 1-1 5-1 4h-3l-1 1-1 4-1 5-2 4v9l1 1 3-3-1 4zm-1-4"/><path fill="#5d5a27" d="M117 229h-2v8l-9 3 1 7 2 2 2 4-2 1 2 2 4-1 1 2 3 1 2 5 1 3 3 4 2 5 3 4 1 1v-1l-2-5-2-2-1-4 3 2 1-6-6 2-2-4-1-6 2 3 2 2-1-5-4-2-2-4v-5l2 4 1-4-3-1-2-3v-5z"/><path fill="#0b344c" d="M355 234v-4h-5l-1 1-1 2-2 2v1l-1 1-1 2 1 3 4-4 1 1h3l2-3zm171 137-1-1-2 2 1 2v3l3 3 2-1 1-1 2-4-3-5zm-193 16 3 1 1-3v-3l-3-3-2 3v-3l-2-2-2 1-1 1 1 3zm-15 17v2l-1 5 3 3h3l-1-4 1-4v-3l2-2-2-2-1-2-2 2 1 4zM96 423l2-2-8-4-3-1 4 4 4 3z"/><path fill="#082c24" d="M344 233h1v-3z"/><path fill="#6aa07c" d="M461 255h2v-5l1-4 1-6h-8v-7h-3l-1 4 2-2 1 4h-2v7l-1 4-1 5 3-2h3l3 1z"/><path fill="#0b344c" d="m180 286 1-6 2-4 1-3 1-4-1-7-1-5-2-4-3-4-2-2-5-4-3-1-4-3-7-1-4-2-3 4-1 7-1 4v11l1 4 2 4 3 4 6 6h3l3 2 6 1 4 2zm-8-39 4 3 2 4-6 1 1 3 1 4-1 4 2-2 1 1-2 4-3 2-1-4v3l-2 3-5-2v-2l-1-1-4-5v-6l1-4 2-2 6 2 3-1zm257-9-4-1-4 1-1 1-6 1-2 2-5 2-3 3h-1v3l3-2-1 3-3 3-1 2 6 2 2-2 5-3 4-2h3v12l-2 4-5 2-2 2v3l-2-1-1-4-4-1v-3h2l-1-3-2 1-2 4-3 3-1 4 2 4v2l-2-4-1-1 1 5 2 6h2l6-1 4-2 6-2 5-4 3-3 3-4v-2l3-4v-18l-2-4z"/><path fill="#4d7877" d="M195 268v-2l-1-5-2-6-4-8-3-5-4-5-2-1v6l-1 4 2 1 2 4 2-1 2-4 2 4-4 2-3 1 2 4 1 5 1 7-1 4-1 3-2 4-1 6 1 1 2 3h3l1-6 7 1v-2l1-4zm208-21-1-3-3-1v-3l1-3-4 4-3 4-2 5-2 2-2 6-1 6-1 4v1l9 1 1 1 1-1v-7l1-4 2-6h2v3l1-2 3-3 1-3-3 2z"/><path fill="#647249" d="m271 241-4 5-4-2-2-2-2-4-3 6h-2l-2-3 1 5 3 2 1 4 1 1-1 1 1 3h2l1 1 3-2 2 2 2 4h3v-5l4 3 2-2 3 4h2l1-4 2 1 2-1-4-5-5-6-1-1zm201 139 1-6-2 4v3l-1 2-2 1-1 3-2 2v3l-1-1-3 3-2 3v3h-4l-2 3 1 1-3 3-3 1-1 1 1 5-1 1-4 3 1 4 5 1 2-2h1l3-2 8-4 1-2 2-1 5-3 5-6 4-2 1-2 1-1 4-5 1-4-2-4-1-3v-1l-5-5-1 5-5 1zM323 252l3-4 2-4-3-1-3-4-2 3-1 1-1 3-6 6-4 2-1 3-2 4h-2l-1-2v-2h3l3-5 1-4 1 2 1-1-1-3v-3h-3l-2 2-4 3-5 6-3 3v1l-2 4 1 3 1-5v3l1 3 3 1-5 5h3l2-2 1 1 2-2 2 6 3 1 2-2v5l1 1 2 3 2-1v-1l2-2v-2l3-4v-4l2-2 1 1 1-4h1l4-3v-3l-1-3-1-1-3 2zm-2 12-2-1-4 4-1-1v-3h3l1-3zm-14 10v-1l2-1 1-2h3l-2 2zm7-3v1Zm0 1"/><path fill="#5d5a27" d="m241 243-2-1v2l1 1zm-9 2-1-1v2h1Z"/><path fill="#4d7877" d="M354 253h3v-8h-3l-3 3-5 6-2 1-1 3-3 3-3 5-3 3-3 4-3 5-2 2-3 5-2 4-1 6-2 2 1 3h2l4-4 2-5 4-5 1-4v-4l-2-1 9-12 2-2 3-5 6-5v3l-1 3-3 4-1 5 2-1 2-6 2-2z"/><path fill="#6aa07c" d="m247 270 1 6-4 1-1 2-3-3-6-10 3-1 1-2v-3h-2v3h-3l-1-4-3-4-2-6-3-4 2 6 2 5 1 2 1 4-1 4 4 1 2 5 2 2-3 4v5l4 2 4 1 1-4 1 4 1 3 2 1 2 2 1-2 5 1-1-3v-2h2l1 3 1 1 2 5 2 4 1-1v-3h1l-1-1-1-3-3-4-6-10-3-4z"/><path fill="#166e67" d="m226 251-2-5-1 4v1l1 4v30l-1 4v13h3l4 4 1-2v-3l1-1 4 1 3-3 2 4h5l-1-8-2-4-1-4-4-1-4-2v-5l3-4-2-2-2-5-4-1 1-4-1-4-1 3v7l1 4 1 5v10l-2-2-2 2v5l3 1v-2l5-1-2 4-3 3-5-5v-3l1-5h2l2-2-3-1-1-4 2-1 1-3-3-4v-14z"/><path fill="#082c24" d="m172 247-2 5-3 1-6-2-2 2-1 4v6l4 5 1 1v2l5 2 2-3v-3l1 4 3-2 2-4-1-1-2 2 1-4-1-4-1-3 6-1-2-4zm214 167-1-2-5-2v-2l4-1-1-3-1 2v-3l1-3 1-1h-3l-1 6-3 4-2 5-2 2-1 3-3 4-1-1-2 4v1l-3 4-4 5-5 5-1 3h2l4-3 3-1 2-4 3-1 1-1 4-2 1-3-1-1h3l3-5 2-2 1-2 1-4z"/><path fill="#0b344c" d="M210 273h3l4-1v-11l-2-4v-6l-4-4-4 1 2 2v3l3 12h-3z"/><path fill="#082c24" d="m397 275 1 1 2 4v-2l-2-4 1-4 3-3 2-4 2-1 1 3h-2v3l4 1 1 4 2 1v-3l2-2 5-2 2-4v-12h-3l-4 2-5 3-2 2-6-2v-3h-2l-2 6-1 4v7l-1 1z"/><path fill="#4d7877" d="m166 282-3-2h-3l-6-6-3-4-2-4-1-4v-8l-1 4-1 1v-3l-2-4h-2l1 4h-7l1 7 2 4 3 5 2 4 4 4v6h3l1-1v3l-3 1 3 2 5-5 5 2 1-2h2v-2z"/><path fill="#082c24" d="m516 385 1 1v-2zM96 407h-1l-1 2zm-6 6 2-2-2 1z"/><path fill="#0b344c" d="m229 258-1-2-2-5-1 4v14l3 4-1 3-2 1 1 4 3 1-2 2h-2l-1 5v3l5 5 3-3 2-4-5 1v2l-3-1v-5l2-2 2 2v-10l-1-5-1-4v-7zm102 11-1-1 3-1 1-4 3-2 1-5-2-2h-3l-3 3h-1v2l-2 2-3 4-3 5-2 2-3 5-2 2-1 3h-1l-1 4 2 1 1 2h2l3-3 3-5v-3l3-2 3-3zm14-1 1-5 3-4 1-3v-3l-6 5-3 5-2 2-9 12 2 1v4h2v-3zm9-12v-3l-3 6v5l-2 4v6l-2 2v2l1 1v5l1 4v7l-5 1-2-1-3-1-2-4h5l1 1 2-4 2-5h-2l-1 4-2 2-1-2-1-1-4 2v3l-1 4-2 2 1 5-4 2-2-1 1 3 3 1-1 5v1l4-2 2 2 2-5 3 1-2 6-6 2-5-1 1 4 5-1h2v5l-3 4-1 3-6-1-1 1 2 2v3l-1 4-3-2 2-1-2-2-2 4v-6l-2-3 2-2 1-3-3-3-2 4h2l-1 3-2 4-4 4 1 1 4-1 1 1 2 4 1 1 3 2 2 1 4 1 1-1 3 1 4 2v-3h-3v-3l-2-4v-2l2 1 1 3 5-1v-2l3-3-1 5-1 1-2 6 2 1 1 1 2-1h1l1-4 1-7 1 1 2 1-3 2v8l3 1 1-2 2-2 1-4v-3l1-6v-3l-2 5-1 2v-7l-2-1 3-1 1-1 2-4v-5l-2-4 3-1v-3l-1-5-1-4 1-1v-10l1-4-1 1h-2l1-4-1-5-4-1 4-3-1-5-3-1 4-2v-8z"/><path fill="#082c24" d="m467 285 1 2 1-3zm-172 73v-4l-1 4Zm49-103h-1Zm-93 5h-1Z"/><path fill="#6aa07c" d="m285 259-2-1-1 4h-2l-3-4-2 2-4-3v5h-3l-2-4-2-2-2 2 1 2 4 4 2 4 4 4 3 1 3-4v-3l3-2 3-4Z"/><path fill="#647249" d="m455 274 2-4 2-2v-6l-5-1-3-2v-3l-1 1-1 6h-3l-1 1 2 2-2 3-4-1 1 1 5 3 3 3v3l-2 2h-2l-4-1v3l2 1 1 2 6-6 2-4z"/><path fill="#5d5a27" d="M293 258h-6l-2 1 3 3h2v10l-4-1h-3l1 3 5-1 1 5-1 4 1 5-2 2v5l-3-1-2-6-2-2v3l5 10 1 5v6l2-4 1-4 1 1v6l-2 1v6l-2 1-1 1v2h3v6l2-2 1-4-1-7v-3l2-4 1-6 2-4 2-5 1 3h2l2-2 1-3-4-2 1-1 4-2 1-3-2 1-2 2 2-6 1-1-3-1-2-6-2 2-1-1-2 2h-3l5-5-3-1-1-3v-3l-1 5-1-3z"/><path fill="#0b344c" d="M250 262v-2l-4 1zm145 70 3-1v-3z"/><path fill="#647249" d="m281 285 2 2 2 6 3 1v-5l2-2-1-5 1-4-1-5-5 1-1-3h3l4 1v-10h-2l-3-2-3 4-3 2v3l-3 4-3-1-2-2 1 4 2 2 2 4v3h-2l-3-3h-5l2 4 2-2 2 4 2 2 2-2 3-1-1-4 2 2z"/><path fill="#6aa07c" d="M209 281v-4l-3-2 3-1-1-5h-6l1 5-2 4v-7l-1-5-1-4h-3l1 5v10l2 2-2 2-1 2 5 3 1-3 3 1-2 1-1 5 5 1 2-1z"/><path fill="#0b344c" d="M475 262h-3l-2 2v3l-2 2-2 4-2 2-4 6v2l-2 1-2 3v3l3 3 3 1 2-1h-1l2-3-3-1-1-4 2-2 1-2h3l-2 3 2 1v-1h2l5-5v-2l2-3 3-3 1-6h-1l-1-1h-1zm-5 14 2 1h-2z"/><path fill="#166e67" d="m441 268 1-5-2 2-5-1h-3l-1 6h-2l-3 4-3 3-5 4-6 2-4 2-6 1h-2l-2-6-1-5-2-4-1-1-9-1v8l1 4h6l-1 3h-5v5l1 4 1 5 1 7 6-1 4-3h2l-2-1 2-3 1 3 3-2-1-1h3l1 1 2-1-2-2 4-2v2l4-1-2-3 3-1 2-2 1 3 2-2v-3l4 1v-2l2-4h3l3-2 3-5-4-2 2-3h3l1-1z"/><path fill="#6aa07c" d="m445 285-1-2-2-1v-3l4 1h2l2-2v-3l-3-3-5-3-1-1h-2l-1 1h-3l-2 3 4 2-3 5-3 2h-3l-2 4v2l-4-1v3l-2 2-1-3-2 2-3 1 2 3-4 1v-2l-4 2 2 2-2 1-1-1h-3l1 1-3 2-1-3-2 3 2 1 1 3 1 4 4-2 2 4 2-2-3-6 5 1-1 5 5-2v-2h-3l4-4 1-3 1 4 3 1 2-2 4-2 5-1 2-3 4-1 2-5z"/><path fill="#647249" d="M196 283v-11l-1-4v11l-1 4v11l-1 4-1 6 2 2v3l2 2 4-1 1-3 4 2h3v-7l3-1-2-1v-10l-2 1-5-1 1-5 2-1-3-1-1 3-5-2v4l-1-1z"/><path fill="#6aa07c" d="M340 285v-3l2-5 2-4 1-5-11 11v3h-2l-1 4-4 5-2 5-4 4v3l-2 5v2l3-1 5-5 1-2 2 1 4-2-1-5 2-2 1-4v-3z"/><path fill="#647249" d="m110 279-1-1v-3l-2-4h-3l2 6 2 8-5 1-4-2h-9l-1-1 1 3 1 2h5l4 2 7 1 1 3 2-2 6 3 1 2 4-1 4 2 6 2 4 2v2l1 1 5-1h1l-4-3v-2l-2-3-4 1 2 1v2l-4-2-4-4-2-1-6-2-2-2-3-4-2-3z"/><path fill="#0b344c" d="m215 294 2-1v-7h3l1-4-1-1-1 1-2 1 1-5-2-4h-6v7h-1v19l2 1-3 1v15l2 4v8l2 4 1 6 2 3 4-2 1-3-1-2v-3l-2-8v-7l-1-4v-10l1-7zm0 0-2 4 1-4z"/><path fill="#082c24" d="m456 275-1-1-2 1-2 4-9 9-2 5-4 1-2 3-5 1v2l-3 3 2 4 1-1h3l2-2h1l2-3h3l4-3 2-2-2-5h2l1 3 4-3 1-4 1-1 6-5v-3l-1-2zm-5 11"/><path fill="#166e67" d="M126 294h2v-3l-3-4-2-2-2-4-1-1-3-4v2h-2l-1 3-3-3-1 1 1 3 2 3 3 4 2 2 6 2z"/><path fill="#647249" d="M152 291h-1l-1 4-4-2-2-2h5l-2-3h-6l-4-2-1-3 3 3 4-3-2-3-1 1-2-3-2 2h-5l3 5 6 5 2 2 5 4 4 2 4 3 4 2 4 3 3 1h2l1 2 5 3 4 2 1-1 1 3 3 1 8 6h4l3-2 1-5h-1l-4-2v-3l-5-1h-3v-2l5-1 1-3-1 1h-3l-5-2-4-4-4-2-5-1-5-4h-4l-1 4h-2v3l1 2-4-2-4-3 3-1zm328 67-1 3-1-1 1-5-4-2h-6l4 2 4 1v7l2 2 5-1h1l-1 5-1 1 1 4 1-3 2 2v3l2 4h4l1-3h2l2-4 2-2 1-4-1-1-5-2-1-3-2 4h-3v2l1 2h-3l-1-4v-3l-1-3-2 2z"/><path fill="#6aa07c" d="m575 286-2-4-6-1-4-1h-6l-5-1h-24v2h-10l-4 1-8 1-4 1h-5l-4 1-5 1-2 2h5l1-1 9-1 5-1h3l1-1h8l1-1h16l-1 4h-12l-1 4-2-3-8 1h-3l-5 1-8 1-4 2 1 6 1-4 4-2 4 1-1 4-2 2 4-1 1 3 1 4v-5l4-2 4-1h10l2-2h1l9-1 2-2 1-2-3-1-2-2h12l4-1-3-1 2-2-8-2h17l4 1h7l4 2h-2l-4 1h-7l1 5h3l4-2 2-2z"/><path fill="#4d7877" d="m91 288-1-2-1-3h-5l-4-1h-6l-4-1H41l-4 1h-6l-4 1-8 1-4 1-1 1h6v1h5l-2-2 4-1h6l4-1h10l4 1h-5l-4 1h8l1 1 2-2 4 1 3 1h2l4-1h10l4 1 9 1zm351 80h-1l-1-1-10 5-4 3-5-5 3-3 5-2 2-4-3 1-4 3-7 7-3 5-3 4-1 4-1 1-2 6-1 5-1 4-2 6v5h2l3-5 4-2v2l4-2-1-1v-2l1-3 1 2 1-4 1-3 1-10 3-4 1-3h5l4 3 2-1v-2l-2-3 3-3 5-1z"/><path fill="#6aa07c" d="m176 285-4-2-6-1-1 2v2h-2l-1 2-5-2-5 5 2 4-3 1 4 3 4 2-1-2v-3h2l1-4h4l1-2 4-1 4 2 6 2 1-3-3-2-4 1-1-2z"/><path fill="#4d7877" d="m574 289 1-3-7 1-2 2-4 2h-3l-1-5h7l4-1h2l-4-2h-7l-4-1h-17l8 2-2 2 3 1-4 1h-6l1 5-2 2h12l2-3 1 2h5l-4 2-7 1-4-1-4 1-2 1v7l-3 2 3 1-2 1h2l5-2-1 6 4-1-1-1 2-3-2-2-1-2 4-1 3-3 4-1 5-4 4-2 5-3 2-2 4 1Z"/><path fill="#6aa07c" d="m42 285 4-1h5l-4-1H37l-4 1h-6l-4 1 2 2 4-2h10l1 2h-9v1l5 1 1 3h10l2-2-1 5 2 2H40l-7-1-1-3-6-1-1-2-2-2h-6l3-1v-1H9l-3 3v5l2 4 2 6 2 4 2 6 2 4 2 5 3 4v-2l-6-12 3-2-3-1-2-2-2-6-2-4-1-5 2-1 1 2 4 4 4 2 1-3 3 1-2 1 4 3 3 1 4 4 1 6 5-1-4-2 1-2 5 3 1 4 2-3 1 4 6 5 3 2-1-3-3-1-4-5 6 2 4 3 2 2-2 1 1 3 5-1h3l10-1h6v-10l-4-2h-5l2-2 5 1 4-1v-8l1-1 2 1 6 1 3 2 1 2 3-3 6 1 1 3 3-1-2-2 3-1 2-2-1 4 5 2 4 2h3l-1-1-2-3 1-1 5 2v6h-2l5 5 3-1 1-5 1-1 5 1h3l-5-2-4-2-5-2-2-1-6-2-2-2-4-2-6-1-4-2-8-1-4-2h-5l1 1-1 1-1 3h-2l1-5-3-1-5-1-4-1h-7l-4-1H42z"/><path fill="#082c24" d="m308 289 2-6-2 1-2 4v2z"/><path fill="#0b344c" d="m91 288-2-1-9-1-4-1H66l-4 1h-2l-3-1-4-1-2 2-1-1h-8v3h19l4 1h7l4 1 5 1 3 1-1 5h2l1-3 1-1-1-1h5l4 2 8 1 4 2 6 1 4 2 2 2 6 2 2 1-1-5 5 2 4 2v-2l-4-2-6-2-4-2-4 1-1-2-6-3-2 2-1-3-7-1-4-2z"/><path fill="#166e67" d="m180 286-4-1-3 2 1 2 4-1 3 2-1 3-6-2-4-2-4 1-1 2 5 4 5 1 4 2 4 4 5 2h3l1-1 1-6 1-4v-9l-7-1-1 6h-3l-2-3zm-155 1h-5l-3 1h6l2 2 1 2 6 1 1 3 7 1h10l-2-2 1-5-2 2H37l-1-3-5-1v-1h9l-1-2H29z"/><path fill="#0b344c" d="m573 289-4-1-2 2-5 3-4 2-5 4-4 1-3 3-4 1 1 2 2 2-2 3 1 1-4 1 1-6-5 2h-2l-4-1-1 1 4 2-4 3-1 4h2l1-3v3l-1 5-2 3-5-1-4-1-1 1-1-4-3 1 3 1 1 7 2 3 2-2 2 4 1-5 2-3v3l-2 6 1 3 3 1-4 1-2 2-1-2-6-1h-2v6l3 1-1 5 1-1 3-4-1 6 5-1h3l2 2-4 1-2 6-2 3h-2l-2 5-2 4v3h1l2-4h5l1-4 2-2 2-4 2-1 2-5 3-3 1-2 1-4v-3l-2-2h1l3 1 1-1 3-4 2-6v-3l2-4 2-5h3l-1 4-1 1-1 3-2 4-1 1v2l-1 2 1 2 3 1h3l1-2 2-3 2-4 1-5 3-4 1-5 3-4v-3l2-5 2-4zm-67 74-1-1v-3l-2 5-2 3-1 4-2 2-2 4h-1l-2 5-3 4-2-2-4-2 1 3 2 4-1 4-4 5-1 1 2 3 2 2h1l3-4 6-5 5-5h3v-2l1-4h1l1-3 2-3-2-1 2-1v-1l2-2 1-7-3-1zm-2 21"/><path fill="#6aa07c" d="m318 297 2-2 1-6-2 2-2 5-3 4-4 10-3 4-1 6-3 4-1 6-1 4-2 6v11l3-1 1-5-1-3-1-1h3l3 1-2 1v5l-1 3 3 1 1-4 2-4-2-1 2-4-1-1-1-3-2 2 1-6h2l1 4 3 1 4-4 2-4 1-3h-2l2-4 3 3 3-3v-3l-3-6-5-1-2 3-2 6 3 2-3 1h-3l-4-2 1-1 5 1 1-5 2-5-4-2 1-1 3 1 3-4-1-5zm162 1-1-2-9 3-4 2h-3l-4 3-5 1-16 8-3 2v2l-1 3-3 1 1 1 1 5 5-3 5-2 2-5 2 2 1-3h3l-1-6 1-1 1 6 4-3 4-2v-5l2 2-1 7-3 1 2 2-1 2 3-2 5-1 1-3 5-1 1-3-4 3-5 1v-3l4-3 3-1 4-2h-2l-1-3 2-2zm-231 2 4 2 3 4 2 6 2 4 1 5-1 1 3 2 1 6h1l1-4 2-2-1-1v-3l-2-4h-3l2-3-1-1-2-4-1-4-2-1h-2l-1-2 2-2-1-5h-6v5z"/><path fill="#55c1c4" d="m498 300 2-2 1-4-4-1-4 2-1 4-1-6-7 1-1 5-3-1-5 1-2 2 1 3h2l2-1 5-1h3l7-1zm-98 58-1-1 2-5 6-5v-2l-3 1-2 3-2-2-4 4v2l-5 3v3l1 2-1 1-3-3-3 3-4 5 1 4h1l2-1 4-4 8-6 1 1h1z"/><path fill="#0b344c" d="m483 302 2 4 2-2h2l1 3 1 1 6-2-2 4 6-1h14v-2l-5 1 1-1 2-4 3 3h5l2-3 1-7-2 2h-10l-4 1-4 2v5l-1-4-1-3-4 1-5 1-7 1z"/><path fill="#082c24" d="m85 301-2-1-1 1v8l-4 1-5-1-2 2h5l4 2v10h-6l-10 1h-3l-5 1-1-3 2-1-2-2-4-3-6-2 4 5 3 1 1 3-3-2-6-5-1-4-2 3-1-4-5-3-1 2 4 2-5 1-1-6-4-4-3-1-4-3 2-1-3-1-1 3 2 4 4 10 2 2v-3l-1-4v-2l3 4 1 3 2 2 3 1 1 6 4-3 2 2v2h-7l-1-5-2-2-3 4 2 6 3 5 2 5 3 4 1 3 3 4 2 3h3v3l2 2 2 5 1 2 2 2v1l1 1 1 2 1 1 6-2-2-5-3-1v-2l1-3 5-1 1-1-1-2 1-4 1-1-5-1-1-5 2-2-3-1-1-3 2-2 4-2-2-2-5-2-1-2 8-1 1 5 2 4 1 5-3 1v3l4 1 1-3-1-4-1-7-2-4 2-1 4-1h17l4-1-1-1H81v-9l3-1 7 1 1 2 1-1 8-2-5-1h-3l-8-1-1-5zm-34 23 3 1 2 6v2l-5 2 2 5v5l4 2-2 2 1 4-3-1v-5l-3-1-1-3-3-1-1-7v-2l4 1 1-1-2-4 1-2 3-2zm253-10 2-1 2-6-4-2h-3v-2l-2-2-5-2-1 6-2 4v3l1 7-1 4-2 2v-6h-6l-3 1 2 3 3 1 3 9-1 1v6h3l3 2v-8l4-1v1l2-1 1-6 2-4 2-6zm-5-4 1-1v1Zm0 0 1 2 4 2h-4l-2-1zm-1 3v5l-2-1zm0 5v3h-2l1-1zm-2 3 1 1 3 2h-3l-3 2 1-5z"/><path fill="#166e67" d="M265 330h-1l-1-6-3-2 1-1-1-5-2-4-2-6-3-4-4-2-1 7 3 2v3l-1 1-3 2 1 6 2 2v2l3 2-1 4-1-3-3-3-1-7-2-4 3-3-1-5-2-2h-3l-1 4 1 5-4 1 4 2 2 2-2 2 1 3v3l-1-1-1 4 2 5-1 3-7 1 1 5 1 3 2 4 2 6 2 3 4-1v-5l-2-4 1-1 1 3 2 4v3l2-1-2-6-1-4 5 2 3-3h2l-2-5-2 2v-3l2-2 2 4 3-1v-6l-2-4 2-2 2 2zm8-15-3-9-3-4-2-1h-3l1 4-3-3-2 1 2 1 1 4 2 4 1 1-2 3h3l2 4v3l1 1 3-3-1-6zm-145 2-5-5h2v-6l-5-2-1 1 2 3 1 1h-3l-4-2-5-2 1-4-2 2-3 1 2 2-3 1 2 2 4-2 1 3h3l4 2v3l-6-1 6 3-1 7-1 2v2l6 1 4 2 6 2 4 1v-1l-5-2 3-1 1-4 1 1 1-3-3-1-4-3 1-1z"/><path fill="#5d5a27" d="m373 339 3-5 3-1v-2l2-2v-3l-6 6-2 4-2 2 1-4 2-2 2-5 3-5 2-5-4 1h-3v-8l2-1-2-2-1 3-4-2 2-2v-5h-5l-1 7 1 5v3l-1 5 5 2-4 1-1 1v6l6 3-2 1-1 5-2 4v3h2l2-4 3-3zm-165-30h-3l-4-2-1 3-4 1-2-2v-3l-2-2-1 3-5 1v2h3l5 1v3l4 2h1l-1 5-3 2v3l5 5 6 5 6 8-2 3 5 1 2 5-1 1 4 2 2 5 2 2v4h3l-1-2-1-6-3-2h3l-1-5-2-4v-2l-2-4v-5l-1 3-4 2-2-3-1-6-2-4v-8l-2-4zm14 39-2 2v-2z"/><path fill="#6aa07c" d="m119 317-6-3 6 1v-3l-4-2h-3l-1-3-4 2-2-2-2 4-2 1-8 2-1 1-1-2-7-1-3 1v9h12l1 1 1-1v-7h8l2 2 2-3 2 3 7 1-3 2h-3l-2-2-1 4h2l5 2 1-2 2 2v-5z"/><path fill="#082c24" d="m418 309-1-1-3 1-4 2-2 2-5 2-3 3v6h2l4-1 2-2 3-1 1-3 1 1 4-2 1-4z"/><path fill="#0b344c" d="M195 323h-4l-8-6-3-1-1-3-1 1-4-2-5-3-2 3-1 2-1 1 2 2 5 2 6 6 5 4 4 3 1 2 3 1 5 5v-1l1-4 3-4-5-5z"/><path fill="#4d7877" d="M147 339h2l-2-2v-2l1-6 4 2h3l-4-2-5-3-4-2-6-2 3-2-1-4-4-3-1 3h-2l-3 1 4 2-1 1 4 3 3 1-1 3-1-1-1 4-3 1 5 2v1l3 3-1 7h-1v1l-3 2 6 1 1 1 2-1-4-2 4-2-2-3 2-1v-2z"/><path fill="#55c1c4" d="m117 326 1-2 1-7-2 2v5l-2-2-1 2-5-2h-2l1-4 2 2h3l3-2-7-1-2-3-2 3-2-2h-8v7l-1 1 9 1h5l4 1z"/><path fill="#4d7877" d="m277 324-2-4-2-5h-3l1 6-1 1-1 2-2 10h-2l1 5-4-1 1 4-1 1-3 4 3 6h7v-8l-2-4 1 1 4-1h3v-2l-1-2v-3l2-1h3v-2l-1-1zm154-3 3-1 1-3v-2l-6 2-2 2-4 2-4 3-5 2-2 2-3 2-1-4 2-2-5 2-2 2-6 5-5 5-3 2h2l-1 5-4 2-5 5-2 1 3 1 6-5 10-10h3l7-7 3-1 8-4 2-2 5-2 2-2z"/><path fill="#082c24" d="M222 318h-2l-1 4 3 1zm170 118-5 1-1 2h5zM277 324"/><g fill="#bba366"><path d="m504 354 2 1 4-8 1-5 2-4 1-6 2-4v-5l-5-1-1 1 1 2h-8l-4-1 8-1-4-1-4 1h-8l-5 1h-3l-4 1-8 1-1 1 1 2h2l1 2 2 2 5-1 2-4 2-2 1 5-2 1 2 1 7 1h12l5-6 3-1 1 1-2 6-2 5h-8l-1 6-2 4-1-1 1-5v-1l-2 4-2 5 5 1 2-5h3l2 1-1 5zm-387-28-5-1-4-1h-5l-9-1-4 1H73l-4 1-2 1 2 4 1 7 1 4 3 2v6l1 2h1l-1-5v-3l3-1 5 4-2-4v-5l4-2h5l7-1v-8l10 1 1 3 1-3h5l1 5-2 5-4-1-3 2h7l2 2h6v-2l-5-1v-2l1-7z"/><path d="m466 337-1 1-6 2-2 2 4 1 4-1 4 1 4-1 5 1 4 1h7l2 2v3l1-6 4-2 5-5h-2l-5 4-2-2-2 3h-3v-2l-4-4-4 1-7 1-4-1z"/></g><path fill="#4d7877" d="m420 354-1-2 2-2 4-2v-2l4-1 5-3 3 4-1 4-2 1 3 1 1-3v-3l-1-5 2-2 6-2 1-1-7 1-2 2-4 1 2-2 3-1 4-3h-3l-4 3-2-2-1 4-5 1-3 3 1-3 3-3h-3l-1-1 4-3 2-2-1-1 3-3-3-4-5 5 2 2-1 4-1-1-1-4h-3l-3 3h-3v5l-3 2-2 2 2 3h-2l-2-3-4 4 1 1 3-1v2l-6 5-2 5 1 1 6-5 2 1-1 6h2l1-3 3-1 2-2z"/><path fill="#166e67" d="m51 324 1 1-3 2-1 2 2 4-1 1-4-1v2l1 7 3 1 1 3 3 1v5l3 1-1-4 2-2-4-2v-5l-2-5 5-2v-2l-2-6zm24 27-1-2v-6l-3-2-1 3-4-1v-3l3-1-1-5-2-4-1-5-8 1 1 2 5 2 2 2-4 2-2 2 1 3 3 1-2 2 1 5 5 1-1 1-1 4 1 2-1 4-2 2 5 3-1 3v1h3l1-1 1-3 1-1-1-5 1 1h3v-2z"/><path fill="#d9dbc1" d="m109 336 4 1 2-5-1-5h-5l-1 3-1-3-10-1v8l4 2h5l2-2zm377-3-2-1 2-1-1-5-2 2-2 4-5 1-2-2-1-2h-14l-6 2-1 2h-3l-4 4-6 2-2 2 1 5v3l-1 3-3-1 2-1 1-4-3-4-5 3-4 1v2l-4 2-2 2 1 2 4 2 2-1 4-1-2 4-6 5-3 2-1 2-4 1v2l-3 1v3l-2 5-2 2-1-1v-6h-3l-2 4v2l-2 1 1 4h-3l-1 1-2 4 1 3h3l2-2 1-5 3-3 2 2 3 1 1-1 1-4 3-4 3-5 7-7 4-3 3-1 1-2 6-2 4-2h-1v-2l4-1 1-3h-1l-5 2-1-2 5-2 1-3 2-2 6-1 1-5 1 3 4-1 7-1 2-1 5-1 1-1h8z"/><path fill="#647249" d="m504 354 2-1 1-5-2-1h-3l-2 5-5-1 2-5 2-4v1l-1 5 1 1 2-4 1-6h8l2-5 2-6-1-1-3 1-5 6h-12l-7-1-4 1h-8l-1 1-5 1 4 1 7-1 4-1 4 4v2h3l2-3 2 2 5-4h2l-5 5-4 2-1 6v-3l-2-2h-7l-4-1-5-1-4 1-4-1-4 1-4-1 2-2 6-2 1-1-7 1-4 1-1-3-1 5-6 1-2 2-1 3-5 2 1 2 5-2h1l1-1h3l3-3h-5l1-2 5-1h2l-2 4 1 2 1-3 4 2 1-2 3 1 1-1 1 4 4 2 2-4-3-1 3-1h2l1 2 4-1h2l4 1 3-2-1 3-6 5v2l3-2 1 3 3 2 2-3v-3h2v8l2-3 1 2 2-4 2-2zm-105 27-1-1-3 1-2 6-2 3h-2l1 2v3l-1 5-4-2-2-2v-2l-5 5 1 4-2 4-3 4-4 4 3 1 2-2 2-5 3-4 1-6h3l-1 1-1 3v3l1-2 1 3-4 1v2l5 2 1 2 2 1 5 1 3 3 4-2v-2l3-3v-5l2-6 1-4 1-5 2-6-3-1-2-2-3 3-1 5-2 2h-3l-1-3 2-4 1-1h3z"/><path fill="#0b344c" d="M357 329v-1l-2-1-1 2z"/><path fill="#d9dbc1" d="m137 334-4-1-6-2-4-2-6-1-1 7v2l5 1v1l5 1 6 2 4 2h3l1-7z"/><path fill="#4d7877" d="m319 337-1-1-4 1-1-1-3-1-1-4h-2l-1 6 2-2 1 3 1 1-2 4 2 1-2 4-1 4-3-1-1 2-4-1-2 5 1 4 6 1 1 1 2-2 1-6 2-5v-3h3l5-1 1-6-2-1z"/><path fill="#082c24" d="M224 367v-4l-2-2-2-5-4-2 1-1-2-5-5-1 2-3-6-8-6-5-3 4-1 4 5 5 1 3 3-1 1 4 4 3 2-2v6l3 2h2l1 3 2 4zm-6-5 1-2v2zm155-23v1l-3 3-2 4h-2v-3l2-4 1-5 2-1-4-2-2 5-2 2 2 2-2 1v5l1 4-3 4v2h3l3-4 3-1-2 4-1 3 5-4-1-5 3-2-1 4h2l5-5v-3l-1-1-1-4-2-2-2 2zm2 8"/><path fill="#647249" d="m109 336-1-2-2 2h-5l-4-2-7 1h-5l-4 2v5l2 4-5-4-3 1v3l1 5h-1l1 6v2h-3l-1-1 1 5-1 1-1 3 4 2 6-1 1 5-3 1v3l-2 2 6-1 2-2 2 4 6 8 3 5 2 2 5 6 6 5 1 2 6 3 4 3 5 3 5 2 4 2h1l-1-1-4-3-1-1v-3l-3-3-1 3h-3l-5-3-5-4 4-3-2-2-2 2-3 1-4-3-1-3 3 2 2 2 4-2-3-3-3-4-2-2-1 1 1-5-3-4-1-5-2-1-2-2 1-7 3 2 1 1 2-2h3v-11l-1-1 4-2 9-1h14v-1h-7l-7-1-4 2-4-1-1 1-5 1-1 2-3 4-4-2v-4h2l2 1v-3l-5-3 2-3 6-1 5 1 1-2h7l2 4 2-4h8l1-1h-3l-4-2 3-2-5-1v4h-15l-1-1-4 3h-5l-2 1-1 2 1 5 1 4 1 5 2 2 4-1h3v3h-3l-4 1-1 1-5-1-1-5-2-1 2 5-2 2-7-1 6-6v-3l-1-6-1-1-2-6 3-3-3-2-1-3 3 2 2-2h6l-3 2h3l1-2h5l4 1h2z"/><path fill="#082c24" d="m296 339 1-2v-3l-1 4zm50 8-2 1-1-1-2-1 2-6 1-1 1-5-3 3v2l-5 1-1-3-2-1v2l2 4v3h3v3l-4-2-3-1-1 1-4-1-2-1-1 3-3 1 5-1-1 7-2 1-1 4 2 2 1-6 2-4h3l1-3v5l2 2 1-4 2-3 1 4-2 4-1 3-2 4-1 5-2 4-1 3 3-4 2-4 2-6 4-1-3-1 1-5 3-5 6 2-2 2 2 1h1v-2z"/><path fill="#0b344c" d="M393 334h-4l-1 1 1 3z"/><path fill="#bba366" d="m91 339 3-2h-6l-2 2-3-2 1 3 3 2-3 3 2 6 1 1 1 6v3l-6 6 7 1 2-2-2-5 2 1 1 5 5 1 1-1 4-1h3v-3h-3l-4 1-2-2-1-5-1-4-1-5 1-2 2-1-4-1-3-1-1-3z"/><path fill="#d9dbc1" d="M121 340h-6l-2-2h-9l-4-1h-5l-1 2h-3l-3 1 1 3 3 1 4 1h5l4-3 1 1h15z"/><path fill="#bba366" d="M181 373v-2h2v-2l-8-8-4-3-2-2-5-6-3-1 2 3h-6l1-4-2-4-5-2-4-3-3-1v2l-2 1 2 3-4 2 4 2-2 1-1-1-6-1 3-2v-1h-2l-4-2-6-2-3 2 4 2h3l-1 1h-8l-2 4-2-4h-7l-1 2-5-1-6 1-2 3 5 3v3l-2-1h-2v4l4 2 3-4 1-2 5-1 1-1 4 1 4-2 7 1h7v1h5l4 1 5 2 4 2 5 3 11 11 3 4 1 2 4-2v-3l2 2z"/><path fill="#166e67" d="m325 344-3-2-1-1-2-4-2 2 2 1-1 6-5 1h-3v3l-2 5-1 6-1 2v3l1 4 4-3 2-1 1-1 5 2 1-2-6-1v-3l3-2h5l1-4 2-1 1-7-5 1 3-1z"/><path fill="#5d5a27" d="M545 339v-2l-1 2Zm-185 20"/><path fill="#0b344c" d="m196 343-5-5 1 5 2 2-1 2-3-2-4 8h-3l-3-1-1-1 1 3 2 2 5 6 2 2 6 5 5 1-2-2v-2l6 5v6l1 3 3-2 1 1 2 1-2 2-2 1 4 1 2-2 3 4-2 4 3 3h1v3l3-1 2-1-1-2-3-4v-5l1-2 2-5-3 2-1 3h-2l-3-4h-3v-2l-5-6v-3l-3-2v-3l1 3 3-2-2-3-3-3-3-1-1 3-3 1-1-2v-3l-1-3 4 2 1-2 2-1 3 4 6 5h3l-2-4-6-5-1-3-2-1z"/><path fill="#082c24" d="m296 339-2 3v5l2-3zm224 39h1l1-4-2-2zm-447 6-1-1h-3v2l1 1h1zm441 1-1-1-3 3 1 2 1-1 1-2zm-155 71-1-1h-3v3z"/><path fill="#166e67" d="m304 351 1-3v-5l2-1-3-1h-3l1 1 1 3-1 5-3 1v-11l-1 4-2 6v8h-1v5h-1v10l-1 8h-1v49l-1 5 1 4-1 4v17l-1 4 1 4-2 1 2 2 2-6 1-9 1-4 1-7 1-4v-3l2-2h1l1-4h-2l-1-6v-1l1-5v-6l1-4v-8l1-3 3-1h1l1-9h-2l-1 3-2 1v-3l2-8 1-9 1-10-1-1-6-1-1-4 2-5 4 1z"/><path fill="#bba366" d="M481 354v-1l6-5 1-3-3 2-4-1h-2l-4 1-1-2h-2l-3 1 3 1-2 4-4-2-1-4-1 1-3-1-1 2-4-2-1 3-1-2 2-4h-2l-5 1-1 2h5l-3 3h-3l-1 1-1 3-4 1v2h1l12-3h12l3 1h6l4 2-1 5 1 1 1-3z"/><path fill="#166e67" d="m215 363-4-4h-3l-6-5-3-4-2 1-1 2-4-2 1 3v3l1 2 3-1 1-3 3 1 3 3 2 3-3 2-1-3v3l3 2v3l5 6v2h3l3 4h2l1-3 3-2-2 5-1 2v5l3 4 1 2 1-3 2 1 2 4 4 2 4-4-1 4-3 1 2 5 2 1 1 3 4 4 1 3 3 2 2 6v1h3l1 3 3 4 1 5 3-2v-2h3v3l-1 1-3 1 2 4h3l2-4 1 4-3 1 1 5 2 3 2 1 1 3h3l2-3v3l1 4 2 1v3l2 2 2 4h3l3 5 1 2 1-1-2-4-3-4 2-2h-2l-3-2-2-5-2-2-1-6-6-6-2-5-3-4-6-10-3-4-2-4-3-4-3-5-2-2-3-5-2-2-3-5-3-3-2-4h-1l-1-3-6-6-1-3h-1l-2-2-1-4v-1zm262 0v-7l-4-1-4-2-3-1h-12l-12 3-4 2-6 2-1 2 6-1 1-2 3 2h3l1 4 1 2 5-1v2l5 1 4 1-1 8v2l-2 4-1 5h-1l-2 6-3 1-1 3h-3l-1 3v3l-4 1 2-3-5 1-1 1h-3l-5 1-4-2h-7l-2-4-1 3v2l1 1-4 2v-2l-4 2-3 5h-1v2h25l7-1 6-2 5-2 1-1 3-1 3-3-1-1 2-3h4v-3l2-3 3-3 1 1v-3l2-2 1-3 2-1 1-2v-3l2-4-1 6 1-1 2-4 1-5v-3z"/><path fill="#6aa07c" d="m505 359-1-2-1 3-3 4 1-6v-3l-2-2-2 2-2 4-1-2-2 3v-8h-2v3l-2 3-3-2-1-3-3 2v-1l-1 4 3 3 2-2 1 3v3l1 4h3l-1-2v-2h3l2-4 1 3 5 2 1 1 2-3z"/><path fill="#082c24" d="M515 376v-3l2-4 2-5h2l2-3 2-6 4-1-2-2h-3l-5 1-2 3h-2l-2 5-2 3-5-1 2 2 3 1-1 7-2 2v3l2-1 1 3 3 1 2 1 1-1 1-3zm-380 45h-1l-4-2-5-2-5-3-4-3-4-2-2 1-2 2-1 2 5 5 5 2 2 2 5 2 4 2h3l3 2 1-5z"/><path fill="#166e67" d="M409 360h-2l1-6-2-1-6 5-1 3h-1l-3 3-2 5-2 2h-2l1 5h-5l1 4h-2l-1-5-1 4-1 7-3 1v2l5-3 1-4 2 4-2 4-1 4v2l2 2 4 2 1-5v-3l-1-2h2l2-3 2-6 3-1 1-2h-2v-1l1-5 4-5 1-1 2-4h2z"/><path fill="#6aa07c" d="m399 381 2-1v-2l2-4h3v6l1 1 2-2 2-5v-3l3-1v-2l4-1 1-2 3-2 6-5 2-4-4 1-2 1-4-2h-5l-2 2-3 1-1 3-2 2h-2l-2 4-1 1-4 5-1 5v1h2l-1 2zm-268-14h-3l-2-2-3-4 2-1h6l-1-5-5 1 3-2h-9l-9 1-4 2 1 1 4 2 2 2 3 2h2l3 4 2 1z"/><path fill="#4d7877" d="M133 354h-5l-3 2 5-1 1 5h-6l-2 1 3 4 2 2h13l1-2 4 2 6-2-2-2-4-2-4 1h-3l-6-1-1-2 4 1h3l3-4-4 1-5-1z"/><path fill="#6aa07c" d="m163 369-7-7-5-3-4-2-5-2-4-1h-5v2l5 1 4-1-3 4h-3l-4-1 1 2 6 1h3l4-1 4 2 2 2-6 2-4-2-1 2 6 1 4 2 1 1 5 3 1 1v-1l2-4z"/><path fill="#5d5a27" d="m53 363-2-2-3-4-2-2v3l-1 4-3-2v2l-2-1 1 3 3 4 2 2 1 2 3 5 4 5 5 5v-2l-1-1-2-1-1-3-2-2-3-4 3-2 2-2 5 5-1-2-1-3-1-1-1-2-1-1h-1zm-9 2 4-1h3l-2 2 1 4-4-4v2h-1zm2 3"/><path fill="#082c24" d="M287 362v-1l-1-4v5Zm7 1v-5l-1 4zm211 46-2 2 1 1z"/><path fill="#6aa07c" d="M451 367v-2l-5 1-1-2-1-4h-3l-3-2-1 2-6 1-2 4-5 2-3 3 5 5 4-3 10-5 1 1h1l1-1z"/><path fill="#0b344c" d="m398 361-1-1-8 6-4 4-2 1-2 5-6 5-1 1-1 3-4 3-1 3-3 3-1 3-2 2-3 4-3 2-3 5-2 4-3 3-5 6-2 4-6 5-1 3-4 4-5 6-3 3v1l3 3 1 3 2 4 4-2h2l1-3h3l2-2v3l1-1 1-4 4-2 2-5h3l2-3 5-5v-3l-1-1-3 2-2 4-4 1-1-3-4 3h-3v-2l6-6 1 1 6-5v-3l5-5h-3l2-2-2-2 2-3h3l3-3h2v3h-2l-4 4 3 3v3l-3 3 4 2 2-2-1-5h2l2-2 5-1-3-1 4-4 3-4 2-4-1-4 5-5 1-4 2-4-2-4-1 4-5 3v-2l3-1 1-7 1-4 1 5h2l-1-4h5l-1-5h2l2-2 2-5z"/><path fill="#6aa07c" d="m374 382 1-2v-3h2l4-4-2-4-4 2-2 4h-5l-1 1-3-4 2-1 2-3 4-3v-3l-1-2-1 3-5 5-2 4-2 8 2 2h2l2-2 2 1 3 3z"/><path fill="#5d5a27" d="M532 362v-2l-2 1-1 1-1 4 2-1 1-2z"/><path fill="#6aa07c" d="M495 377h-1l-1 3h-4l-2-4v-3l-2-2-1 3-1-4 1-1 1-5h-1l-5 1-2-2-1 4v3l-1 5-2 4-1 1 1 2 5-1 1-5 5 5v1l4 2 2 2 3-4z"/><path fill="#166e67" d="M283 367v4l-1-1-2-4-5 1 2-2-4-1 1 8v3l3 1-1 5-2 2 1 1h3v5l-1 4h-2l4 1 2 1-1 8 2-1v-5h1l3 4 2 1 1-1-1-4-1-5h1v-8l-1-4v-7l-1-5z"/><path fill="#082c24" d="m110 408-1-2-6-5-5-6-2-2-3-5-6-8-2-4-2 2-6 1 2-2v-3l3-1-1-5-6 1-4-2-1 1-1 6-4-4-4 3v2l2 2 1 2 2 2 4-2 2 4 3 3-1 4v1l-3-2 1 3 1 1 4 3 2-2v-3l5 3v3l-2-2 1 5 2 2 3-1h2l6 6 4 3 4 2 2 2h1l1-2 2-2zm-35-16"/><path fill="#0b344c" d="M141 367h-10l-8 2v7l1 4 2 4 2 5 2 4 5 5 5 2 4 2 6 1v3h2l1-3 1 2 4-1-4-1h6l4-1 2-1-1-6-1-4-1-6v-2l-3-4-2-4-1-1-5-3-1-1-4-2zm-4 12h12l4 3v3l1 2v2l-5 5-1 4-1-4v-2l-4-1h-2l-3-5-1-4z"/><path fill="#082c24" d="M219 368v-1Zm8-1-3 3h3v3l3 1v-3z"/><path fill="#166e67" d="m270 367-2 1-2 3 2 6-1 1-2-4h-3l-2 1 3 3-2 2 2 4 1 6 5 2h3v-7h-3l-1-5 4 2 1-5-1-4v-5zm95 1-2-1-4 4v1l-6 5 1 1 2-1 1-1v4l-3 3-1 4-4 2-3 5-1 4 5 1 1-3 3-3 1 2 5-5 1-2 5-5 3 1v4l4-3 1-3-2 2-3-3-2-1-2 2h-2l-2-2 2-8z"/><path fill="#082c24" d="M455 388h1l1-5 2-4v-2l1-8-4-1-5-1h-8l-1 1-1 2-5 1-3 3 2 3h5l4-1 4-2h3l3-1 3-3-1 7-2 5v2l2-2z"/><path fill="#bba366" d="m126 401-3-3-3 4-4-3-5-6-2-2 6-1-2-6-3-1 1 4h-2l-3-1-1-3 5-1v-2l-1-3-1 3h-5v-3l1-2 4-1-1-5h-3l-2 2-1-1-3-2-1 7 2 2 2 1 1 5 3 4-1 5 1-1 2 2 3 4 3 3-4 2-2-2-3-2 1 3 4 3 3-1 2-2 2 2 5 3 2 2 3 1 1-3-4-2z"/><path fill="#0b344c" d="m455 388 1-6-2 2v-2l2-5 1-7-3 3-3 1h-3l-4 2-4 1h-5v2h8l3 1-1 4-2 1 1 3v2l-4 3h-3l-2 1 3 3h3l2 2-5 1-3 3 2 1 1-1 5-1-2 3 4-1v-3l1-3h3l1-3 3-1z"/><path fill="#6aa07c" d="m190 391-2-5-2-4-1-1-1 1-4-2 5-1-2-5-2-1-4 3-2-2v3l-4 2 1 3 1 2 4 1h2l1 1 1-1 2 4 1 4 4 1 2-2z"/><path fill="#082c24" d="M292 381v-6l-1 4zm239-2h-2l-1 3h2z"/><path fill="#0b344c" d="m55 379-1-2-1 1 1 1Zm478-2"/><path fill="#082c24" d="m437 404-2-1 3-3 5-1-2-2h-3l-3-3 2-1h3l4-3v-2l-1-3 2-1 1-4-3-1h-8l-2 1-2 6v3l1 3 2 2v8h-13l-1-1-2-4-1 4 1 2h7l4 2 5-1z"/><path fill="#5d5a27" d="M520 380v-2l-1 2Z"/><path fill="#0b344c" d="m56 380-1-1Z"/><path fill="#082c24" d="M137 379v3l1 4 3 5h2l4 1v2l1 4 1-4 5-5v-2l-1-2v-3l-4-3zm93 4h2l-4-4v2zm118 4v-2l-1 2Z"/><path fill="#0b344c" d="m526 384-1-2-3 4v1l2-1z"/><path fill="#5d5a27" d="m69 385-3-2-1 4 2 2-3-1-3-3h-1v5l3 3 5 6 6 5-1-3-4-3 2-3-3 1-3-2v-2l4-4 1-2zm-1 2"/><path fill="#082c24" d="m60 385-1-1Z"/><path fill="#647249" d="M190 391v1l-2 2-4-1-1-4-2-4-1 1-1-1h-2l-4-1 1 6 2 1 1 9 1 4v5h1l1-3 4 1-3 4v3l2 2 3 2-4 1h-6l-3 1-1 3-4-1-4 1 1 1 4 1h10v-3l1-2h9l1-1 2 2v2l5 3 2-2-1-2-4-1-4-4-4-2v-2l1-4-2-4 1-3 2 2h3l2 1-5 5 1 3h6l1-4-1-5-2-4-1-5z"/><path fill="#0b344c" d="m334 389-1-2-4 1-1 3-2-2 2-3 1-1h-3l-1 3-2 4-1 4 4-1 3 3 2-1 1-6z"/><path fill="#082c24" d="M347 389v-2l-2 2v1zm165 0v-1l-1 2zm-168 2"/><path fill="#166e67" d="M319 444v5l1-3 2-1 2-5 2-4 2-2 2-4 2-2 1-3 2-2 2 2 3 1-2-4 1-5 2-2 1-3-4 4h-2l5-6 2-4 1-3 3-2-5-3-3 5h2v2h-3l-3 4-5 5-3 5-3 4-3 5h-1l-1 4-3 4-2 5-2 2-12 20-2 2-1-1h-2l-1 4h2l-2 4h-2l1 4h5l1-2v-1l8-8-1-3-1-1h-2l2-1v-2l2-3 2-4 2-2v-2l3-4 2-4 3-4 2-5 3 3-2 4-2 5z"/><path fill="#0b344c" d="m305 413 3-9-1-4h-3l-1 2-3 1v7l-1 4v6l-1 5v1h3l3-2 1-8zm206-11v-2l-2 2 1 1z"/><path fill="#5d5a27" d="M84 401h-2l4 4-1-3zm95 8v2l-2 1-4 1h-15l-9-1h-3l-3-2-1-2-5-1-4-2-4-1-1-2-2-1-3 3 4 2-1 3 4 1h3l4 2 1-3v3l1 3 3 1 2-2 4 2 3 1 4 1 5-1 2 2h8l-1 2-4 1-3-2-1 4h-5l2-2-2-1h-3l-1 3 2 2h10l4 1h9l4 1h6l8 2 6 2 4 2h2v-6l-2-4-1-3h-1l-3-2-1-5-1-2-2-3-1 4h-6l-1-3 5-5-2-1h-3l-2-2-1 3 2 4-1 4v2l4 2 4 4 4 1 1 2-2 2-5-3v-2l-2-2-1 1h-9l-1 2v3h-10l-4-1-1-1 4-1 4 1 1-3 3-1h6l4-1-3-2-2-2v-3l3-4-4-1z"/><path fill="#082c24" d="m483 402-3-1-4 2-5 6-5 3-2 1-1 2-8 4-2 2 2 5 2 1 4-2 1-1 3-2 2-2 5-3 3-3 3-1 1-3 5-3 1-3z"/><path fill="#0b344c" d="M78 408v-5l-4 1zm34 11-4-1-4-2v2l1 1 5 2zm-28-6 2-2-2-1-3-3-2 2 4 4zm189 16v3l2 2-2 2 3 1-1-6z"/><path fill="#082c24" d="m215 422-1-3-3-2-2-4-5-5h-3l-2 2-1 2 1 2 3 4h3l2-1 1-1 2 2-2 3 2 2 2 4-3 1 3 1-2 2 4 1h1l1 3 2-2v-3l-1-3-2-2z"/><path fill="#166e67" d="m366 426 2-4 1 1 3-4 1-3-5 1-2 2h-2l1 5-2 2-4-2 3-3v-3l-3-3 4-4h2v-3h-2l-3 3h-3l-2 3 2 2-2 2h3l-5 5v3l-6 5-1-1-6 6v2h3l4-3 1 3 4-1 2-4 3-2 1 1 2-1 2-2z"/><path fill="#5d5a27" d="M452 421h-1l-2 2-5-1-1-4 4-3 1-1-1-5-5 2-6 2-7 1h-25v-2l-4 3v2l-4 2-3-3-5-1-2-1-4 1-1 4-1 2-2 5-3 4-1 2-1 1-1 3 4-1 5-1 4-2 5-1 4-1h6l1-2h-7l3-5h2l3-2h3v-3l4 1-1 1 1 2 5-1h3l1 1 4-2-1-1 4 2 6-1 2 2v-2l4-4-2 4 2 1-2 4-6 1 1 1 8-1 2-1v6l3 1 4-2 6-1v-3z"/><path fill="#082c24" d="m93 411-1-1Zm-4 3"/><path fill="#5d5a27" d="m93 411 2 2 1-1z"/><path fill="#166e67" d="m228 425 3 2h3l3-3 2 2v3l-5 3v2l3 3h2l3-1 1-4 2 2 1-1-2-2-1-6-2-4 1-1-4 2-2-2-2-5 1-1 1-3-5 2v1l2 6 3 1-3 3-2-2h-3z"/><path fill="#5d5a27" d="m86 415-2-2 1 2z"/><path fill="#647249" d="m152 424 1-3h3l2 1-2 2h5l1-4 3 2 4-1 1-2h-8l-2-2-5 1-4-1-3-1-4-2-2 2-6-1-1 5 3 3 7 1 5 1zm277 2 6-1 2-4-2-1 2-4-4 4v2l-2-2-6 1-4-2 1 1-4 2-1-1h-3l-5 1-1-2 1-1-4-1v3h-3l-3 2h-2l-3 5h7l2 2 7-1h5l1-1 1 1 6-2h3z"/><path fill="#5d5a27" d="m105 419-1-1-1 1 2 1Z"/><path fill="#647249" d="m374 432 1-2 3-4 2-5-2 2-3 5h-3l1 1-1 3-4 2-1 1-3 1-2 4-3 1-4 3h-2l1-3 5-5 4-5 3-4v-1l-4 3-2 2-2 1v3l-5 5-2 3h-3l-2 5-4 2-1 4 2-1 5-2-2-2h2l6-2v2l-1 1v1l6-1 2-2 2-1 1-1v-1h-3v-2l5-2 2-1 4-4h-2zm-18 14"/><path fill="#082c24" d="m152 424-2 1-5-1-1 3-3-2-2 2h-3v2l1 1 5 1 4 1 5 1h2l1-2 1 3h6l4 1 4-1h6l4 2h13v2l4 1v-2l5 1v3h-3l-7-1-4-2-3 1-4 2h5l1 2 2 1v1l5 2 8 2 1-1 1 4h-3l-2-1h-2v7l6 2h3l6 1 4 1 10 1 5 1h5l8 2h11l1 1h2l-1-3-1-1 9 3-2-1-4-3-5-2-5-3-4-3h-3l-6-2-1-3h-1l-5-2-4-3-3-1-4-3-5-2-1-3-1-1h-5l-4-2-6-2-8-2h-6l-4-1h-9l-4-1h-10zm91 33v3l4 2 2-2 4 2h-1v2h-5l-4-2h-8l-2-5 5 1zm75-31v1Zm75 10h-1Zm45-10-8 1-1-1-3 1h-3l-6 2-1-1-1 1-4 3-5-1-2 3-1-3-3 4h-2l1-4-4 1-1 4h-1v1h12l3-1h12l9-1 10-2z"/><path fill="#0b344c" d="m320 442 2-5 2-4-3-3-2 5-3 4-2 4-3 4v2l-2 2-2 4-2 3v2l2 4 2-2v-1l2-4 3-4 2-5 3-4z"/><path fill="#5d5a27" d="M188 445v-1l-2-1-1-2h-5l4-2 3-1 4 2 7 1h3v-3l-5-1v2l-4-1v-2h-13l-4-2h-6l-4 1 6 1-4 2 2 5 5-1 2-2 1 3 4 2z"/><path fill="#082c24" d="M359 456h2l-1 4-3 1-2 2-5 1-1-4-5 2-4 3 3 1 4-1h9l2-2h10l4-2-1-1-6 1-1-1-3-1 4-4 6-1 4-2 5-1h3l6-2h6l4-3 7-1 1-4-2-2h-6v2h-3l-4-1h-3v2l-4-1-5-5h-2v3l-4 2-1-2-5 1-2 1v5h-2l-1 1h4v3l-4-1-1 5zm-195-13-1-2-2 4-1 4 3 1h3l2 1 3 1-1 3v3l4-2v-1l1-1-3-1-1-5-3-1-4-2zm134 6"/><path fill="#166e67" d="M269 469h2l3-4h-8l-1-2-3-2v-3l3 3 3 1-3-3v-3h-2l-5-5-2-4-2-2v2l1 3 3 3v3l-2-3-5 1-1-1 3-1-3-3-2 4-3-2h-3l-3-3-5 1 1 3 6 2h3l4 3 5 3 5 2 4 3 6 3zm57-14-4 1 3-4-3 1-5 5-2-1-5 5v6l-3-3-5 5-1 3h-2l1 1 6-2 4-2 6-2h1l4-3 5-2 4-3h2l4-3 4-2v-3l-2 2h-3l-1 3h-2l-4 2z"/><g fill="#082c24"><path d="M385 456v2l-6 1 2-3-3 1h-2l-1 1-1 2v2l9-1 4-2h3l6-1 4-2 3-1h-3l-3-1-3-2-2 4h-3l-2-2z"/><path d="M385 456v-1l-4 1zm30 15-1-4h-8l-4 1-5 1-4 1-6 2-8 1h-3l-5 1h-13l-5 1h-7l-4 1h-13l-4 1h-16l-4 1-5-1v2h13l4-1h28l4-2 5 1h18l7-1h18l4-1h9l4-2-2-1-1-3 2 2zm-206 2-8-1-6-2-9-1-6-2h-3l-1 3v3h3l1 2h16l4 1h23l3 1h10l4-1 4 2h25l10 1 1-2h-21l-4-1h-7l-4-1h-10l-4-1h-6l-7-1-4 2z"/></g></svg>
