<svg xmlns="http://www.w3.org/2000/svg" viewBox="0 0 473 435"><g fill="#377265"><path d="m239 9-1-2-2 1-2 2-2 4-1 3-2 4-1 5h-1l-2 4-1 3-5 10-1 4h-1l-1 3-1 5-2 3v7l3 1 2 4v9l-2 3h-2l3 2 2-2v7h-2v-3h-5l2 2 1 4h-1l2 4 2 2 2 5 2-2v8l1 3 4 4-2 2 4-1h2v-3l2-2 1 6 2-1-1-4 3 3 2-3h3v-3l1-4v-3l-1-4 1-4-2-1v8l-2-3-1 4 1 4-1 1-1 3-1-4v-6h-1v2l-1 3v3h-4l-2 1-2-3v-3l1-7v-3l3-1v-5l-5 4-1-1 1-1 1-3-3-1 1-5-1-1-4-8v-6l-1-1-1-3 1-4 1-8 2-4 3-2 1-5-1-2 2-3 2-4 1-7 2-2v-1l2-4 1-5 3-1Zm84 27-3-1-2 1v1l-1 1-1 2-4 4-2 3-3 3-1 2-4 4-1-1v3l-2 4 1 4 1 6-3 1 2 1v9l2-4v-6l1 4v23l-1 4v3l-5 1-2 2-3 4-1 5 1 4 1 9 2-2 1 4-7 7h-2v-35l2 1v6h2l1-7 2-4v-3l-5 1-1 2-1 3h-3l-3 2-1-1-1 5-4 2-3 2v-2h1l1-6-1-4 2-10-1-4 1-4-1-2-4-1v1l-4 4-1 3-2-3 2-3 2-2h-3l1-4v-4l-1-6 1 1 2 4v-5l1-3 1-2 2-2 1-3 7-7 1-2 3-1 1-2 2-3 1-3-2 1-10 10-2 1-1 3-1-1-1 2-2 2v4l-5 4h-1v6h-1l1 4-2 4-1 3-1 1 1 4-3 3h-2l-1-1v2l1 4-2-1h-2l-1 1 2 4 3 4 2-2v5l-1 4v5l1-4 1-1 1 4 2 4 5 1 1-7 2-4v10l-1 4h3l2 1v3l4 8v3h2l1 1 1 5 3 1 1 5-2 2-1 4v3l-1 2-2 1-3 1-2 2-6 5-2 2-3 5-2 2-4 8 5 5 1-2 4-2 2-4 3-3v-2l-1 2-3 1v-3l-1-4 2-2-1-1 4-3 7-7 3 1v2l1-2h2l1 5h2v-2l3-2 1-2 4-2-3-1 3-1v-3l2-2 1-5 1-4v-10l2 2 1 4v16l2 1 4-2 2-5 4-8 1-5 1-1 2-6 2-4 1-7-4 3-2 4h-2v1l2 2 1 4-1 1v3l-2 2h-2l-1 1h-3l-1 3-1 1-1-4 1-4h2l-1-6 2-4v-2l-3 3v-3l-3-1 3-4 2-4 2-6 5-3 2-3 4-2 5-2 1 4 1-4 2 3-2 4v5l-2 4-1 8-1 5-1 9-2 4-1 5v3l-3 3 2 2 4-2 1 1 4-1 2-2 4-3 2-4 2-2 3-5 3-4 2-5 3-4 2-6 3-4 2-6 3-4 2-5 2-4 2-5 4-8 2-5 2-4 1-5-1-1h-3l-8 2-4 2-1-1-1 1-4 2h-1l-2 1h-3v2h-1l-6 3-1 2-2 2-5 3-6 6-4 8h-3l1-1 1-6 2-4v-6l1-4v-7l1-4-1-4v-3l1-5-1-4 2-4-1-4v-6Zm-58 63v-2l1-5 2-1 2-6 3-1-1 4-1 5v4l-1 5-1 2h-2l-1 4-2 4-1-5h-2l1-5 3-2Zm4 5h3l-1 6 1 3-2 2v-3l-1-1zm14 15-2-4 2-3 1-5 2-1v32l-2-2-1-5-1-4 1-1-1-3-1 3-1-4 3-1zm50 9-1-2 2-4h-2l-1-2 3-1v-1l-1-2 4-1 1 2v7l-1 1v3l-1 2zm0 0 1 3 2 2h2l-1 3h-2l-2 3-1-2-5 5v-2l2-3-3 1-1 3v-6l4-4-2-2h3zm17-34v3l-2 5-3 4-1 8-2 4-2 2 1-5v-3l4-10 2-2 2-5zm-54 41 2 1-2 6-2 5-1 5-4 8-1-4 1-6 2-4 2-3 1-4zm-85-68-2 2 1-6-2-4-5-5-5-6h-2l-5-5-1-3-3-3v3l2 1 1 4 3 4 3 1 1 3v2l-2-2 1 5v3l-1 1 1 5-2 4v-5h-1l-1 4v16l1-4v-5l1-4h2v12l-2 4 4 4h1l2-4 1-4h3v7l1 7-2 4-2 2v5l1-2 1-1 1 9 1 7 4-8-1-4V93l-2-4-1-5v-2l2-1-1-4 2-2zm-11 7 3 1v3l2 2-1 3-2-1h-2l-1-1 2-6z"/><path d="M291 70h-1v5l-2 4-1-1 2-4V53l-1-1-3 4-1 6 2-4 1 1-1 9-1 10-1 5-2-2-1 4-3 3 2 2-2 3v3l1 3v-1l2-6 4-2 2-2 3-4 3-3 1-3h-2v-3zm-36 5v-3l-3 4-2 4-4 4-1 4 2 3 3-6 1-3 3-4zM81 121h-2l-7-1-5-1h-3l-4-1H50v1h5l3 2h3l4-1 4 2h8zm-16 10-3-1-3-3-4-3-4-1 5 5 4 2 2 3 6 5 5 3 2 2 4 1 4 3h1l-1-2-16-12zm127 30-2 5v3l2 4 2 2v2l2 2 4 1-3 2 4 2 4 1 1 2 2-2-1-4v-3l-1-1-1-4-2-1-1-3h-2l-1-2-2-2-1-3zm47 33h-4l-1-1-4 1-4-1 2-1 1-3 4 1v-2l5 2zm0 0 2-4v-3l-1-3h-3l2 3-4-1-4-3-5 1-6 1-4 3-3 1-2 2-2 5h21l4-1h3zM50 211l-1-1-2 1v1l-2 1h-1l-2 3h-1l-2 2h-1l-2 1v1l-10 10v1l-2 2-1 2-1 1-2 4h-1l-1 2-1 1-2 4-1 1-3 6v2h1l2-4 2-2 1-3 3-3 2-5 4-5 5-6 8-1 2-4 4-2 5-2-3 3v2l1-1 5-1 2 2v-2l4 2 4 1 4-1 4 2 2-2v3h6l-3 4-5 5-1 3-3 3h-1l-2 1 3 1-1 2 5-2-1 7-4 8-1 8h1l2-3 2-4 1-3 2-1 2-6 2-2 3-1-2 4-2 1-2 5-3 4 1 4 4-4 6-5 1-3 6-1 4-1 2 3 8-4-2-2 3 1 1 6 2 4-3 1-4 1-2-6-1 1 1 6-5 2v1h2l4-2 5-1 4-2 5-1 4-2 5-1 1-3 2 3-5 6-2 4-2 6-2 2-1 5-5 1-4-1h-3l-4-1-2 2h-2l2-3h-5l-4 2-7 1-4 2-10 4-3 3-1 2-1 5h-1l-1 3-1 2-1 4-1 3-1 8h-1v5l-1 4v16h-1v4l2 1 4-2 3-5-3 1-1 3-3 1v-21l2-4v-2l2-6 2-4 2-6v-5l2-4 1 1v3l-2 5-1 6-1 4v7l-1 4v3l-2 4-1 5-1 2 1 4v-2l1-1 1-3 1-2h2v-2l-1-2 3-1 1-3v-3l1-1 1-3h-3l-1-1 1-4v-1l2-6v-2l2-5v-3h2l3-2 2-2 2-4 5-5 4-1 3 2-7 7-4 5-3 5-3 4-3 5-2 4 1 1 5-5 1-3 2-1 1-2 4-1 3-3 1 3 2-2 4-1 3-3 4 1-1-1 4-1v-2h3l6-2 1 2h2l1-4 1-6 2-6 3-1v-2l2-3 1 1 1-1h3v-2l4-1 4 1-3 1 3 2 3-2 4-2 4 2 1 1 3-1-2 3 3 1h3l1-1 3 2v-3l8 1h6l1 3h1l2-1 4 4v3l-2-3h-3l-4 2 3 1 2 5 3-2 5-2 4-3 4-2 4-3 3-1-2-4-2-3-4-1 2-2-3-1-1-1-5-1h-3l-3-3v3h-2l-4-2-3-1-1 2-2-2h-3l-5-1-2 3-1-3 2-1-3-1-1 2-2-2-4 1-1-1h-11l-4 1-1 1h-3l-1-1v-3l2-2-2-1v-14l1-4 2 2v-5h3l1-1 2 2 2-2 2 4-3 3 3 1 1 3-3 1-3 3 1 1-3 3v2h-2l-1 2 1-1 7-1 4-2 7-1 4-2 7-1 6-2h3l2-3-4-4-1 2-1 1-1-1 1-3-1-5-2 4v-5l-2 2-1-3 3-1 2-2 5-1 4-2 5-1 4-1 6-1-3-1-2-2 2-2v-2l-5-1 1-1-1-1h-3l-1-2h-3l-3 1h-6l-2-2-1 4h-3l-2 2 1 5 2 6v3l-4-2v-4l-4 1-5-3-4-1h-5l-5 5-1 3-3 1-2 4-1 4v9l-4 1 2-2-3-1-1-2-3 2v-6h-6v-3l-5-1h-7l-4-1-4 2-2-3-2-1-1-1 4-2-1-4-2-2-4-2-2-2h-3l-4-2h-3l-1-1-1 1-4-1h-3l-2 1-4 1-3 1zl1-1Zm265 29h-2v-2l-2-2 3-4h3l2-2h3l2-2-1-1 4-1 4 1 3 3 2-1 4 1-1-2-4-2-1-3-4-2 2-4h5l7 7 3 4 1 1 1 3 2 2-1 1 3 4 1 3 3 1-1-6-2-4v-3l-1-6-3-4-1-3-4-3v3l3 5-1 1-3-4-5-5v-2h-3l-4-1h-3l-6 1-4 2h-2l-1 6-5 5-5 2-2 2-6 2-4 2h-7l2 2 4 2 6 1 4 1 5 1 9 1 4 1h7l4 1h8l4 1 7 1v-1l-6-1-4-1h-7l-4-1h-7l-5-1zm14 19 4-1 4 3 7 7v3l2 6 3 4 1 5 2 1 1 4h3l1 9 2 5 1 2 2 1 1 5 1 7-1-1h-1l1 3 1 6v3l-3-9-2-4-2-6-2-5-2-2-2-5-4-8-3-5-2-4-2-5-3-4-3-5-5-5-1-3-5-3-4-4-4-2h-3l-6-2-1 1-5-1v3l-5-2h-3l-2 1h-2l-2-2-1 1v2l-5-2h-2l-4 1-1-1-2 5-3 4-1 3v2l5 3 5 2 3 4v2l4 2-1 1 2 2 5 2 4 3 4 1 3 3 5 2 4 3 5 3 4 3 6 2 2 2 5 3 4 3 5 3 2 2 6 5 5 5h2v3l2 1 4 5 4 1v-21l-1-5 1-4v-6l-4-1 3-1-2-2v-5l-1 1-1-3 2-1-2-1-1-3-1-4v-5l-1 3-2-2-1-5-2-6-2 2-6-12-1 3-5-5-1 1-3-1-2-2-2 2h-3l-1-2-4 1v2zm0 5 2 4 2 2 4 8 2 2h-2l-4-1v-2h2l-5-6-5-5-3-2 2-4zm-45 8-2-2-5-1-1-2h4l4-2-5-2 2-2h3l1 1v-2l5 1 8 4 5 2 2 1 2-2 2 2v3l2 1 3 3v1l3 1 4 3h1l1 3 2 4 2 1 2 2 3 1 4 2 2 4 2 1 3 3 1 3 4 5 2 2h-3l-3-3-2-1-8-8-4-2-8-8-3-1-5-3-2-2-6-1-4-3-3-1-5-2-4-2h-1zm33 1-3-4-4-5 9 3 1 3 4 4 6 5 5 5 1 2 2 1 2 3 1-3 3 4-2 1 3 4v2l-5-4-1-1-4-3-6-5-5-5-4-2z"/><path d="M87 315h1l2-2 5-3 2-2-4 1-4 2zm160 111h44l4-1h-5l1-1h3l6-1v-7l-4-1 4-1v-7l2 3 1-3 4-2h-16l-4-1h12l7-1h14v-3h-8l-4-1h-5l-4 1-4-1h-3l-4-1-4 1-4-1-4 1h-3l-4-1-4 1h-3l-4-1-4 1-7-1h-12l-4 1-4-1h-5l-4 1-9-1-4 1-5-1h-3l-5 1h-6l-5-1-4 1-4-1h-24l-7 1h-19l-4 1-6 1-1 5 4 1v7l2-1v-5l1 4-1 3-3 1 2 2v3l3 3h6l-4 2h40v-1h6l4-1h-10l-4-1-2-4v-3l1-1h8l-5-5-1 4-1-3v-3l-4-2 1 7-2 1v-7h-3l-2-2h26l-4-1h-6l-4-1-5 1-4-1h-8l2-2 4 1h12l4-1 5 1 4-1h72l4-1 2 1 4 1v2l-4-1-4 1h-11v1h27v9l-2-8-5 1-1 3-2 4-1-5-1-1-1 4v2h-4l3 1 2 1-1 5v3l-4 1zm-91-10h-1v7l-2 1v-6l-3-1-1-2 4 1zm97-1 5 1-2 2 1 4-2 1h-2z"/></g><g fill="#275249"><path d="m243 15-2-2-2-4v3l2 4 1 6 2 4 4 10 1 3 3 4-1 5-1 4-1 5v1l3 2-3 1-1 5-5 5-2 4-1 3-2-2 1 5 2 4 1 9 2 1-1 4 1 4v3l-1 4v3h-3l-2 3-3-3 1 4-2 1-1-6-2 2v3h-2l-4 1 2-2-4-4-1-3v-8l-2 2-2-5-2-2-2-4-3-2-2-4-3-2 1 5 2 4v18l1 4-4 8-1-7-1-9-1 1-1 2v3l1 2-1 4-3-3-4-5 1-4 1-7 2-4v-3h-1l-4-4h-1l-1-3h-2V76l-1-4V62l-1-4v12h-1v7l1 4-3-1v-1l-3-2-1 1 3 3v1l3 1 4 8v5l1 5-3 1 2 3-2 1 2 6 1 4 1 7-1 4-1-3v3l-1 5h-1v7l-2 4-6-6v-5l1-4v-5l1-4-2-4-3-2-1-4-3-4-1-9-1-5V72l-2 4 1 4-1 4-1 8-1 1-1 5v3l-1 4-6-2-4-2h-2l-2-5-1-4-1-3v-3l-2-4V61l1-4v-2l-2 1v26l-2-3h-1l-2 1v-2l-9-3-4-3h-1l-6-3-4-1-5-1 1 4 6 1 1 2 6 2 8 4 7 7 2 5v2l-5-3-2-2v2l2 2 2 5 5 1 8 4 4 3 3 1 3 3v3l1 6h-2l1 7 2 4-4-4 2 6-1 4 2 4-2 1 1 4-1 3v5l-1 4-2-5-3-4-2-4-2-2-3-4 1-4-2-2v-3l-1-7-2-4-1-5-3-4-1 1-1 4 1 4v3l1 5-2 1 1 4-1 1-1 7-4 3-2-4-4-4-2-5-3-4-2-4-1-5-3-4-2-5-1-1-3-6-2-2v-3l-2-4-2-5-3-5-2-4-1-7-2-1v3l2 6 1 2 1 3 1 2 1 3 1 2 1 3 2 4 2 5 1 4 1 2-6-1 1-1-3-1v1l-7-1-4-1h-5l4 2h5l4 1 5 1 5 5 2 1v5l2 2 1 4v3l2 6-3 1 2 2-4 1 6 2 4 2 6 5 5 5 3 4-4-1-4-4v2l2 2 2 3 1 1 1 4-1 1 2 2 2 3-2 1 2 5 1 1-2 4-6-3-6-6-4-2-3-2v-2l-2-1-3-5-4-5-1-3v-1l-2-2-2-3-3-4-8-8-1-2-2-1-2-6-2-2-6-8-2-2v2l1 2 1 1 1 2h-6l-4-1h6l-3-1-4 1H60l4 1h3l5 1 7 1h2l4 1 1 4 2 2 1 3 2 2v1l2 2 2 4 2 2 3 5 2 2 3 5 3 4-8-1v-1h-4l-5-4-5-3-2-2h-1l-4-3-4-1-2-2-5-3-6-5-2-3-4-2-5-5h-2l2 3 3 1v1l2 4 1-1 1 3h2l2 2v1l2 2 6 5 1 2 6 6-5 1-10 1-3 2h3l8-1 4-1h7l4 1v2l1 1h3l2 2-2 3 3 1v2l-1 4 1 1 4-1h3l4 1 1-1 3 1-2 2-4 1h5l2 3 9 9-1 1 4 4v3l1-1 2 2 2 4 1 1 1 4-2 4h-6l-4-1-3-1-4-1-5 2-6-2-4-3-8-4-4-1-4-2h-3l-3-1-3-3h-2l-4-4-9 1-4-2-6-1-4-2H21l-4-1 2 2 5 1v1h6l4 2 7 1 4 2 3 2 5 1 3 1v1l5 1v1l7 1-3 2-4 1v1l-4 4-3 1-2 1-2 2v2l3-1 4-1 2-1h3l4 1 1-1 1 1h3l4 2h3l2 2 4 2 2 2 1 4-4 2 1 1 2 1 2 3 4-2 4 1h7l5 1v3h6v6l3-2 1 2 3 1-2 2 4-1v-9l1-4 2-4 3-1 1-3 5-5h5l4 1 5 3 4-1v4l4 2v-3l-2-6-1-5 2-2h3l1-4 2 2h6l3-1h3l1 2h3l1 1-1 1 5 1v2l-2 2 2 2 3 1-6 1-4 1-5 1-4 2-5 1-2 2-3 1 1 3 2-2v5l2-4 1 5-1 3 1 1 1-1 1-2 4 4-2 3h-3l-6 2-7 1-4 2-7 1-4 2-7 1-1 1-3 2v3l1 1h3l1-1 4-1h11l1 1 4-1 2 2 1-2 3 1-2 1 1 3 2-3 5 1h3l2 2 1-2 3 1 4 2h2v-3l3 3h3l5 1 1 1 3 1-2 2 4 1 2 3 2 4-3 1-4 3-4 2-4 3-5 2-3 2-4 3-5 2-2 2-4 2-4 3-4 2-8 6-2 1-2 2-12 10-5 5-2 1-1 5-2 2-2 4h-3l1 2h2l4-4 4-3 3-2 3-3 4-2 1-1 1 4 2 4 1 7 4 12 2 4v1l2 4v2l2 4v2l2 4v1l1 3 5 10v2l1 1h5l2-3 4-8v-5l-2-4-1-4v-5l-2-4-1-6h-1l-1-7-2-4-1-5-3-4-4-10-2-4 4-4 6-2 4-3 6-2 4-3 6-2 4-3 4 1 1-1v-2l4-1 4 1-2-2h6l5 1h3l4 2h3v6h-1l-3 3-2 3-3 5-3 4-3 5-2 2-1 3-3 3-1 3-2 2-2 4-3 4-2 5-2 2-1 8v2l1-4 3-4 2-4 2-5 2-2 2-4 3-3 2-5 2-2 6-8 2-2 3-5 2-4 3-4 2-2 2 1-1 4 3-3v3l-2 4-2 2-2 5-2 2-18 24-3 5-4 5-3 3-2 5-3 4-1 1-1 4-2 4-1 5-2 2h-3l2 3v11h-40l-4 1h-9l-4 1-3 3 6-1 4-1h19l7-1h24l4 1 4-1 5 1h6l5-1h3l5 1 4-1 9 1 4-1h5l4 1 4-1h12l7 1 4-1 4 1h3l4-1 4 1h3l4-1 4 1 4-1 4 1h3l4 1 4-1h5l4 1h8v3h-14l-7 1h-12l4 1h16l-4 2-1 3-2-3v7l-4 1 4 1v7l-6 1h-3l-1 1h5l-4 1H122l4-2h-6l-3-3v-3l-2-2 3-1 1-3-1-4v5l-2 1v-7l-4-1v16h-1v2l2 3 1 1 2-1 5 1h6l5-1h15l7 1h6l9-1 5 1h3l6-1 7 1h6l5-1 5 1h3l5-1 9 1 4-1h13l10 1 5-1 4 1 4-1h49l4 1h38l7-1v-25l-5-5h-13l-4-1h-35l-4-1-1-7-1-10 2-4 1-4 1-8 8 16 1 4 4 1 4-2 1-5 2-2 2-6 3-4 2-6 2-4 1-7 1-4 1-9 1-4v-13h2l4 2v1l2 1 3 2 1 1 2 1 3 3 3 1 1 2 3 3v1l2 2 1-2v2l1 1 5-1v-8l1-7 1-4v5l1-3 3 2 5 2 4 3 5 2 2 2 5 2 3 3 3 1v1l6 3 1 2 3 2 4 4h1l2 2 5-1 1-3v-11l-1-10v-5l-1-9-1-10-2-4-1-6h-1l-2-6 3 2h5l2-2-2-5v-3h-1v2l1 6-4 1-1-3-2-2v-2l-3-2h-3l-1-3-2-2-4 1v-2l-3-2-5-2-4-3-2-2h-3l-2-3-7-1-4-2-7-1-4-2h-3l-4-1-3-2-3-3h5l5-1-1-4v-5l-1-4h3l3-2 4-3h3l3-1v-2l4 1v-2l4 2 3-1h2v2l4-1 4 3 3 2 6 6 3 4 3 5-1 2 3 2 3 9 1-3-2-4-1-5-2-4 3 3 3 5 1 6 1 4 1 5 1 4v1l2 5h1v-4h-1l-1-7 1 1 3-4-2-4-1-5h2l10 1 4 2 7 1 6 3h2l5 2 2 2h5l1-5-2-2-2-1 1 2 1 3-3 1-1-2v-3l-9-15-3-3-5-6-2-2-8-6-2-1-4-3-5-2-4-2-5-2-4-2-5-1-1-2h8l5 2 6 2 4 3h3l3 3 3 2 4 4 6 5 3 4 2 1 3 5 2 2 2 5 3 4v-3h-1l-1-3-2-4h-1l-1-3h-1l-1-3-2-1-1-3-3-3-2-3-2-2h-1l-6-6-2-1-2-2-2-1-1-2-4-2h-1l-8-4 6-1 4-2 7-1 4-2-1-4-4-3-1-1-2-1 3-2 7-1 4-2h5l4-2 4-1 1-2v-3l-2-1v3h-2l-2-3-2 1-4 1h-9l-4 1-5 1-4 1-9 3-1 2-5 3-5 1-4 1-5 1 2-2-2-2-1 3-4 1-2-2-1 3h-3l-6 3-5 1-2 2-4 2-4 1h-1l-4 2-4 3-5 1-4 1-1-1-3-1-4-2h-5l3-1 1-3v-3l3-1 2-4v-3l5-3 9-9 5-6 3-3 5-2 4-1h7l1-1-4-2 1-1 1-4 3-1 1-1-2-2 5-1 4-1h15l-1-2 4-5 5-5 1-3 3-1 5-6 6-5 1-5-2-2 1 2-2 2-4 2-4 1-3 3-4 3-2 2-3 2-7 7-4 2-5 5-8 4-4-1-3 2-1-1 3-5 3-4 2-6 3-4 2-5 3-4 2-5 5-1 4-1h-2l-4-2 3-4 2-4-1-4-2 5-2 2-3 5-2 2-3 4-2 4-2 2-3 5-2 2-2 4-2 2-3 5-2 1-1 3-2 1-1 3-2 2-2 4-5 5v1l-13 13-4 2-2 2-5 1h-3l-1-1 2-5 3-4 3-5 3-4 1-3-2 1-3 3-5 6-2 1-3 3-5 6-4 2-1-1-4 2h-3l-4 2-5 1-2 2-6 2 1-8 3-4 2-4 3-5 3-4 5-5 3-1 4-2h5l4-2 4 1 1-2 3-4 5-5 4-3 5-5 3-5 3-4 2-5 3-4 2-6 3-4 2-4 6-1 4-2h-4l2-3 1-5 2-4 1-5 2-6 1-5v-6l-1-4-2-1-1 5-2 4-2 5-4 8-2 5-2 4-2 5-3 4-2 6-3 4-2 6-3 4-2 5-3 4-3 5-2 2-2 4-4 3-2 2-4 1-1-1-4 2-2-2 3-3v-3l1-5 2-4 1-9 1-5 1-8 2-4v-5l2-4-2-3-1 4-1 7-2 4-1 5h-1l-1 7-2 4-2 6-1 1-1 5-4 8-2 5-4 2-2-1v-16l-1-4-2-2v10l-1 4-1 5-2 2v3l-3 1 3 1-4 2-1 2-3 2v2h-2l-1-5h-2l-1 2-2 5-3 4-2 4-3 1v2l-3 3-2 4-4 2-1 2-5-5 4-8 2-2 3-5 2-2 6-5 2-2 3-1 2-1 1-2v-3l1-4 2-2-1-5-3-1-1-5-1-1h-2v-3l-4-8v-3l-2-1h-3l1-4v-10l-2 4-1 7-5-1-2-4-1-4-1 1-1 4v-5l1-4v-5l-2 2-3-4-3-6-1-3-2-3 1-4 4-4 2-4 3-4 1-2 1-3 5-1h1l5-4v-2l-2 1-3 3-1-5-2-6-2-4-2-6-3-4-2-6-1-2-3-4-1-5-1-2-1-3zm-68 120h2l2 1 1 5 2 2 2 5 1 4 1 8 1 1-1 4-2 1h-3v-2l-4-1-2-5-2-4v-15zm-36 29 8-2 4 2 4 1 4 2 4 3 3 3 1 3 2 1 1 3 1-1 1 4-1 1 2 4v3l-3 3-1-1 2-3-3 1h-3l-2-2-4-3-2-2-6-5-11-11zm100 30-2 1h-3l-4 1h-21l2-5 2-2 3-1 4-3 6-1 5-1 4 3 4 1-2-3h3l1 3v3zl187 18Zm70 27-2 1h-7l-7 1-4 1h-14l4-1-4-2-3-2h-6l-4-2 2-2 2-3 5-1 2-2h3l2-2 5-1 2-2h5l4-2h8l2 2 1-1 6 6 1 6v3l-1 4zm113 14-1 4-4-1v-3l-1 3-1 1-1-4-1 1-1-1v-3l-1 2-2-3-4-1h-3l-3-2 3-4-4 1v-3l3-3 5 1v-2l4 1 5 1 2 2 3 1 2 2 1 4-1 1v2h-8l4 2zm0 0 2 1 1 3 1-3 3 1-2 4h-3l-2-1zm-71 10-7-1-4-1h-8l-4-1h-7l-4-1-9-1-5-1-4-1-6-1-4-2-2-2h7l4-2 6-2 2-2 5-2 5-5 1-6h2l4-2 6-1h3l4 1h3v2l5 5 3 4 1-1-3-5v-3l4 3 1 3 3 4 1 6v3l2 4 1 6v4l-6-1zm-13 25-1-1-8-10-6-5v-2l4-1 1 2h3l2-2 2 2 3 1 1-1 5 5 1-3 6 12 2-2 2 6 1 5 2 2 1-3v5l1 4 1 3 2 1-2 1 1 3 1-1v5l2 2-3 1 4 1v6l-1 4 1 5v21l-4-1-4-5-2-1v-3h-2l-5-5-6-5-2-2-5-3-4-3-5-3-2-2-6-2-4-3-5-3-4-3-5-2-3-3-4-1-4-3-5-2-2-2 1-1-4-2v-2l-3-4-5-2-5-3v-2l1-3 3-4 2-5 1 1 4-1h2l5 2v-2l1-1 2 2h2l2-1h3l5 2v-3l5 1 1-1 6 2h3l4 2 4 4 5 3 1 3 5 5 3 5 3 4 2 5 2 4 3 5 4 8 2 5 2 2 2 5 2 6 2 4 3 9v-3l-1-6-1-3-2-2-1-5v-1l-3-4-2-6-3-4-1-5-3-4-2-5-3-4-2-5zm-105 27h-3l-3-1-1-3-3-4-10-12-5-5v-3l-1-3-3-3-5-6-2-4-3-4-1-5v-3l1-4 3-1 4-3h3l2 2 1-4 5 1 1-2 3 1 1 3v-3h3l4-1 2 2 1-2h5l2 1 1-1 5 1h2l1-2 1 3v2l3-1 2-2 1 3 1-3 2 1 2 4 2-2 2 2 1 3 2-4v8l2 3-2 1-1 4h2l-1 2-3 4-3 5-2 4-1 1-2 4-2 2-4 5-3 5-2 2-2 4-3 4zm47 3-1-3-2-3 2-2 2 2 2-2 1 4 4 1 1 3 4 1 1 3 1-2h3l2-2 1 3 1 1 1 2 2 1 1 4v3l-1 4v3h2v3l-1 8-2 2-1 5 2 1-1 7-2 4-1 8-2 4-1 8-2 4-1 7h-3l-2-2-4-10-2-3h-2l1-4-4-5-2-2-2-4-1-3-2 2-3-4-3-5-2-3v-3h-5l-1-3-5-5v-3l-2-1-5-5-1-4-3-4-2-5-3-4-1-6 6-5 2-3h1l1-2 4 1 1 1 2-1h3l4 2 7 1 1 3 2-4 1 3 2 2 1-3 2 4 1 6 2 4 1 8 1 4 1 5v1l1 4 2 4 1 9 2 4 1 7 1 1v6l2 4-1 5 2 4 1 1v-3l-1-3-1-9-1-7-1-4v-2l-2-4-1-5-1-9-2-4v-5h-1l-1-6-1-4zm-55 20 4-5 2-2 2 1 3 4-1 4v3l1 4 2 1v11l3 2v5l2-2v3l1 10 1 3v-3l1-5 1 1v12l3 4-3 1 3 3 2 5 1 1 1 5v8l-1-4v-3l-1-4-1 4-1 5-2 2-1 2-5 1h-55l-9-1 3-1-2-3-2-2 2-2 1-5 1-1 1-5 1-4 2-4 5-5 2-4 4-1-1-1 2-4 3-1 2-5 6-8 2-2 5-6 7-7zm7-199 5 1h3l3 3v2l2-2v-2l3 2 2 1 3 3 3 2 1 1 3 5-1 4 2 2 1 4h-3l-2 2 1 1-4 4 2 4v6l1 1h-2l-1-8-2-2 1 9-6 3-1 1 6-1h1l-2 2h-3l-3 1v8l-1-4v-5l-2 2-1 3h-2l-1 3-1-4-1-3-1 8-1 2-4-1h-2v3l-5-1v-3l-1-3-1 2-1 1 2 2h-3l-2-2-4-2-3-3-6-5-4-4-1-5-2-4 2-10 1-1v-3l3-5 6-6 4-3 10-2-2-2 4 1 4-1 3-1zm-40 40 4 1 1 3 2 2 1 2h2l1 3 2 1 1 4 1 1v3l1 4-2 2-1-2-4-1-4-2 3-2-4-1-2-2v-2l-2-2-2-4v-3zm206 143 4 2 3 5v1l-3-2-2-2zm15 11 3 1 1 6 3 4v6l-2-4-2-6-2-4z"/><path d="m188 34-2-1-3 3-1 6h-1v5h-1v5h-1v5l-2 3-1-3-12-12-2-3-1-1-4-3v2l1 1 6 8 3 3-1 1 3 1 1 4 2 3 2 4-2 2 2 2v2l3-1v-5l2-4 1-4 2-1-1-1 1-5 1-4 1-9h3l3 3 1 3 5 5h2l5 6 5 5 2 4-1 6 2-2v-1l2-1v-4l-10-10h-1l-1-4-1 1-1-3-1 1-1-3-1 1-2-2h-1l-1-3-4-4z"/></g><path fill="#70938a" d="m239 33-1-8V10l-3 1-1 5-2 4v1l-1 7-1 4v2l-3 3-1 2-1 5 1 4v2l3 3-5-1v4l2 2 2 1h8l2-3v-2l1-4z"/><path fill="#488376" d="M233 12h-1Z"/><path fill="#377265" d="m242 94-1-9-2-4-1-5 2 2 1-3 2-4 5-5 1-5 3-1-3-2v-1l1-5 1-4 1-5-3-4-1-3-4-10-2-4-1-6-2-4v6l2 4v2l1 6 1 4 1 7 1 4 1 5v11h-3l1-5-2-4v-5l-1-4v-3l-1-3-1-4v17l-1 4v2l1 4-1 4h-1v4l-1 4-6 1h-2l3 2-2 2-2-1 2 5 3 3v2l2-2 1-2 2-2 3 6 1 8z"/><path fill="#588a7f" d="M231 17v-1l-1 1Z"/><path fill="#377265" d="M230 19v-2l-1 2Z"/><path fill="#04fc04" d="M229 21v-2l-1 2Z"/><path fill="#377265" d="M227 26h-1Z"/><path fill="#488376" d="m226 39 1-2 3-3v-2l1-4 1-7-2 2-1 7-2 4-2 3z"/><path fill="#70938a" d="M241 40v3l1 4v5l2 4-1 5h3V50l-1-5-1-4-1-7-1-4-1-6-1 4 1 10z"/><path fill="#487c72" d="M224 33v-1l-1 1Z"/><path fill="#377265" d="M154 33h-3v2l-2 4v9h-1v7h2V45l1-5 1-4 2 1 2 3h1v-2l-2-4h-1zm48 80-1 1-2-2-2-4 1-4v-3l1-5-2 4-1 7-1 4 4 5 3 3 1-4z"/><path fill="#275249" d="M252 33h-1Z"/><path fill="#377265" d="m155 34-1-1Zm34 1-1-1Zm-8 7v-3l-1 3Zm-2 10v-3l-1 3Zm11-16-1-1Zm32 1v-2l-1 2Z"/><path fill="#275249" d="m296 37-2-2-4 1-3 3 1 1 2-2 3-1 2 4v9l1 4 1 7v9l1 3 3-1-1-6-1-4 2-4-2-1v-3l-2-8v-5z"/><path fill="#588a7f" d="M323 36v-1Z"/><path fill="#488376" d="m152 66 1-4-1-1v-6l1-7-1-7 1-1-1-4-1 4-1 5v10h-1v2l1 4 1 5z"/><path fill="#70938a" d="M157 40h-1l-2-3-2-1 1 4-1 1 1 7-1 7v6l1 1-1 4v13l1 4v11h6l-1-5-1-7v-3l2 2 1-6 1-4v12l-1 1-1-1 1 4v7l2-2v-5l1-4V70l-2-4v-3l-2-4-1-3v-3l-1-1-1-8-2-2 4 1v-2zM91 265l1-1-1-4h2v-2h-3l-4 2-1 3-3-2 4-2v-2l-4 1 2-2h-2l-6 5-4 4-1-4 3-4 2-5 2-1 2-4-3 1-2 2-2 6-2 1-1 3-2 4-2 3-2 6-3 4-1 1-1-4-1 5h-1l-1 5v1h2l9-9 4-3-2 4-1 1h2l3-3 3-1 1-2 4-2 5-4zm138 161-1-2h5l1-3 1-4-4-2h-43l-3 1 2 2 1 5 5 1v-8l2 8 4-1h3l4 1 3-2 1-4v5l4 1 2-1 1-3 2 4h6v-7l2 1v5l-1 3z"/><path fill="#488376" d="M187 37h-3l-1 9-1 4-1 5 1 1-2 1-1 4v11l1-1 1-5 1-4-1-4 3-1-1 4v5l1 4v6h1v-5l1-4 1 3h1V58l1 4v10l1 4v10h2V70l1-4v-1l-1-5-1 1-1-3h3l2 4 1-1v-3l-1-5 2 2v-2l-1-3-3-1-3-4-1-4-2-1 1 7 3 4 1 5-3-4-1 4v2l-1 3-1 4V51l-1-1V38h2Zm95 44-2-2-2 1-1 2-2 3 1 5 2 3 2-3-2-2 3-3z"/><path fill="#275249" d="m191 37-1-1Z"/><path fill="#70938a" d="M187 40v-2h-2v12l1 1h3v1l3 4-1-5-3-4z"/><path fill="#275249" d="m192 38-1-1Z"/><path fill="#04fc04" d="M221 39v-2l-1 2Z"/><path fill="#588a7f" d="M291 43h2v-6l-3 1-2 2h-1l-1 3-2 3h1l3-3zm-67 13v-4l5 1-3-3v-2l-1-4-3 2 2 1v3l-2 2zm-37 14-1-3-1 4v9l3 1-1-4z"/><g fill="#487c72"><path d="m298 73-1-3v-9l-1-7-1-4v-9l-2-4v6h-2v4l2-1 1 4v10h-1v6l1 4 1 7-1 1h1l2-2zm-61-5-1 1-3-3-1 1h-2l-3-2-2-1h-3l-2 1 3 4 2-3 4 3-1 3-2-3-2 2 2 5h1l2 1 2-2-3-2h2l6-1zM123 79h-2l-5-3-3-3-1-3-5-1-2-2-4-1-1 4 1 7 2 4 3 5 2 5 2 4v3l2 2 3 6 1 1 2 5 3 4 1 5 2 4 3 4 2 5 2 2 4-2-3-1 4-4-1-5-3-4-1-6-2-4v-2l-2-4-1-6v-8l-2-2v-3l-2-4 3 1 2 2 4 3v-2l-4-4zm6 31-1 4h-3l1 2 4-1-1 5 2 2-1 4v3l1 4-3-4-2-6-2-4-1-5-2-2-2-6-2-5-2-4-1-6v-2h3l4 4 3 5 1 4h-3l1 1 3 1 1 5zm-19-30 3 1v2l5 2-4 3-4-1-1-6zm190-1h-3l-3 3 1 3h1l2-4v2h2zM72 122h-2l-4 1h-2l4 2-3 2 2 2v1l-2 1 2 2v-3l6 1 1 2 4 2 1 2 5 2 5 5-2 4-3-1 2 2 5 3 5 4h6v-3l-1-2-5-2v-2l-3-5-4-2-4-4v-2l-3-4v1h-4l-3-3 1-1 2-1 4-1h-1l-9-1zm148 40-1-2-1 3-3-2 2-1 1-9h2v-11l2 2 1-3 2 2 2-2 2 3 2-2h6v3l-2 2v6l2-5 3-1v-5h3l-1-3-2-4-5-1-1 1-4-1-2 2h-3l-3 2h-2l-1 1-2 1-1 2-4 4-2 4-3 4 1 2 1 1-1 5 3-2v4l4 2 2 2 3 1h2l3-1v-2l1-4v-8l-2 2 1 5-2 2-1 4zm-99 2v2l3 1v-11l-2-2 2-2-3-1v-3l-2-4-5-2-3-3-4-1 5 6 2 2-1 1 1 2 3 4 3 3zm122-14v3l3-3 1 2h2v-3l-2-6-4 1zM52 168l-1 1h-7v-2h-8l-3 3h-2l-1-1-2 1v1l-1 1h-1l-2 1v1l-2 2-4 2 1 3 10-1 5-1 5 1 4 1-4-2 2-2h12l7 1 5 1 6 2-1 1-4 1 4 1-2 2-4-1-2 1 4 5h2l1-4h19l4 2 1-1h2l1 7 4 2 2 2-1 1 3 2 5 1h3l-3-3 1-4-2-1v-2l-2-2-3-1-1-2-6-1 3-2H85v-3l-1-1-1 2-4-1-4 2v-3l-3-1-4-2h5l1-4h-5l-4-2h-5v2l-3 1-4-2-2-2 4-1 9-1-1-2-9 1z"/><path d="m94 197 1-5-2-2h-3l3 4-1 2h-2zm19 120-1-2 1-4v-10l1-6 1 1 2-4 2-1 2-5 2-4-1 6 2-4 3-1v2h2l3-1v-2h-3l4-2 1-2 2 2 1-2h2l3 1-2 5-2 1-2 4-2 2-2 4v3l-5 5-2 5-2 4-2 6-2 3v-3l-1 1-2 3 2 2-1 5v-3l-1-1-1 5v2l-2-1zm37-30 2 2h3l1-2v-2l-2-1 2-2 4-1-2 4 3-1h2l-8 8 3-1 2-2 4-2-1 2v3h-3l-1 2-4 2-1 1-3 2-6 6-3 2v1l2-1 8-6 4-2 4-3 4-2 2-2 5-2 4-3-2-5-3-1 4-2h3l2 3v-3l-4-4-2 1h-1l-1-3h-6l-8-1v3l-3-2-1 1h-3l-3-1 2-3-3 1-1-1-4-2-4 2-3 2-3-2 3-1-4-1-4 1v2h-3l-1 1-1-1-2 3v2l-3 1-2 6-1 6-1 4h-2l-1 1 1 5-4 3-5 3-3 1-1 2 3-1 4-2 5-3 1 4v7l1 4v12l2 4-1 4h4l2-4 2-2 1-5h-1l1-5 2-5 2-2 1-5 3-2 7-7 3-5 3-1 1-3 2-3zm-61 24-1-2v-3l-4 1 4-5 5-2 4-3-4-1-3 3-4 1-2 2-1-3-3 3-4 1-1 2-2 1-1 3-5 5-1-1-3-1-1 4 1 1h3l-1 3-1 1v3l-1 3-3 1 1 2v2h-2l-1 2-1 3h3v2l3-4 12-10 5-4 4-3 3-3zm-19 12 2 1-1 2-4 2-2-3 5-1zm190 4-1-1-1-4h-1l-3-2 2 5z"/></g><path fill="#275249" d="M327 51h-1l-1-10-2-4v6l1 4-2 4 1 4-1 5v3l1 4-1 4v7l-1 4v6l-2 4-1 6-1 1h3l4-8 6-6 5-3 2-2-4 1-2 1-3 2V70l-1-5zM192 39v-1Z"/><path fill="#377265" d="M316 40v-2l-1 2Zm11 11"/><path fill="#487c72" d="M148 48v-8l-1 4z"/><path fill="#275249" d="M162 41h-1Z"/><path fill="#377265" d="m179 61-2 4v5l-3 1v-2l-2-2 2-2-2-4-2-3-1-4-3-1 1-1-3-3-6-8v2l1 5 1 4-1 1h-1v3l1 3 2 4v3l2 4v13l-1 4v5l-2 2v-7l-1-4 1 1 1-1V71l-1 4-1 6-2-2v3l1 7 1 5h-6V83l-1-4V66h-1l-1-5-1-4-1 4v21l2 4v3l1 3 1 4 2 5h1l-1-6 4 1 1 4-3 1 4 2 6 2 1-4v-3l1-5 1-1 1-8 1-4-1-4 2-4v19l1 5 1 9 3 4 1 4 3 2 2 4-1 4v1l2-4 2-10-1-4-2-2-1-5v-4l-1-5-1 4v7l-1-3-1 4-1-3v-3l-2-4v-3l-2-2V75l1-3 3 1v3h3l1 2 1-1 3 2v-3h-1v-6l-1-4-1 7h-3z"/><path fill="#275249" d="M162 42v-1Z"/><path fill="#377265" d="M313 43h-1Z"/><path fill="#588a7f" d="M158 53h1l1-1-1-4-1-5-4-1 2 2 1 8zm158 65 1-2 1 3 2-4v-3l1-4-3 4-2 3-1 1z"/><path fill="#488376" d="M180 47v-5l-1 4z"/><path fill="#70938a" d="M291 47v-4h-3l-3 3h-1l-1 2-1 1v3l-2 2-1 2-4 4-5 6-3 2v5l1 4 2-1v-2h3l-1 5v2h2l1-3v-3l1-1 4 1 1-4 2-4v-1l1-4 1-6 3-4 1 1v21l-2 4 1 1 2-4v-5h1z"/><path fill="#588a7f" d="M293 60h1V50l-1-4-1 1v6l1 4z"/><path fill="#377265" d="M310 47h-1Z"/><path fill="#487c72" d="m224 56-2-4 2-2v-3l-2-1-2 4-1 8-1 4 1 3h1l2-1v-3l-1-4 5 1z"/><path fill="#275249" d="M168 48h-1Z"/><path fill="#377265" d="m169 49-1-1Z"/><path fill="#588a7f" d="m267 68 3-2 5-6 4-4 1-2 2-2v-3l1-1-3 1-1 2-7 7-1 3-2 2-1 2zM93 265v-1l5-2-1-6 1-1 2 6 4-1 3-1-2-4-1-6-3-1 2 2-8 4-2-3-4 1-6 1-1 3h2l-2 2 4-1v2l-4 2 3 2 1-3 4-2h3v2h-2l1 4-1 1z"/><path fill="#377265" d="M147 56v-3l-1-4v7Z"/><path fill="#275249" d="m170 50-1-1Zm0 1v-1Zm34 0h-1l2 1zm5 5"/><path fill="#588a7f" d="M189 52v-1h-3v14l1-4 1-3v-2zm-33 49 3-1-1-4-4-1 1 6Z"/><path fill="#275249" d="M306 52v-2l-1 2Z"/><path fill="#407a6c" d="M146 56h-1v5l1 4z"/><path fill="#377265" d="M213 58v-1l-1 1Zm-101 8h1l-1-1Z"/><path fill="#488376" d="M237 64h1l1-4-1-4-2 3h-8l2 2 5-1 3 2zm118 189h5l1-2-5-2-4 2z"/><path fill="#588a7f" d="M183 66v-5l1-4-3 1 1 4-1 4-1 5-1 1v1h3zm10 0h1v5l2-4-1-5-2-4h-3l1 3 1-1 1 5z"/><path fill="#377265" d="m211 58-1-1Z"/><path fill="#588a7f" d="m228 59-2-1-5-1 1 4v3h3l2 1 3 2h2l1-1 3 3 1-1v-4l1-2-3-2-5 1zm-93 47v1l-2 2-1-4 1-1-4-2 4 12 1 5 2 1 1 4h1l1-5-2-4-1-5z"/><path fill="#275249" d="m282 81 2 2 1-5 1-10 1-9-1-1-2 4-1 4v10zM99 66h-1Z"/><path fill="#377265" d="M112 65v-1l-4 1-4-1-5 2-1 1v2l2 1 1-4 4 1 2 2 5 1 1 3 3 3 5 3h2v-2l6 2 1 2 5 2 1 2v2l-5-2v2l3 5 2 2 1 4-2-1v2l-3-2 3 9 1 4 1 5 2 4-1 5h-1l1 7-2-2-4 4 3 1-4 2 2 2 2 4 4-3 1-7 1-1-1-4 2-1-1-5v-3l-1-4 1-4 1-1 3 4 1 5 2 4 1 7v3l2 2-1 4 3 4 2 2 2 4 3 4 2 5 1-4v-5l1-3-1-4 2-1-2-4 1-4-2-6 4 4-2-4-1-7h2l-1-6v-3l-3-3-3-1-4-3-8-4-5-1-2-5-2-2v-2l2 2 5 3v-2l-2-5-7-7-8-4-6-2-1-2-6-1-1-4-1-1h-3zm28 34 4 1 5 5v3l6 6v3l1 5 3 12 1 5-1 3-2-2-1 1-2-4-1-6-1-4-2-6-2-5-4-8-3-5z"/><path fill="#70938a" d="m216 66-3-1-2 1v1l-1 4 1 3h2l1 4 2-4z"/><path fill="#588a7f" d="M376 68h-1ZM214 92h1l-1-4-2-2h5v3h2v-7l-2 2-3-2h2l2-3v-9l-2-4v8l-2 4-4-1 1 5-2 1v3l2 4z"/><path fill="#275249" d="m223 69-3-3v6l4 8 1 1-1 5 3 1-1 3-1 1 1 1 5-4 1-2v-2l-3-3-2-5h-1l-2-5z"/><path fill="#588a7f" d="m224 71 2-2 2 3 1-3-4-3-2 3z"/><path fill="#488376" d="M261 72h1v-6l-5 1-1 3-1 2v3l2-3 1-4 3-1z"/><path fill="#487c72" d="M118 68h1l-1-1Z"/><path fill="#70938a" d="M261 72v-5l-3 1-1 4-2 3-1 3-3 4-1 3v7h3v-2l2-5v-3l1 4 3-3 1-3 2-4z"/><path fill="#275249" d="m268 77-1-4-2-4-1-1 1 6v4l-1 4h3l-2 2-2 3 2 3 1-3 4-4v-1l-1-4z"/><path fill="#377265" d="m282 81 1-5v-9l-2 4-1 4v4zM124 69"/><path fill="#275249" d="M124 70v-1Z"/><path fill="#377265" d="M395 104v-1Z"/><path fill="#488376" d="m214 78-1-4h-2l-1-3-1 4-2 2 1 4-2 1v2l3 2v-3l2-1-1-5z"/><path fill="#377265" d="M409 154h3l-3-1Z"/><path fill="#70938a" d="M177 76v-3l-3-1-1 3 2 4 1 5v4l3 2v-8z"/><path fill="#488376" d="m194 89 2-4V73h-2l-1 4v5l-1 4 1 3zm78-8v-2l1-5h-3v2l-2 1z"/><path fill="#588a7f" d="m280 75-4-1-1 1v3l-1 3h-2l-3-3 1 4 4 1 1 2 2-3 1-2 2-1zm20 4v-5l-2-1-1 3-2 2h-1l-1 3-3 3-3 4 3 1 3 2-4 5-1 4h1l5-1h1v-5l1-9h-1l-1-3 3-3zm-12 23h-1v-5l-1-1v2l-1 4h-2l-3 1v3l1 1 3-2h3z"/><path fill="#275249" d="M294 99v3l-2 4-1 7h-2v-6l-2-1v35h2l7-7-1-4-2 2-1-9-1-4 1-5 3-4 2-2 5-1v-3l1-4V77l-1-4v6l-2 4v2l-2 4v5l-2-3-1 3v5zm-94-25 1 1-2 6 1 1h2l2 1 1-3-2-2v-3z"/><path fill="#487c72" d="M176 88v-4l-1-5-2-4v12l2 2v3l2 4v3l1 3 1-4v-6l-2-1z"/><path fill="#588a7f" d="m181 78-1-2h-3l2 6v8l-3-2 1 3 2 1v6l1 3v-7l1-4v-1l-1-4 1-4zm-50 7 5 2v-2l-1-2-5-2-1-2-6-2v2l4 2zm-2 25-2-1-1-5-3-1-1-1h3l-1-4-3-5-4-4h-3v2l1 6 2 4 2 5 2 6 2 2 1 5 2 4 2 6 3 4-1-4v-3l1-4-2-2 1-5-4 1-1-2h3z"/><path fill="#488376" d="M184 82v-1l-3-3v3l2 6 1 5 1 4v5l-2-1-1-1 1 5 2 2 1 4-2 10-2 4v10l2 2 1 3h1v-16l3-1v-9l-1-7-2-1v-5l1-1 1 1v-6l-1-1-1-5z"/><path fill="#377265" d="m102 85 1 1v-1Zm2 5"/><path fill="#588a7f" d="m110 80-1 1 1 6 4 1 4-3-5-2v-2z"/><path fill="#70938a" d="m238 82-1-2-2 2-1 2-2 2 2 2-2 5v3h2l-4 2 1 3 2-2 1 1 1 4 1-1v-2l-1-5 2-1 1-4-2-2 2-4zm-107 5-4-3-2-2-3-1 2 4 5 6 6 6 2 1-1-4-2-2zm51 12 1 1 2 1v-5l-1-4-1-5-2-6-1 4 1 4v1l1 5z"/><path fill="#377265" d="m295 94 1-3 2 3v-5l2-4v-2h-2v-2l-2 4zm118 221 1 3 2 4 2 6 2 4v-6l-3-4-1-6zM189 132h1l1-5v-3l1 3 1-4-1-7-1-4-2-6 2-1-2-3 3-1-1-5v-5l-4-8-3-1 2 6 1 5 1 1v6l-1-1-1 1v5l2 1 1 7z"/><path fill="#487c72" d="M242 94h-1l-1-8-2-4v3l-2 4 2 2-1 4-2 1 1 5h1v6l1 4 1-3 1-1-1-4 1-4 2 3z"/><path fill="#588a7f" d="m253 90 1 1h2l3-3-1-4-2 2-1-4v3z"/><path fill="#70938a" d="M205 92v-7h-3v8l-1 2v1l2 2 1-2z"/><path fill="#588a7f" d="m271 93 1-5 1-4-3 1-2 6-2 1-1 5v2l2-1 1-5z"/><path fill="#275249" d="m135 97-6-6-5-6v3l2 2 5 6 1 1 3 2z"/><path fill="#487c72" d="m201 95 1-2v-8l-1 4-2 4v3l-1 5v3l-1 4 2 4 2 2 1-1v-3h-2v-6l2-2-2-3z"/><path fill="#488376" d="M253 92h-3v-7l-3 6 1 3 1 2 1-1h2l2 1z"/><path fill="#275249" d="m278 93-2-3-1-5-1 4 1 4-2 10 1 4-1 6h-1v2l3-2 4-2 1-5v-2h-1v-5l-1-3z"/><path fill="#487c72" d="m236 103-1 1-1-4-1-1-2 2-1-3 4-2h-2v-3l2-5-2-2-1 2v5l-3 1v3l-1 7v3l2 3 2-1h4v-3z"/><path fill="#488376" d="M286 96h-2l1-4 2-4-2 2-4 2-2 6v6h1v-1l3-1-1-1-1-5 1 1 4 1z"/><path fill="#70938a" d="M289 100h-1l1-4 4-5-3-2-3-1-2 4-1 4h2l1 1v5h1zm-157-3-1-1-5-6v5l2 4 1 3 4 2-1 1 1 4 2-2v-1zm200 71-1-4-6 1-4 3-5 2 2 2-1 1 4-1 4-3h4z"/><path fill="#588a7f" d="M202 110v-5l2-2 2-4-1-7-1 4-1 2-2-2v-1l-1 4 2 3-2 2v6z"/><path fill="#70938a" d="M271 97v-4h-3l-1 5-2 1v6l2-1v-1l1-5z"/><path fill="#377265" d="M418 156h1l-1-1Zm5 2h1l-1-1Z"/><path fill="#275249" d="m350 94-1 1-2 5-2 2-4 10v3l-1 5 2-2 2-4 1-8 3-4 2-5zm-221 8-1-3-2-4v3l1 6 2 4v2l2 4 1 6 3 4 1 5 2 2-1-7-1-4-2-1-1-5z"/><path fill="#70938a" d="M283 102h2l1-4-4-1-1-1 1 5z"/><path fill="#488376" d="m269 104 1-2 1-5-3 1-1 5v1z"/><path fill="#70938a" d="m140 99 1 4 3 5 4 8 2 5 2 6 1 4 1 6 2 4 1-1 2 2 1-3-1-5-3-12-1-5v-3l-6-6v-3l-5-5z"/><path fill="#488376" d="m326 103-1-4-5 2-4 2-2 3-5 3-2 6-2 4-3 4 3 1 4-4 2-4 2-2 1-3 3-4 1-2 2-2 4-2v2l-2 2-1 3-1 4v3l-2 4-1-3-1 2-2 6h2l1-2 4-3h1l1-5 2-4zm-59 1-2 1v-5l-3 2-1 5h2l1 5 2-4z"/><path fill="#70938a" d="m321 108 1-3 2-2v-2l-4 2-2 2-1 2-3 4-1 3-2 2v5l-2 4-1 1-2 4 1 6h-2l-1 4 1 4 1-1 1-3 2-4 2-2v-5l2-2v-1h2l1-2h-2l2-6-1-2 1-1 2-3z"/><path fill="#488376" d="M395 103v-1h-9l-4 1z"/><path fill="#377265" d="m88 104-2-1h-5l-5 1-1 5 1 2 1 1v-5h5l5 1 5-1 4 2 2 2 2 1 1 4 2 2h2l1 3 2 4 2 2h-2l-2-2 1 5 2 1v5l-2-1-3 1 3 2 4 1 3 3 5 2 2 4v3l3 1-2 2 2 2v11l-3-1v-2l-3-1-5-6-3-4-2-2 1 3 4 5 3 5 2 1v2l3 2 4 2 6 6 6 3 2-4-1-1-2-5 2-1-2-3-2-2 1-1-1-4-1-1-2-3-2-2v-2l4 4 4 1-3-4-5-5-6-5-4-2-6-2 4-1-2-2 3-1-2-6v-3l-1-4-2-2v-5l-2-1-5-5-5-1-4-1h-5zm17 14-1-2-2-2v-2l6 4 3 4h-3zm290-14h-9l-4-1h-6l4 1-1 1h-5l-3 1-4 2-6 1-2 4-3 4-2 6-3 4-2 5-3 4-3 5-5 5-4 3-5 5-3 4-1 2-4-1-4 2h-5l-4 2-3 1-5 5-3 4-3 5-2 4-3 4-1 8 6-2 2-2 5-1 4-2h3l4-2 1 1 4-2 5-6 3-3-5 1-3 3h-2l-2-1-5 1-3 4-4 1 1-2 4-3-1-2 5-5 3-2 2-3 6-2 6-3 7 1 1 2 2-1 1-1v-3l4-1 2-1-1-2-4 2v-3l5-5 2-3h-1l-4 4h-3l7-7 5-2-1 1v2l2-1 4-3 5-2 3-2-4 1-3-2 2-2 2-1 3-4 4-2 2 5 1 3 3 3v3l2-4 2-2 3-5 2-2 2-4 3-4 2-2 3-5 2-2 2-5zm-22 11 3 1v2l-2 3-4-1h-3l-2 3-3 2 3 1-8 4v-3l6-6 3-1 4-4zm-130 29 4-1 2 6v3h-2l-1-2-3 3v-3l-2-4v8l-4-2-1-1-1 2v14h-5l1-9-2 1v8l-2 2-3-1 1-2-3 1h-2l-3-1-2-2-4-2v-4l-3 2 1-5-1-1-1-2 3-4 2-4 4-4 1-2 2-1 1-1h2l3-2h3l2-2 4 1 1-1 5 1 2 4 1 3h-3v5zm-11-23v1l-3 1-4 1-4-1 2 2-10 2-4 3-6 6-3 5v3l-1 1-2 10 2 4 1 5 4 4 6 5 3 3 4 2 2 2h3l-2-2 1-1 1-2 1 3v3l5 1v-3h2l4 1 1-2 1-8 1 3 1 4 1-3h2l1-3 2-2v5l1 4v-8l3-1h3l2-2h-1l-6 1 1-1 6-3-1-9 2 2 1 8h2l-1-1v-6l-2-4 4-4-1-1 2-2h3l-1-4-2-2 1-4-3-5-1-1-3-2-3-3-2-1-3-2v2l-2 2v-2l-3-3h-3zm5 33 3 1 1 5-2 1v6l-2-1zm-178 2-1-1-3 3-1-1-3 1 3 1-7 1-4 2h-1l-2 1h-3v2h-1l-1 1-2 1-2 2 2 1 3-3h8v-1h5l4-1 8-1 4-1h7l4 2-4 1h-6l-3 1 1 2 4 1 3 1 4 3 3 1 2 2-3 2-4-1h-5l4 2 3 1v3l4-2 4 1 1-2 1 1v3h14l-3 2 6 1 1 2 3 1 2 2v2l2 1-1 4 3 3h-3l-5-1-3-2-3-1-4-2-4-1-2-2-8-1-4-2h-7l2 3 3 1h3l4 2 4 1 8 4 4 3 6 2 5-2 4 1 3 1 4 1h6l2-4-1-4-1-1-2-4-2-2-1 1v-3l-4-4 1-1-9-9-2-3h-5l4-1 2-2-3-1-1 1-4-1h-3l-4 1-1-1 1-4v-2l-3-1 2-3-2-2h-3l-1-1v-2l-4-1h-7l-4 1-8 1zm350-2h-22l-4 1-5 1 2 2-1 1-3 1-1 4-1 1 4 2-1 1h-7l-4 1-5 2-3 3-5 6-9 9-5 3v3l-2 4-3 1v3l-1 3-3 1h5l4 2 3 1 1 1 1-6 4-1 4-3 1-2 4-2 2-4h5l1-2 4-3 4-2 1-3-4 1v-3l1-2-2-2 3-3h4l3-1 4 2 4-1-4-2-8-1-4-2h12l4 2 6 2 5 3 4 3 3 1v2l-10-4-3-1 1 3h3l12 4 4 1-1 2-6-1-2 2h-7l-8 1v1l-2 2 2 2 4-1 1-3 2 2-2 2 5-1 4-1 5-1 5-3 1-2 9-3 4-1 5-1 4-1h9l4-1 2-1 2 3h2v-3l-3-2-3-3h-1l-1-1v-1l-2-1h-1l-4-4h-1l-1-1h-1v-2l-3-1v-1h-3l-2-1h-1l-4-2h-1l-4-2-4-1h-1zl24 8Zm14 9 6 2 2 2 3 1 4 3 5 3v2l-4-2h-3l-1-2-5-2zm-111 55v-3l-1-6-6-6-1 1-2-2h-8l-4 2h-5l-2 2-5 1-2 2h-3l-2 2-5 1-2 3-2 2 4 2h6l3 2 4 2-4 1h14l4-1 7-1h7l2-1-3-2h-7l-6-2h-3l-4 1v-3l2-2 4-2h3l1-2 6 2 4 4zm96 31 1-2-3-5-3-4-6-6-3-2-4-3-4 1v-2h-2l-3 1-4-2v2l-4-1v2l-3 1h-3l-4 3-3 2h-3l1 4v5l1 4-5 1h-5l3 3 4-2 5 2-1 2h-5l4 1h3l4 2 7 1 4 2 7 1 2 3h3l2 2 4 3 5 2 3 2v2l4-1 2 2 1 3h3l3 2v2l2 2 1 3 4-1-1-6v-2h1l-1-1-2-4h-2l-1-5-1-1h-2l-2-1-1 1-2-2-1-3-2-2-1-4-3-4v-2l4 4v-1zm-46 5 1-3h6l1 1 2-2 2 4 2 1-4 1-5-1-4-1zm-134 38-2-1-2-5-3-3-6-8 1-1-1-3-3-1-2-4-5-5-2-3-2-8 4 4-1-3v-3l2-2 2 3h2v3l3 1 1 3v-6l2 2 4 1 2-2 2 1-2 1 3 2 2 2-1-5 3-1-1-1 2 1v5l2-2 4 1 1-1 5-1 2 3 1-2 1 4-4-1v3l1 1 2-2 1 1 2 1-2 5-3 3v2l2-2-1 4-3 3-1 3v-3l-1-1-1 5-2 4-2 6v3l-2 2 1 2 2-4 3-4 2-4 2-2 3-5 4-5 2-2 2-4 1-1 2-4 3-5 3-4 1-2h-2l1-4 2-1-2-3v-8l-2 4-1-3-2-2-2 2-2-4-2-1-1 3-1-3-2 2-3 1v-2l-1-3-1 2h-2l-5-1-1 1-2-1h-5l-1 2-2-2-4 1h-3v3l-1-3-3-1-1 2-5-1-1 4-2-2h-3l-4 3-3 1-1 4v3l1 5 3 4 2 4 5 6 3 3 1 3v3l5 5 10 12 3 4 1 3 3 1v-1zm54 31v-1l-1-5-1-4-1-8-2-4-1-6-2-4-1 3-2-2-1-3-2 4-1-3-7-1-4-2h-3l-2 1-1-1-4-1-1 2h-1l-2 3-6 5 1 6 3 4 2 5 3 4 1 4 5 5 2 1v3l5 5 1 3h5v3l2 3 3 5 3 4 2-2 1 3 2 4 2 2 4 5-1 4h2l2 3 4 10 2 2h3l1-7 2-4 1-8 2-4 1-8 2-4 1-7-2-1 1-5 2-2 1-8v-3h-2v-3l1-4v-3l-1-4-2-1-1-2-1-1-1-3-2 2h-3l-1 2-1-3-4-1-1-3-4-1-1-4-2 2-2-2-2 2 2 3 1 3 2 2h2l2 4 2 3 2 4-1 3v7l2 4v5l3 1v3l1-4 1-6 1 4-1 7-2 2v10l1-8 2-2v6l1-4 1-5 1 4-1 4v7l-1 4-2 4v8l-2 2v3l-1-1-2-4 1-5-2-4v-6l-1-1-1-7-2-4-1 6v1l-4-4v1l1 6v3l3 5-1 1-3-4-2-4-2-2-1-2h-1l-2-3-2-5-8-8-3-4-4-2-2-5-1-1-2-1-2-4-2-1 3-3h3l2 2v-2h2v-2l-1-2h8v-2l10 2 3 1 1 3 1 6 2 4zm-119 27 1-3-1-5-2-4-2-5-1-5-2-6 3-2 2-4-2-2h3l5-1 4-1 3-1h3l3-2 2-2 4 1 3 3-1 4 3-1 1-5 2-2h2l-1 5 3-4 1-3 3 3-1 4 2 2-3 1v3l-2 6 2-2 3-5 3-4 3-5 2-3 3-3h1v-6h-3l-4-2h-3l-5-1h-6l2 2-4-1-4 1v2l-1 1-4-1-4 3-6 2-4 3-6 2-4 3-6 2-4 4 2 4 4 10 3 4 1 5 2 4 1 7zM93 104h3l1-1z"/><path fill="#488376" d="m272 113-1-3 1-6h-3v7l1 1v3z"/><path fill="#588a7f" d="M99 123v-3l-3-3-5-3-1-2h-2l-1-4-5-1h-5l1 5 2 2 6 8 2 2 3 1-2-4 3-3 2 2 4 1-3 3z"/><path fill="#70938a" d="M286 112v-6l-2 1-1 5-2 3 3 6 1 4v-9z"/><path fill="#487c72" d="M105 118h-2l-2-2-1-4-2-1-2-2-4-2-5 1 1 4h2l1 2 5 3 3 3v3l7 7v2l2 3h-1l2 1v-5l-2-1-1-5 2 2h2l-2-2-2-4zm0 0 3 2h3l-3-4-6-4v2l2 2z"/><path fill="#588a7f" d="M283 119v2l-3 1 1 4 1-3 1 3-1 1 1 4 1 5 2 2v-26l-1 4v9l-1-4zm-213 3h-1l-4-2-4 1h-3l2 3-5-2-4-1v2l4 1 4 3 3 3 3 1 2-1v-1l-2-2 3-2-4-2h2zm268-5-1-2-4 1 1 2v1l-3 1 1 2h2l-2 4 1 2 3 2 1-2v-3l-1 1-2 1 2-6z"/><path fill="#488376" d="m373 115-3 1-4 4-3 1-6 6v3l8-4-3-1 3-2 2-3h3l4 1 2-3v-2zm-44 149-5-4-2 4 3 2 5 5 5 6h-2v2l4 1h2l-2-2-4-8-2-2z"/><path fill="#588a7f" d="m308 126 1-1 2-4v-5l-2 4-4 4v3l3-3z"/><path fill="#487c72" d="m337 125 1-1v-7l-2 4-2 6 2-1z"/><path fill="#377265" d="m424 118-4-1h-13l4 1z"/><path fill="#70938a" d="m104 128-5-5-4 1 3-3-4-1-2-2-3 3 2 4 1 3 4 3 1 3 2 2h1l3-3z"/><path fill="#588a7f" d="M424 119v-1Z"/><path fill="#488376" d="m58 121-3-2h-5l-1 4h2v-2l4 1 5 2z"/><path fill="#588a7f" d="m86 126-1-4-4-1-4 1h-5v2l9 1h1zm103 6v-10l-3 1v16h1l1-2 1-4Zm54 18v-6l-6 2-1 5 1 1 4 2v-8z"/><path fill="#377265" d="m91 125-3-1 2 6 2 1 1 2 8 8 3 4 2 3v-3l-3-4-1-3-3-2-2-2-1-3-4-3z"/><path fill="#488376" d="m369 125-2 2-4 2-3 4-2 1-2 2 3 2 4-1-3 2 1 1-4 2-11 11-2 1-1 2 1 2 10-10 3-2 3-1 1-2 2-2h2l2-3h6l-3-3-1-3-2-5z"/><path fill="#377265" d="m86 126-4-1-4 1-2 1 4 1 2 2 3 4h6v-1l-2-2-1-3z"/><path fill="#588a7f" d="m82 130-2-2-4-1-1 1 3 3h4z"/><path fill="#488376" d="M315 137v-3l1-1-1-4-2-2-2 2v5l-2 2-2 4h3l1-1h2z"/><path fill="#588a7f" d="M107 135h1l-2-3v-2l-2-2-1 5-3 3h-1l3 2v-1l2-1z"/><path fill="#377265" d="M186 139h-1l-1-3-2-2v-6l-1 4v5l6 6 2-4v-6l-1 4-1 2z"/><path fill="#588a7f" d="m333 128-3 1h-3l2 2-4 4v6l1-3 3-1-2 3v2l5-5 1 2 2-3h2l1-3h-2l-2-2zM84 147l3 1 2-4-5-5-5-2-1-2-4-2-1-2-6-1v3l16 12zm93-12h-2l1 5-2 8 2 3v3l2 5 3-2v3l3-2v-3l-1-2-3-1 2-4-2-1-1-8zm-26 151-1 1-5 1-2 3 4-1 1 1v2l4-2v2l-3 2 4-1-1 3-1 2 3-2 1-1 4-2 1-2h3v-3l1-2-4 2-2 2-3 1 8-8h-2l-3 1 2-4-4 1-2 2 2 1v2l-1 2h-3l-2-2zM91 134h-6v2l4 1 4 3h2l-2-4zm144 11 2-2v-3h-6l-2 2-2-3-2 2-2-2-1 3-2-2v11h-2l-1 9-2 1 3 2 1-3 1 2h1l1-8h2l2-2v8l-1 4v2l-1 2 3 1 2-2v-8l2-1v-2l4-2h-3v-9zM36 234l-2 3-1 1-4 2h-3l-1 3-6 5-2 5 4-2v-2l5-5 4-3 5-1v-2l2-3z"/><path fill="#377265" d="m177 135 2 4 1 8 2 1-2 4 3 1 1 2v3l-3 2v-3l-3 2-2-5v-3l-2-3 2-8-1-5-2 4v15l2 4 2 5 4 1v2h3l2-1 1-4-1-1-1-8-1-4-2-5-2-2-1-5z"/><path fill="#70938a" d="m296 135-2 4-1 4-2 3-2 4-1 6 1 4 4-8 1-5 2-5 2-6z"/><path fill="#377265" d="M95 140h-2l-4-3-4-1 4 4 4 2 3 5v2l5 2 1 2v3h-2v1l8 1-3-4-3-5-2-2-3-5z"/><path fill="#70938a" d="m107 138-3-2-2 1v1l1 3 3 4v3l2 2v1l2 2 3 4 5 6 3 1-1-8-3-3-3-4-1-2 1-1-2-2zm266 3v-3h-6l-2 3h-2l-2 2-1 2-3 1-3 2-10 10v3l-2 1-3 4-1 2 2 3 2 1 1 3h1l4-4 5-4 5-5 2-4 2-2 1-3 2-1 1-3 2-1 3-5zm-21 14 2 2v2l-6 6 2-8zm-9 1 1-2 2-1 11-11 4-2-1-1-5 2-4 3-2 1-2 2h-1l-2 3-5 5v3z"/><path fill="#588a7f" d="M346 147h1l2-2v-2l1-1-5 2-7 7h3l4-4zm-10 82-2 1-3-3-3 4v1l4 1h4l2-2z"/><path fill="#70938a" d="M235 151v-6h-3v9l3-1z"/><path fill="#275249" d="m133 396-4-1h-7l4 1z"/><path fill="#407a6c" d="m409 153-4-1 1 1z"/><path fill="#70938a" d="m220 162 2 3 1-4 2-2-1-5h-2l-1 8zm11-4-1 9h5v-13l-4 2z"/><path fill="#488376" d="M237 154v12l2 1v-6l2-1-1-5z"/><path fill="#407a6c" d="M418 155v-1l-4 1z"/><path fill="#588a7f" d="m352 155-2 2-2 8 6-6v-2zm-2 80 1-1-2-2-1-3-4-1-2-2v3l4 3 4 2z"/><path fill="#488376" d="m338 168 1-2 3-4 2-1v-3l-2 1-4 1v3l-1 1-1 3z"/><path fill="#70938a" d="M428 160v-1Z"/><path fill="#377265" d="M451 176h1l-1-1Zm-309-6 9 9 6 5 2 2 4 3 2 2h3l3-1-2 3 1 1 3-3v-3l-2-4 1-1-1-4-1 1-1-3-2-1-1-3-3-3-4-3-4-2-4-1-4-2-8 2h8l2 2-2 2-2 3z"/><path fill="#588a7f" d="M281 165v-2l-2-1-2 4-3 2-2 3 2 2 3-3 3-5z"/><path fill="#488376" d="m335 165-1-2-7-1-6 3-6 2-2 3-3 2-5 5 1 2 3-2 2-2 4-2h2l1-1-2-2 5-2 4-3 6-1 1 4z"/><path fill="#70938a" d="m63 167 3-1h6l4-1-4-2h-7l-4 1-8 1-4 1 3 2h2zm159 215 4-2 1-1 1-4v-6l-4 1-1 1 1 4-2 4-1-4 1-4-1-2-2 2h-1v3l-1 4-1-1 1 2 4 2z"/><path fill="#275249" d="m423 163 7 7 5 2 1 2h3l4 2v-2l-5-3-4-3-3-1-2-2z"/><path fill="#377265" d="M36 165h-1Z"/><path fill="#488376" d="m142 170 3 1 2-3 2-2-2-2h-8l1 4zm44 185-1-3-3 4-1 4-2 6v1h1l1-1 3-4 2-5z"/><path fill="#70938a" d="M438 165h-1Z"/><path fill="#275249" d="m439 166-1-1Z"/><path fill="#588a7f" d="M33 167h-1Zm19 1-3-2h-5v3h7z"/><path fill="#377265" d="M442 168h-1Z"/><path fill="#487c72" d="m325 175 2-1 5-6-3 1h-4l-4 3-4 1-3 3-1 2 2 1h2l3-3z"/><path fill="#588a7f" d="M338 168h-2l1 3v2l-2 3v2l2 2 3-3 3-1v-1l-1-3-2-1zM73 178l4 1 3-2-2-2-3-1-4-3-3-1-4-1-9 1-4 1 2 2 4 2 3-1v-2h5l4 2h5z"/><path fill="#488376" d="m387 171-4-2h-12l4 2 8 1z"/><path fill="#377265" d="m447 172-1-1Z"/><path fill="#70938a" d="m392 177 3 1 10 4v-2l-3-1-4-3-5-3-6-2-4 1 4 2 5 2z"/><path fill="#588a7f" d="m313 178 1-2 3-3h-2l-4 2-2 2-3 2-4 3-1 2 4-1 3-4zM213 382h-2l-2 2v9h3l1-4z"/><path fill="#70938a" d="m448 173-1-1Z"/><path fill="#488376" d="M392 177v-1l-5-2-4 1-4-2-3 1h-4l-3 3 2 2-1 2v3l4-1-1 3-4 2-4 3-1 2 5-2 1 2 7-1h2l-1 2 2-1 6-1 2-2-1-1-2-3v-3l4 2 2-2 2 2 7-1v3l-4 1h7l2-2 6 1 1-2-4-1-12-4h-3z"/><path fill="#275249" d="M451 175h-1Z"/><path fill="#588a7f" d="m53 183 2-2h9l-3-1-1-2-7-1H41l-2 2 4 2 7 1z"/><path fill="#70938a" d="m62 186 2-1 4 1 2-2-4-1 4-1 1-1-6-2-5-1 1 2 3 1h-9l-2 2 4 1z"/><path fill="#377265" d="m43 181-4-1-5-1-5 1-10 1-1-2-1 3 4 1h18l4 2 6 1 4 2 9-1-5-3-4-1-3-1z"/><path fill="#588a7f" d="m396 188 4-1v-3l-7 1-2-2-2 2-4-2v3l2 3 1 1v-1zm-295 12 1-1-2-2-4-2-1-7h-2l-1 1-4-2h-3l-8 2 7 1 3 1 2 2 4 1-3-4h3l2 2-1 5 4 2zm243 71-3-3-4-3 1 5 2 4 2 5 3 4 2 5 3 4 1 5 3 4 2 6 3 4v1h1v-5l-1-2-2-5-2-3-2-6-1-4-2-1-1-5-3-4z"/><path fill="#70938a" d="m93 194-4-1-2-2-3-1-7-1 8-2H69v4h7l4 2 8 1 2 2h2z"/><path fill="#488376" d="m239 194-1-4-5-2v2l-4-1-1 3-2 1 4 1 4-1 1 1z"/><path fill="#588a7f" d="m370 193-1-2-5 2-3 3 4-1v1l3-1z"/><path fill="#70938a" d="m378 194 1-2h-2l-7 1-2 2-3 1-4 2h-3l-4 4v3l2 1 4-2v-1l5-2 4-3 4-1 2-2z"/><path fill="#377265" d="M360 204h1l4-1 4-2 2-2 5-1 6-3h3l1-3-6 1-2 1-3 1-2 2-4 1-4 3-5 2z"/><path fill="#275249" d="M431 193h-1Z"/><path fill="#488376" d="M365 196v-1l-4 1 3-3h-5l-2 4-4 2-1 2-4 3-4 1-1 6 4-1 5-1 4-3-2-1v-3l4-4h3z"/><path fill="#377265" d="M431 194v-1ZM59 205h-1l-1 1Z"/><path fill="#488376" d="m309 221 2 1 1-4-6-3-4-4-6-2-1 2h-3l-4 2-2 2v3l4-1h3l6 2h7z"/><path fill="#275249" d="M424 211h-1Z"/><path fill="#377265" d="M45 213h-1Zm417 44-2-4-3-4-2-5-2-2-3-5-2-1-3-4-6-5-4-4-3-2-3-3h-3l-4-3-6-2-5-2h-8l1 2 5 1 4 2 5 2 4 2 5 2 4 3 2 1 8 6 2 2 5 6 3 3 9 15v3l1 2 3-1-1-3z"/><path fill="#588a7f" d="M41 216h-1Z"/><path fill="#377265" d="M432 216h-1Z"/><path fill="#275249" d="m433 217-1-1Z"/><path fill="#377265" d="M433 218v-1Z"/><path fill="#487c72" d="m348 229-1-1-3-4-7-7h-5l-2 4 4 2 1 3 4 2 1 2-4-1 2 2 2 3h3l4 2 4 3 3 3-1-3-3-4v-1l-4-2-4-3v-3l2 2zm-17-2-4-1-4 1 1 1-2 2h-3l-2 2h-3l-3 4 2 2v2h2v-1l4-1-3-2 3-1h6l3-3v-1z"/><path fill="#377265" d="m422 235-4-1-4-2h8v-2l1-1-1-4-2-2-3-1-2-2-5-1-4-1v2l-5-1-3 3v3l4-1-3 4 3 2h3l4 1 2 3 1-2v3l1 1 1-1 1 4 1-1 1-3v3l4 1z"/><path fill="#488376" d="m30 248-2-1 3-2v-3l6-1v-3l5-5 6-2 2-2 4 1 4-2h5l2 2 5-1 2 2-2 1 3 2 3-3 3-4h-6v-3l-2 2-4-2-4 1-4-1-4-2v2l-2-2-5 1-1 1v-2l3-3-5 2-4 2-2 4-8 1-5 6-4 5-2 5-3 3-1 3-2 2-2 4h-1l-2 6 5-1 4-3 4-2 4-3 5-2 4-2 5-1 6-2 4-1h-6l-4 1-10 4zm6-14 1 1-2 3v2l-5 1-4 3-5 5v2l-4 2 2-5 6-5 1-3h3l4-2 1-1z"/><path fill="#377265" d="M438 221h-1Zm0 1v-1Z"/><path fill="#588a7f" d="m73 234-3-2 2-1-2-2-5 1-2-2h-5l-4 2-4-1-2 2-6 2-5 5v3l-6 1v3l-3 2 2 1 3-1 5-3 1 2 2-4 5-1v-3l3-1h3l-2 1-1 2 5-1-1-4 3-3 1 1v2h3l4-1h3l-3 2h-5v2l5-1h3l-1 5h1l3-3 1-3z"/><path fill="#488376" d="m129 249-2-3 1-4v-3l3-1 4 1 1 1 3-1-1-3-3-1 3-3-2-4-2 2-2-2-1 1h-3v5l-2-2-1 4v14l2 1z"/><path fill="#70938a" d="m354 242-3-3-4-3-4-2h-3l-2-3-2 2h-4l-4-1-3 3 1 3 5 1-4 1-5-1 2 2h6l4 1h7l4 1 6 1v1h2zm-288 0 1-5h-3l-5 1v-2h5l3-2h-3l-4 1h-3v-2l-1-1-3 3 1 4-5 1 1-2 2-1h-3l-3 1v3l-5 1-1 4 4-1h6l3-2h11z"/><path fill="#588a7f" d="M23 235h-1Zm301 6-2-2 5 1 4-1-5-1-1-3h-6l-3 1 3 2-4 1v1h3l5 1z"/><path fill="#377265" d="M422 235v5l2 1h3l2-4-3-1-1 3-1-3z"/><path fill="#588a7f" d="m136 240-1-1-4-1-3 1v3l-1 4 2 3h2v-2l3-3-1-1zm-81 96h-1v-6l2-1-1-4v-6l-2 4v21l3-1 1-3 3-1v-2h-3l-1 1v2z"/><path fill="#377265" d="M18 242h-1v1Z"/><path fill="#487c72" d="m357 243-3-1-1 3h-2v1l6 1 1-4Z"/><path fill="#275249" d="m66 246 1-2-3-1H53l-3 2-4 1-6 2-5 1-4 2-5 2-4 3-4 2-4 3-5 1 2-6-3 3 1 5 1 1 9-3 4-1 5-1 4-2 5-1 4-1 9-1h5l2 2h1l-6 6-3 4v3h-3v3l-2 1v3l1 1-2 2-2 6-2 3 1 1-3 1-2 5v2l-3-1 1 3h1l4-1 4-2 2-2 5-3 4-2 1-2 4 1 2 2 5-5 10-4 4-2 7-1 4-2h5l-2 3h2l2-2 4 1h3l4 1 5-1 1-5 2-2 2-6 2-4 5-6-2-3-1 3-5 1-4 2-5 1-4 2-5 1-4 2h-2l-4 3-6 2-2 2-5 2-3 1-7 7-5 3-2 1-2 2-2-2 1-2 1-5 1-4v-6l2-4v-5l2-4 2-6z"/><path fill="#377265" d="M420 272v-1l-1-4-1-5-1-4-1-6-3-5-3-3 2 4 1 5 2 4-1 4v2l2 2 1-4 1 7zM16 245h-1Z"/><path fill="#70938a" d="m39 246-1-2-5 3-3 1v2l5-2z"/><path fill="#488376" d="M66 267h-1l1-8 4-8 1-7-5 2-2 4-2 6-2 4v5l-2 4v6l-1 4h1l1-5 1 4 1-1 3-4zm256 13h-1l-4-3-3-1 5 5 1 5 2 2v1l8 8 4 2 8 8 2 1 3 3h3l-2-2-4-5-1-3-3-3-2-1-2-4-4-2-3-1-2-2-2-1-2-4z"/><path fill="#275249" d="M458 245h-1Z"/><path fill="#487c72" d="M15 247v-2l-1 2Z"/><path fill="#488376" d="m215 271-1-4h2l-3-4-1-3-1-4 2 1 3 3 4 2 1-2 3 4 1 5 1 1v-8l3-1 1-1v9l2 2 2-4v-9l1-1 2 4 1-4v6l-2 4-2 8v3h2l1-4 2-2v3l1 1v3l1-3 3-3 1-4-2 2v-2l3-3 2-5-2-1-1-1-2 2-1-1v-3l4 1-1-4-1 2-2-3-5 1-1 1-4-1-2 2v-5l-2-1 1 1-3 1 1 5-2-2-3-2 2-1-2-1-2 2-4-1-2-2v6l-1-3-3-1v-3h-2l-2-3-2 2v3l1 3-4-4 2 8 2 3 5 5 2 4zm22 134v-1h11l4-1 4 1v-2l-4-1-2-1-4 1h-72l-4 1-5-1-4 1h-12l-4-1-2 2h8l4 1 5-1 4 1h6l4 1h27l-2-2 4-1h8v2h-9l4 1zm-52 11v4l-1 4-4-1h-7v-5l-4-1-1-1h2l8-2-2-1-2-2v-3l-3-3h-23l2 2h3v7l2-1-1-7 4 2v3l1 3 1-4 5 5h-8l-1 1v3l2 4 4 1h10l-4 1h-6v1h64l1-3v-5l-2-1v7h-6l-2-4-1 3-2 1-4-1v-5l-1 4-3 2-4-1h-3l-4 1-2-8v8l-5-1-1-5z"/><path fill="#377265" d="M13 250h-1Z"/><path fill="#588a7f" d="m407 256 2 1v-3l-1-5-2 4v1z"/><path fill="#407a6c" d="m414 260-3-9-3-2 1 5v3l-2-1 1 3h4z"/><path fill="#488376" d="M362 254h1l4 1 5 1 4-1-2-1-2-4-2 2-1-1h-6z"/><path fill="#275249" d="m407 256-1-2-4-4v2l3 4 1 4 2 2 1 3 2 2 1-1-1-1-2-6h-1z"/><path fill="#377265" d="M11 254h-1Z"/><path fill="#04fc04" d="M46 262v-2l-1 2Z"/><path fill="#377265" d="m32 297 3 1v-2l2-5 3-1-1-1 2-3 2-6 2-2-1-1v-3l2-1v-3h3v-3l3-4 6-6h-1l-2-2h-5l-1 2-2 3-1 2-2 2-2 4-2 3-1 2-1 3-1 2-1 6h-1l-1 7h-1l-1 3-1 1z"/><path fill="#588a7f" d="m232 271-2-2v-9l-1 1-3 1v8l-1-1-1-5-3-4-1 2-4-2-3-3-2-1 1 4 1 3 3 4h-2l1 4 3 3 5 6 3 5 2 5v2l2 4v1h3l-1-2 2-2v-3l2-6 2-4 1-5v-3l-2 2-1 4h-3v5l-2 1 1-5z"/><path fill="#407a6c" d="M234 278v-3l2-8 2-4v-6l-1 4-2-4-1 1v9l-2 4v8l-1 5 2-1v-5z"/><path fill="#488376" d="M9 258H8Z"/><path fill="#487c72" d="M344 271v-3l-7-7-4-3-4 1 8 10 1 1-1-5 4 3z"/><path fill="#70938a" d="m414 260-2-1h-3l2 6h2l1-2v-2Z"/><path fill="#377265" d="M47 260h-1Z"/><path fill="#487c72" d="m298 265-8-4-5-1v2l-1-1h-3l-2 2 5 2-4 2h-4l1 2 5 1 2 2v-4h3l4-1 2-1h6zm122 7-2-4-1-7-1 4-2-2-1 2h-1l2 2h2l1 1 1 5h2Z"/><path fill="#488376" d="m314 269 1-1 4 2 2 2h1l-2-2-1-3-9-3z"/><path fill="#70938a" d="M43 266h-1Z"/><path fill="#407a6c" d="M93 265h-2l-5 1-5 4-4 2-1 2 5-2 2-2 6-2z"/><path fill="#588a7f" d="m305 268-2-1-5-2 1 1h-6l-2 1-4 1h-3v4l5 2h1l2-5 4 2v-2h1l7 1z"/><path fill="#377265" d="M37 278h-1Zm5-10"/><path fill="#488376" d="M314 276v-1l-3-3-2-1v-3l-2-2-2 2-1 2 4 2 3 3z"/><path fill="#70938a" d="M322 272h-1l-2-2-4-2-1 1 3 4 4 1 2 2v4l4-2 1 3 6 5h2l-1-2-5-5-6-5zm-8 4-3-1-3-3-4-2-7-1h-1v2l-4-2-2 5 4 2 5 2 3 1 4 3 6 1 2 2 5 3 3 1v-1l-2-2-1-5z"/><path fill="#487c72" d="M228 292v-2l-2-5-3-5-5-6-3-3 1 3-1 1 6 8 3 3 2 5z"/><path fill="#588a7f" d="m61 282 1 1 4-3 3-3 2-4-4 3z"/><path fill="#488376" d="M323 280v-4l-2-2-4-1 3 5 2 2Z"/><path fill="#588a7f" d="m113 317 2-2 1-3 1-4 1 1 2-2 2-4v-2l-1-1 2-5 1 3 2-2-2-2 2-4 8-4v-3h2l2 2 2-1 2-5-3-1h-2l-1 2-2-2-1 2-4 2h3v2l-3 1h-2v-2l-3 1-2 4 1-6-2 4-2 5-2 1-2 4-1-1-1 6v10l-1 4z"/><path fill="#407a6c" d="M70 278h-2l-2 2-4 3-1-1-3 3h-2v-1l-1 2 2 2 2-2 2-1 5-3z"/><path fill="#588a7f" d="M336 286h-2l-6-5-1-3-3 2 5 5 6 5v-2l3-1zm3 7 1 1 5 4v-2l-3-4 2-1-3-4-1 3v3z"/><path fill="#487c72" d="m83 288 5-5-3-2-4 1-5 5h3l4-1z"/><path fill="#488376" d="M35 284v-1l-1 1Z"/><path fill="#70938a" d="m138 285-2-2h-2v3l-8 4-2 4 2 2-2 2-1-3-2 5 1 1v2l-2 4-2 2-1-1-1 4-1 3-2 2v14l2 1v-2l1-5 1 1v3l1-5-2-2 2-3 1-1v3l2-3 2-6 2-4 2-5 5-5v-3l2-4 2-2z"/><path fill="#588a7f" d="M83 288v-2l-4 1h-3l-2 4-2 2 3 2-5 1-2 5-3 4-2 6v1l3 1 2-4 3-5 3-4 3-5 4-5z"/><path fill="#70938a" d="m340 290-2-3-3 1v2l4 3h1z"/><path fill="#377265" d="M32 294v-1l-1 1Zm23 14v-1l-1 1Z"/><path fill="#70938a" d="m151 299 1-2 1-3-4 1 3-2v-2l-4 2v-2l-1-1-4 1-1 3-3 1-3 5-7 7-3 2-1 5-2 2-2 5-1 5h1l2-1 1-2 5-6 6-6 5-3 1-4h2l5-5 2 1zm118 14-1-2h-10l1 5 2 2-3-1-2-4-3 2 2 2-1 3 3 2h1l1 4 1 1 3 4 8 8 2 5 2 3h1l2 1v-2l2-2v-2l-4-1 2-1-2-4v-6l-2-2-1-3 3 3 1-3-4-3-1-6-3-2h-3l-4-2z"/><path fill="#488376" d="m357 300-1-9h-3l2 6z"/><path fill="#487c72" d="m62 301 2-5v-3l-1-1-2 4v5Z"/><path fill="#70938a" d="m110 293-1-2-6 2h-3v2l-4 1 1 1-4 3-5 2-4 5 4-1v3l1 2 4-2 4-1 1-2 3-1 5-3 4-3-1-5z"/><path fill="#487c72" d="m65 305 3-4 2-5 5-1-3-2-3 2h-2v3l-2 5z"/><path fill="#377265" d="M59 296h-1Z"/><path fill="#588a7f" d="M142 308v-1l3-2 5-5-2-1-5 5h-2l-1 4z"/><path fill="#487c72" d="m289 316 1-3-2-4-2-3-2-4h-2l-2-2 1 7 1 4 1 6h3l-2-2-1-5 4 2z"/><path fill="#275249" d="M111 324v-7l-1-4v-7l-1-4-5 3-4 2-3 1-2 2-5 3-2 2h-1l-3 3-4 3-5 4-12 10-3 4-3 5-4 2 1 2 5-1-1 4 2-2-1 4-3 6h-4v1l5 1 4-4 6-5 5-4 5-5 5-3 2-2 3-1 4-3 5-3 8-4 5-2z"/><path fill="#377265" d="m186 357 3-3 4-5 3-5 18-24 2-2 2-5 2-2 2-4v-3l-3 3 1-4-2-1-2 2-3 4-2 4-3 5-2 2-6 8-2 2-2 5 2-1 3-5h2l1-1h2l-1 3-4 5-3 4-1 1-3 5-2 2-2 4-4 4z"/><path fill="#488376" d="m278 310-1-3-3-1-10-2v2h-2l1 2 1 1h3l1 1v1l1 2v-3l1-1 2 2v5l1 6 4 3-1 3-3-3 1 3 2 2v6l2 4-2 1 4 1v2l1-1 4 4v-1l1-6-1-9-2-4v5l-2-2-2-5-2-2-1-3-2-4v-5l3 3zm2 22 2 2v3l-2 3-2-6 2-1z"/><path fill="#377265" d="m398 304 2 4 2 2 3 2v-1l-3-5z"/><path fill="#487c72" d="m188 315 1-4-3-3-4-1-2 2-3 2h-3l-3 1-4 1-5 1h-3l2 2-2 4-3 2 2 6 1 5 2 5 2 4 1 5-1 3 1 6 2 4v5l1 4 2 4v-1l-1-5-1-4 1-4-1-7 2-1v-2h-3v-5l-1-5-1-4v-8l-1-2 2-2-1-4 2-3 3 3 2-2h3l1 3 2-2 2 2 1-4-4 1 2-3 4 1 1 4v3l-3 4v7l1-4 2-2-1 5-1 4-2 6 1 1 2-2 1-5 2-4 1-3 1-5 1-1 2-6h3l1 1-2 4v5l-2 5 4-2 3-3 3-9v-3l3-1-2-2 1-4-3-3-1 3-3 4 1-5h-2l-2 2-1 5z"/><path fill="#588a7f" d="M268 311v-1l-1-1h-3l-1-1-1-2h-6l1 2v2h-2v2l-2-2h-3l-3 3 2 1 2 4 2 1 1 1 1-3-2-2 3-2 2 4 3 1-2-2-1-5zm-31 115v-1l4-4 3-4v5l2 2v-7l-2-1h-3l-4-1h-6l4 2-1 4-1 3h-5l1 2z"/><path fill="#487c72" d="M362 319h1l1 1-1-7-1-5-2-1v5h-1l1 5z"/><path fill="#407a6c" d="M142 308h-2l-5 3-6 6-5 6-1 2 5-5 12-10z"/><path fill="#588a7f" d="M272 316v-5l-2-2-1 1v3l-7-1 4 2h3zm10 7-1-3-2-4-1-6-1 4-3-3v5l2 4 1 3 2 2 2 5 2 2v-5zm-85 17-2-1h-2l-4 4-2 5-2 4 1 3 4-4 2-4 2-2z"/><path fill="#70938a" d="M291 332v-5l-2-4v-7l-2-4-4-2 1 5 2 2h-2v5l2 4 1 9 1 5 2 4v2h2v-7z"/><path fill="#407a6c" d="M53 316v-3l-1 3Z"/><path fill="#377265" d="M238 397h4l5-1 1-2 2-2 1-5 1-4 1 4v3l1 4v-8l-1-5-1-1-2-5-3-3 3-1-3-4v-12l-1-1-1 5v3l-1-3-1-10v-3l-2 2v-5l-3-2v-11l-2-1-1-4v-3l1-4-3-4-2-1-2 2-4 5h2l1 1v3l1 4v-8l2 2v3l-1 4 2 4 2 2-1 6 3 1-1 4v7l2 2v10l1-4v-7l1 4v16l1 5-2 3 2 1v9l1 1-3 3z"/><path fill="#588a7f" d="m190 332 2-5v-5l2-4-1-1h-3l-2 6-1 1-1 5-1 3-2 4-1 5-2 2-1-1 2-6 1-4 1-5-2 2-1 4v-7l3-4v-3l-1-4-4-1-2 3 4-1-1 4-2-2-2 2-1-3h-3l-2 2-3-3-2 3 1 4-2 2 1 2v8l1 4 1 5v5h3v2l-2 1 1 7-1 4 1 4 1 5v6l2 1h3l-2-4 1-6 1 3 2-3 2-5 1-7 1-2v-3l2-2v-1l2-5 2-4 3-3zm-11 25h-1l-1 4-3 4 1-4 1-7zm-5 48h-3l3 3v3l2 2 2 1-8 2h-2l1 1 4 1v5h7l4 1 1-4v-4l-5-1v-7l1 1 1 5 4-1v-6h-3l-1-2z"/><path fill="#487c72" d="M238 397v-1l3-3-1-1v-9l-2-1 2-3-1-5v-16l-1-4v7l-1 4v-10l-2-2v-7l1-4-3-1 1-6-2-2-2-4 1-4v-3l-2-2v8l-1-4v-3l-1-1h-2l-3 5-5 5 1 4h-3v7l-3 1v11l-2 1-1 10-2 4v11l-1 4v7h-2l1-5-1-1-1 4v9h11l-2-1 2-2v-8l-1-4-4-2 2-5 2-2-1-1v-8l1-4 1-6 1 4v3l1-1 1-7 3-1-2-1v-5l2-2 1 4v3l1 1v-9l1-2h3l2 4v8l1-4h3l-2 5-1 5 1 4 1-9 2 4-1 4v3l2 2-3 2h3v3l-1 4 1 4-3 1 4 1v6l-1 4-1 1-5 1-1-2-4 2-1 1h11l-2 2zm-25-15v7l-1 4h-3v-9l2-2z"/><path fill="#377265" d="M51 341v-19l-1 4v15z"/><path fill="#588a7f" d="M70 323v1l-5 1 2 3 4-2 1-2zm39 2"/><g fill="#488376"><path d="m197 340 1-1 3-4 4-5 1-3h-2l-1 1h-2l-3 5-2 1-3 3-2 4 2-2h2zm97 9v-10l2-2 1-7-1-4-1 6-1 4v-3l-3-1 1 7v7h-2l1 4 1-3 2 8z"/><path d="m297 357 1-2 1-4v-7l1-4-1-4-1 5-1 4v-6l-2 2v15z"/></g><path fill="#377265" d="m182 350 2-2 2-5 3-4 2-4 2-2 1-3-4 2-1 5-3 3-2 4-2 5zm21 47v-9l1-4 1 1-1 5h2v-7l1-4v-11l2-4 1-10 2-1v-11l3-1v-7h3l-1-4-2 2-5 6-2 2-6 8-2 5-3 1-2 4 1 1-4 1-2 4-5 5-2 4-1 4-1 5-1 1-1 5-2 2 2 2 2 3-3 1 9 1z"/><path fill="#588a7f" d="M280 332v1l-2 1 2 6 2-3v-3zm-53 60 1 2 5-1 1-1 1-4v-6l-4-1 3-1-1-4 1-4v-3h-3l3-2-2-2v-3l1-4-2-4-1 9-1-4 1-5 2-5h-3l-1 4v-8l-2-4h-3l-1 2v9l-1-1v-3l-1-4-2 2v5l2 1-3 1-1 7-1 1v-3l-1-4-1 6-1 4v8l1 1-2 2-2 5 4 2 1 4v8l-2 2 2 1h17l2-2h-11l1-1 4-1h-5v-11h6l-1 7zm-5-10-1-1-4-2-1-2 1 1 1-4v-3h1l2-2 1 2-1 4 1 4 2-4-1-4 1-1 4-1v6l-1 4-1 1zm-7 0h5v3l-1 5v3l-3-1v-3l2-4-2-2-1 1z"/><path fill="#377265" d="M53 351v-4l-1 4Zm-1 8h4l3-6 1-4-2 2 1-4-5 1-1 3v5z"/><path fill="#407a6c" d="M181 360v-2l1-8-2 2v3l-1 2-1 7-2 5-2 3-1-3-1 6 2 4h-3l-2-1 1 4h4l2-2 1-5 2-4 1-4h-1v-1z"/><path fill="#70938a" d="m179 357-3-3-1 7-1 4 3-4 1-4z"/><path fill="#488376" d="M296 359h-2l-2-2 1 9 1 3 2-2z"/><path fill="#377265" d="m152 378 1 1v-1Z"/><path fill="#70938a" d="M215 382v2l1-1 2 2-2 4v3l3 1v-3l1-5v-3zm12 10v-3l1-7h-6v11h5Zm10 13h-31l-4-1h9v-2h-8l-4 1 2 2h-19l1 2h3v6h2v-7l1 4 2 2h2l3 2v-8l2 8 5-1 4 1 5-1h6l6 1v-3l2-4 1 1v3l1 2 2-1v-3l1 1h2l2-4 1 4v3l1-1 1-7Z"/><path fill="#588a7f" d="M251 405h-13l-1 7-1 1h3l3-1v-2l3-3v7h1v-1l1-6z"/><g fill="#488376"><path d="M247 414h4v-2l1-4 1 1 1 5 2-4 1-3 5-1 2 8v-9h-13l-4 2-1 6z"/><path d="M236 413v-3l-1-4-2 4h-2l-1-1v3l-2 1-1-2v-3l-1-1-2 4v3l-6-1h-6l-5 1-4-1-5 1-2-8v8l-3-2h-2l-2-2-1-4v7h-2l-4 1-1-5-1-1v7l5 1 3-1h49l4 1h3l2 1v7l-2-2v-5l-3 4-4 4v1h10v-1l4-1v-3l1-5-2-1-4-1h-1v-7l-3 3v2l-3 1z"/></g><path fill="#588a7f" d="M111 422v-8l-1 4z"/><path fill="#488376" d="M156 416h-3l-4-1 1 2 3 1v6l2-1v-7zm97-1v8h2l2-1-1-4 2-2z"/></svg>
