<svg xmlns="http://www.w3.org/2000/svg" viewBox="0 0 263 314"><path fill="#101612" fill-rule="evenodd" d="M49 24.935c0 3.194 2.761 15.165 4.96 21.499 9.952 28.68 36.665 51.756 67.04 57.915 8.486 1.721 28.374 1.568 36.353-.28 26.694-6.181 50.894-26.487 62.764-52.667 3.06-6.749 6.864-20.94 6.876-25.652L227 23h-89c-87.331 0-89 .036-89 1.935"/><path fill="#167f87" fill-rule="evenodd" d="M122.9 107.18c-31.709 6.193-58.697 29.044-68.956 58.386C51.729 171.902 49 184.608 49 188.588V191h178l-.007-4.25c-.019-11.25-7.032-30.469-15.36-42.09-5.04-7.033-16.989-18.835-23.633-23.343-19.628-13.318-43.147-18.425-65.1-14.137"/></svg>
