<svg xmlns="http://www.w3.org/2000/svg" viewBox="0 0 263 314"><path fill="#101612" fill-rule="evenodd" d="M143 13.391v13.392l4.194 1.678c10.297 4.12 16.824 13.254 16.784 23.485-.027 6.843-2.441 12.309-7.636 17.289-2.142 2.054-11.026 8.423-19.741 14.152l-15.846 10.417-5.127-2.993c-6.349-3.705-11.129-8.193-12.658-11.883-2.616-6.315 3.453-14.358 18.079-23.96l7.829-5.14.697-5.586c.757-6.056.026-30.974-.937-31.937-.324-.324-1.204-.08-1.956.544-.751.623-1.662.838-2.024.476s-.658-.107-.658.567-.399.98-.886.678c-.85-.525-14.081 4.987-15.114 6.296-.275.349-3.145 1.984-6.378 3.634s-6.378 3.788-6.99 4.75S93.017 31 92.404 31C90.845 31 77 45.113 77 46.701c0 .714-.425 1.299-.945 1.299-1.883 0-8.113 14.515-9.184 21.397-1.232 7.919-.002 16.422 3.338 23.078 3.261 6.501 9.362 13.767 14.713 17.525 2.742 1.925 4.972 3.725 4.957 4s-2.357 2.325-5.203 4.556c-8.769 6.873-15.781 17.31-19.064 28.376-2.354 7.931-2.132 21.582.476 29.35 4.577 13.632 13.666 24.221 26.533 30.912 5.949 3.093 17.51 6.806 21.193 6.806.86 0 1.186-3.99 1.186-14.531 0-12.962-.189-14.592-1.75-15.085-11.811-3.735-19.223-12.404-19.244-22.508-.01-4.601 2.964-11.257 6.787-15.189 2.039-2.097 10.153-8.085 18.032-13.307l14.325-9.493 7.364 4.589c11.362 7.082 14.991 12.477 12.476 18.548-1.446 3.491-5.485 7.213-14.206 13.091-3.456 2.329-6.615 4.719-7.019 5.31s-.741.682-.75.203c-.008-.48-.69-.313-1.515.372-1.228 1.019-1.5 4.396-1.5 18.622 0 11.281.362 17.378 1.032 17.378.568 0 4.506-1.342 8.75-2.982 9.045-3.494 20.442-10.073 28.301-16.336 5.747-4.58 16.176-17.454 15.295-18.88-.273-.441-.083-.802.422-.802s1.882-2.934 3.059-6.521c5.891-17.945-1.252-36.973-18.109-48.239-2.062-1.378-3.739-2.783-3.726-3.123.013-.339 1.857-1.967 4.099-3.617s7.007-6.099 10.589-9.888c8.879-9.39 13.942-19.939 15.451-32.195.937-7.611.844-10.278-.608-17.451-1.036-5.118-3.164-11.234-5.383-15.466C182.786 18.134 172.77 7.588 165 3.156 160.065.341 158.652.018 151.25.009L143 0z"/></svg>
